<svg xmlns="http://www.w3.org/2000/svg" width="375" viewBox="0 0 375 375" height="375" version="1.0"><defs><clipPath id="a"><path d="M 41.46875 84 L 333.21875 84 L 333.21875 207 L 41.46875 207 Z M 41.46875 84"/></clipPath><clipPath id="b"><path d="M 224 300 L 301 300 L 301 337.894531 L 224 337.894531 Z M 224 300"/></clipPath><clipPath id="c"><path d="M 74 300 L 151 300 L 151 337.894531 L 74 337.894531 Z M 74 300"/></clipPath><clipPath id="d"><path d="M 135 37.144531 L 221 37.144531 L 221 89 L 135 89 Z M 135 37.144531"/></clipPath></defs><g clip-path="url(#a)"><path fill="#FFF" d="M 323.53125 206.453125 L 295.371094 206.453125 L 295.371094 196.785156 L 323.53125 196.785156 L 323.398438 93.535156 L 51.304688 93.671875 L 51.4375 196.917969 L 70.078125 196.785156 L 70.078125 206.453125 L 51.304688 206.453125 C 48.761719 206.453125 46.371094 205.460938 44.574219 203.660156 C 42.773438 201.859375 41.785156 199.464844 41.785156 196.921875 L 41.785156 93.535156 C 41.785156 90.988281 42.773438 88.59375 44.574219 86.796875 C 46.371094 84.996094 48.761719 84.003906 51.304688 84.003906 L 323.53125 84.003906 C 326.074219 84.003906 328.464844 84.996094 330.261719 86.796875 C 332.058594 88.589844 333.050781 90.984375 333.050781 93.535156 L 333.050781 196.917969 C 333.050781 199.46875 332.058594 201.863281 330.257812 203.660156 C 328.464844 205.460938 326.070312 206.453125 323.53125 206.453125 Z M 323.53125 206.453125"/></g><path fill="#FFF" d="M 145.175781 196.785156 L 229.660156 196.785156 L 229.660156 206.453125 L 145.175781 206.453125 Z M 145.175781 196.785156"/><path fill="#FFF" d="M 234.488281 243.910156 L 224.832031 243.910156 L 224.832031 173.421875 C 224.832031 169.628906 226.308594 166.054688 228.992188 163.363281 C 231.691406 160.667969 235.253906 159.191406 239.046875 159.191406 C 242.835938 159.191406 246.40625 160.667969 249.09375 163.355469 C 251.785156 166.054688 253.261719 169.628906 253.261719 173.425781 L 253.261719 220.417969 L 243.605469 220.417969 L 243.605469 173.425781 C 243.605469 172.207031 243.128906 171.058594 242.265625 170.191406 C 240.550781 168.480469 237.546875 168.472656 235.816406 170.199219 C 234.960938 171.058594 234.488281 172.207031 234.488281 173.425781 Z M 234.488281 243.910156"/><path fill="#FFF" d="M 272.035156 220.414062 L 262.378906 220.414062 L 262.378906 203.765625 C 262.378906 202.550781 261.90625 201.398438 261.039062 200.535156 C 259.324219 198.824219 256.320312 198.8125 254.589844 200.542969 C 253.734375 201.398438 253.261719 202.550781 253.261719 203.769531 L 253.261719 220.417969 L 243.605469 220.417969 L 243.605469 203.769531 C 243.605469 199.976562 245.078125 196.402344 247.765625 193.710938 C 250.460938 191.015625 254.027344 189.539062 257.820312 189.539062 C 261.609375 189.539062 265.179688 191.015625 267.867188 193.703125 C 270.558594 196.402344 272.035156 199.976562 272.035156 203.769531 Z M 272.035156 220.414062"/><path fill="#FFF" d="M 290.8125 220.414062 L 281.15625 220.414062 L 281.15625 203.765625 C 281.15625 202.550781 280.679688 201.398438 279.8125 200.535156 C 278.101562 198.824219 275.09375 198.8125 273.363281 200.542969 C 272.507812 201.398438 272.035156 202.550781 272.035156 203.769531 L 272.035156 220.417969 L 262.378906 220.417969 L 262.378906 203.769531 C 262.378906 199.976562 263.855469 196.402344 266.539062 193.710938 C 269.238281 191.015625 272.800781 189.539062 276.59375 189.539062 C 280.382812 189.539062 283.953125 191.015625 286.640625 193.703125 C 289.332031 196.402344 290.808594 199.976562 290.808594 203.769531 L 290.808594 220.414062 Z M 290.8125 220.414062"/><path fill="#FFF" d="M 295.503906 305 L 285.847656 305 L 285.847656 290.027344 L 299.929688 252.433594 L 299.929688 211.015625 C 299.929688 209.796875 299.453125 208.652344 298.589844 207.785156 C 296.875 206.074219 293.867188 206.0625 292.140625 207.792969 C 291.285156 208.652344 290.808594 209.800781 290.808594 211.019531 L 290.808594 220.417969 L 281.152344 220.417969 L 281.152344 211.019531 C 281.152344 207.222656 282.628906 203.652344 285.3125 200.960938 C 288.011719 198.265625 291.578125 196.789062 295.371094 196.789062 C 299.15625 196.789062 302.726562 198.265625 305.414062 200.953125 C 308.105469 203.652344 309.582031 207.226562 309.582031 211.019531 L 309.582031 254.1875 L 295.503906 291.78125 Z M 295.503906 305"/><path fill="#FFF" d="M 239.179688 305 L 229.527344 305 L 229.527344 292.851562 C 224.207031 287.1875 206.058594 266.558594 206.058594 248.714844 L 206.058594 229.8125 C 206.058594 226.019531 207.53125 222.445312 210.214844 219.753906 C 212.914062 217.0625 216.480469 215.582031 220.273438 215.582031 C 224.0625 215.582031 227.632812 217.0625 230.320312 219.746094 C 233.011719 222.449219 234.488281 226.019531 234.488281 229.816406 L 224.832031 229.816406 C 224.832031 228.597656 224.355469 227.449219 223.492188 226.582031 C 221.777344 224.871094 218.773438 224.863281 217.042969 226.589844 C 216.1875 227.449219 215.710938 228.597656 215.710938 229.816406 L 215.710938 248.71875 C 215.710938 262.375 231.632812 281.335938 237.769531 287.488281 L 239.175781 288.902344 Z M 239.179688 305"/><g clip-path="url(#b)"><path fill="#FFF" d="M 300.199219 337.894531 L 290.542969 337.894531 L 290.542969 309.699219 L 234.355469 309.835938 L 234.488281 337.894531 L 224.832031 337.894531 L 224.832031 309.699219 C 224.832031 307.160156 225.816406 304.769531 227.613281 302.96875 C 229.429688 301.15625 231.820312 300.167969 234.355469 300.167969 L 290.675781 300.167969 C 293.210938 300.167969 295.601562 301.15625 297.398438 302.953125 C 299.207031 304.761719 300.199219 307.15625 300.199219 309.699219 Z M 300.199219 337.894531"/></g><path fill="#FFF" d="M 150.003906 243.910156 L 140.347656 243.910156 L 140.347656 182.820312 C 140.347656 181.605469 139.875 180.453125 139.011719 179.589844 C 137.292969 177.878906 134.292969 177.867188 132.5625 179.597656 C 131.707031 180.453125 131.230469 181.605469 131.230469 182.820312 L 131.230469 220.414062 L 121.574219 220.414062 L 121.574219 182.820312 C 121.574219 179.027344 123.050781 175.453125 125.734375 172.761719 C 128.429688 170.066406 132 168.589844 135.789062 168.589844 C 139.582031 168.589844 143.152344 170.066406 145.835938 172.753906 C 148.527344 175.453125 150.003906 179.027344 150.003906 182.824219 Z M 150.003906 243.910156"/><path fill="#FFF" d="M 131.230469 220.414062 L 121.574219 220.414062 L 121.574219 173.421875 C 121.574219 172.207031 121.101562 171.054688 120.238281 170.191406 C 118.519531 168.480469 115.511719 168.472656 113.789062 170.195312 C 112.933594 171.054688 112.457031 172.203125 112.457031 173.421875 L 112.457031 220.414062 L 102.800781 220.414062 L 102.800781 173.421875 C 102.800781 169.625 104.277344 166.050781 106.960938 163.363281 C 109.652344 160.667969 113.222656 159.191406 117.015625 159.191406 C 120.804688 159.191406 124.375 160.667969 127.0625 163.355469 C 129.753906 166.054688 131.230469 169.628906 131.230469 173.425781 Z M 131.230469 220.414062"/><path fill="#FFF" d="M 112.457031 220.414062 L 102.800781 220.414062 L 102.800781 182.820312 C 102.800781 181.605469 102.324219 180.457031 101.460938 179.589844 C 99.742188 177.875 96.738281 177.871094 95.015625 179.597656 C 94.15625 180.457031 93.683594 181.601562 93.683594 182.824219 L 93.683594 220.417969 L 84.027344 220.417969 L 84.027344 182.824219 C 84.027344 179.023438 85.503906 175.453125 88.1875 172.761719 C 90.878906 170.070312 94.445312 168.589844 98.242188 168.589844 C 102.03125 168.589844 105.601562 170.070312 108.285156 172.757812 C 110.976562 175.453125 112.453125 179.027344 112.453125 182.824219 L 112.453125 220.414062 Z M 112.457031 220.414062"/><path fill="#FFF" d="M 88.988281 305 L 79.332031 305 L 79.332031 291.78125 L 65.25 254.1875 L 65.25 192.21875 C 65.25 188.421875 66.730469 184.847656 69.414062 182.160156 C 72.101562 179.464844 75.671875 177.988281 79.464844 177.988281 C 83.257812 177.988281 86.828125 179.464844 89.511719 182.15625 C 92.203125 184.851562 93.679688 188.425781 93.679688 192.222656 L 93.679688 220.417969 L 84.023438 220.417969 L 84.023438 192.222656 C 84.023438 191.003906 83.550781 189.859375 82.6875 188.992188 C 80.96875 187.277344 77.960938 187.269531 76.238281 188.996094 C 75.382812 189.855469 74.90625 191.003906 74.90625 192.222656 L 74.90625 252.4375 L 88.988281 290.03125 Z M 88.988281 305"/><path fill="#FFF" d="M 145.3125 305 L 135.65625 305 L 135.65625 288.90625 L 137.066406 287.488281 C 143.203125 281.332031 159.125 262.371094 159.125 248.714844 L 159.125 229.816406 C 159.125 228.597656 158.648438 227.449219 157.785156 226.582031 C 156.066406 224.871094 153.066406 224.863281 151.335938 226.589844 C 150.480469 227.449219 150.003906 228.597656 150.003906 229.816406 L 140.347656 229.816406 C 140.347656 226.023438 141.828125 222.449219 144.507812 219.757812 C 147.203125 217.066406 150.773438 215.585938 154.566406 215.585938 C 158.355469 215.585938 161.925781 217.066406 164.613281 219.75 C 167.304688 222.453125 168.78125 226.023438 168.78125 229.816406 L 168.78125 248.71875 C 168.78125 266.5625 150.628906 287.195312 145.3125 292.855469 Z M 145.3125 305"/><g clip-path="url(#c)"><path fill="#FFF" d="M 150.003906 337.894531 L 140.347656 337.894531 L 140.347656 309.699219 L 84.160156 309.835938 L 84.292969 337.894531 L 74.640625 337.894531 L 74.640625 309.699219 C 74.640625 307.160156 75.628906 304.765625 77.421875 302.964844 C 79.238281 301.15625 81.625 300.167969 84.160156 300.167969 L 140.484375 300.167969 C 143.019531 300.167969 145.40625 301.15625 147.207031 302.953125 C 149.015625 304.769531 150.003906 307.160156 150.003906 309.703125 Z M 150.003906 337.894531"/></g><g clip-path="url(#d)"><path fill="#FFF" d="M 192.246094 88.835938 L 182.589844 88.835938 L 182.589844 79.4375 C 182.589844 78.21875 182.117188 77.070312 181.257812 76.214844 C 180.390625 75.347656 179.25 74.875 178.03125 74.875 L 149.871094 74.875 C 146.074219 74.875 142.503906 73.390625 139.820312 70.703125 C 137.132812 68.015625 135.65625 64.441406 135.65625 60.640625 C 135.65625 56.835938 137.136719 53.257812 139.824219 50.574219 C 142.503906 47.890625 146.070312 46.410156 149.871094 46.410156 L 206.191406 46.410156 C 207.40625 46.410156 208.550781 45.933594 209.414062 45.070312 C 210.273438 44.207031 210.753906 43.0625 210.753906 41.84375 L 210.753906 37.144531 L 220.410156 37.144531 L 220.410156 41.84375 C 220.410156 45.640625 218.929688 49.214844 216.246094 51.902344 C 213.558594 54.59375 209.988281 56.078125 206.195312 56.078125 L 149.871094 56.078125 C 148.652344 56.078125 147.503906 56.550781 146.644531 57.414062 C 145.78125 58.273438 145.308594 59.421875 145.308594 60.640625 C 145.308594 61.859375 145.785156 63.003906 146.644531 63.867188 C 147.507812 64.730469 148.652344 65.207031 149.871094 65.207031 L 178.03125 65.207031 C 181.828125 65.207031 185.398438 66.6875 188.082031 69.375 C 190.765625 72.058594 192.246094 75.632812 192.246094 79.4375 Z M 192.246094 88.835938"/></g><path fill="#FFF" d="M 70.078125 102.800781 L 79.464844 102.800781 L 79.464844 112.46875 L 70.078125 112.46875 Z M 70.078125 102.800781"/><path fill="#FFF" d="M 88.851562 102.800781 L 98.242188 102.800781 L 98.242188 112.46875 L 88.851562 112.46875 Z M 88.851562 102.800781"/><path fill="#FFF" d="M 107.628906 102.800781 L 117.015625 102.800781 L 117.015625 112.46875 L 107.628906 112.46875 Z M 107.628906 102.800781"/><path fill="#FFF" d="M 126.402344 102.800781 L 135.789062 102.800781 L 135.789062 112.46875 L 126.402344 112.46875 Z M 126.402344 102.800781"/><path fill="#FFF" d="M 145.175781 102.800781 L 154.5625 102.800781 L 154.5625 112.46875 L 145.175781 112.46875 Z M 145.175781 102.800781"/><path fill="#FFF" d="M 163.949219 102.800781 L 173.335938 102.800781 L 173.335938 112.46875 L 163.949219 112.46875 Z M 163.949219 102.800781"/><path fill="#FFF" d="M 182.726562 102.800781 L 192.113281 102.800781 L 192.113281 112.46875 L 182.726562 112.46875 Z M 182.726562 102.800781"/><path fill="#FFF" d="M 201.5 102.800781 L 210.886719 102.800781 L 210.886719 112.46875 L 201.5 112.46875 Z M 201.5 102.800781"/><path fill="#FFF" d="M 220.273438 102.800781 L 229.660156 102.800781 L 229.660156 112.46875 L 220.273438 112.46875 Z M 220.273438 102.800781"/><path fill="#FFF" d="M 239.046875 102.800781 L 248.433594 102.800781 L 248.433594 112.46875 L 239.046875 112.46875 Z M 239.046875 102.800781"/><path fill="#FFF" d="M 257.820312 102.800781 L 267.210938 102.800781 L 267.210938 112.46875 L 257.820312 112.46875 Z M 257.820312 102.800781"/><path fill="#FFF" d="M 276.597656 102.800781 L 285.984375 102.800781 L 285.984375 112.46875 L 276.597656 112.46875 Z M 276.597656 102.800781"/><path fill="#FFF" d="M 295.371094 102.800781 L 304.757812 102.800781 L 304.757812 112.46875 L 295.371094 112.46875 Z M 295.371094 102.800781"/><path fill="#FFF" d="M 60.691406 121.597656 L 70.078125 121.597656 L 70.078125 131.265625 L 60.691406 131.265625 Z M 60.691406 121.597656"/><path fill="#FFF" d="M 79.464844 121.597656 L 88.851562 121.597656 L 88.851562 131.265625 L 79.464844 131.265625 Z M 79.464844 121.597656"/><path fill="#FFF" d="M 98.242188 121.597656 L 107.628906 121.597656 L 107.628906 131.265625 L 98.242188 131.265625 Z M 98.242188 121.597656"/><path fill="#FFF" d="M 117.015625 121.597656 L 126.402344 121.597656 L 126.402344 131.265625 L 117.015625 131.265625 Z M 117.015625 121.597656"/><path fill="#FFF" d="M 135.789062 121.597656 L 145.175781 121.597656 L 145.175781 131.265625 L 135.789062 131.265625 Z M 135.789062 121.597656"/><path fill="#FFF" d="M 154.5625 121.597656 L 163.949219 121.597656 L 163.949219 131.265625 L 154.5625 131.265625 Z M 154.5625 121.597656"/><path fill="#FFF" d="M 173.335938 121.597656 L 182.726562 121.597656 L 182.726562 131.265625 L 173.335938 131.265625 Z M 173.335938 121.597656"/><path fill="#FFF" d="M 192.113281 121.597656 L 201.5 121.597656 L 201.5 131.265625 L 192.113281 131.265625 Z M 192.113281 121.597656"/><path fill="#FFF" d="M 210.886719 121.597656 L 220.273438 121.597656 L 220.273438 131.265625 L 210.886719 131.265625 Z M 210.886719 121.597656"/><path fill="#FFF" d="M 229.660156 121.597656 L 239.046875 121.597656 L 239.046875 131.265625 L 229.660156 131.265625 Z M 229.660156 121.597656"/><path fill="#FFF" d="M 248.433594 121.597656 L 257.820312 121.597656 L 257.820312 131.265625 L 248.433594 131.265625 Z M 248.433594 121.597656"/><path fill="#FFF" d="M 267.210938 121.597656 L 276.597656 121.597656 L 276.597656 131.265625 L 267.210938 131.265625 Z M 267.210938 121.597656"/><path fill="#FFF" d="M 285.984375 121.597656 L 295.371094 121.597656 L 295.371094 131.265625 L 285.984375 131.265625 Z M 285.984375 121.597656"/><path fill="#FFF" d="M 304.757812 121.597656 L 314.144531 121.597656 L 314.144531 131.265625 L 304.757812 131.265625 Z M 304.757812 121.597656"/><path fill="#FFF" d="M 70.078125 140.394531 L 79.464844 140.394531 L 79.464844 150.0625 L 70.078125 150.0625 Z M 70.078125 140.394531"/><path fill="#FFF" d="M 88.851562 140.394531 L 98.242188 140.394531 L 98.242188 150.0625 L 88.851562 150.0625 Z M 88.851562 140.394531"/><path fill="#FFF" d="M 107.628906 140.394531 L 117.015625 140.394531 L 117.015625 150.0625 L 107.628906 150.0625 Z M 107.628906 140.394531"/><path fill="#FFF" d="M 126.402344 140.394531 L 135.789062 140.394531 L 135.789062 150.0625 L 126.402344 150.0625 Z M 126.402344 140.394531"/><path fill="#FFF" d="M 145.175781 140.394531 L 154.5625 140.394531 L 154.5625 150.0625 L 145.175781 150.0625 Z M 145.175781 140.394531"/><path fill="#FFF" d="M 163.949219 140.394531 L 173.335938 140.394531 L 173.335938 150.0625 L 163.949219 150.0625 Z M 163.949219 140.394531"/><path fill="#FFF" d="M 182.726562 140.394531 L 192.113281 140.394531 L 192.113281 150.0625 L 182.726562 150.0625 Z M 182.726562 140.394531"/><path fill="#FFF" d="M 201.5 140.394531 L 210.886719 140.394531 L 210.886719 150.0625 L 201.5 150.0625 Z M 201.5 140.394531"/><path fill="#FFF" d="M 220.273438 140.394531 L 229.660156 140.394531 L 229.660156 150.0625 L 220.273438 150.0625 Z M 220.273438 140.394531"/><path fill="#FFF" d="M 239.046875 140.394531 L 248.433594 140.394531 L 248.433594 150.0625 L 239.046875 150.0625 Z M 239.046875 140.394531"/><path fill="#FFF" d="M 257.820312 140.394531 L 267.210938 140.394531 L 267.210938 150.0625 L 257.820312 150.0625 Z M 257.820312 140.394531"/><path fill="#FFF" d="M 276.597656 140.394531 L 285.984375 140.394531 L 285.984375 150.0625 L 276.597656 150.0625 Z M 276.597656 140.394531"/><path fill="#FFF" d="M 295.371094 140.394531 L 304.757812 140.394531 L 304.757812 150.0625 L 295.371094 150.0625 Z M 295.371094 140.394531"/><path fill="#FFF" d="M 60.691406 159.191406 L 70.078125 159.191406 L 70.078125 168.859375 L 60.691406 168.859375 Z M 60.691406 159.191406"/><path fill="#FFF" d="M 79.464844 159.191406 L 88.851562 159.191406 L 88.851562 168.859375 L 79.464844 168.859375 Z M 79.464844 159.191406"/><path fill="#FFF" d="M 154.5625 159.191406 L 163.949219 159.191406 L 163.949219 168.859375 L 154.5625 168.859375 Z M 154.5625 159.191406"/><path fill="#FFF" d="M 173.335938 159.191406 L 182.726562 159.191406 L 182.726562 168.859375 L 173.335938 168.859375 Z M 173.335938 159.191406"/><path fill="#FFF" d="M 192.113281 159.191406 L 201.5 159.191406 L 201.5 168.859375 L 192.113281 168.859375 Z M 192.113281 159.191406"/><path fill="#FFF" d="M 210.886719 159.191406 L 220.273438 159.191406 L 220.273438 168.859375 L 210.886719 168.859375 Z M 210.886719 159.191406"/><path fill="#FFF" d="M 285.984375 159.191406 L 295.371094 159.191406 L 295.371094 168.859375 L 285.984375 168.859375 Z M 285.984375 159.191406"/><path fill="#FFF" d="M 267.210938 159.191406 L 276.597656 159.191406 L 276.597656 168.859375 L 267.210938 168.859375 Z M 267.210938 159.191406"/><path fill="#FFF" d="M 304.757812 159.191406 L 314.144531 159.191406 L 314.144531 168.859375 L 304.757812 168.859375 Z M 304.757812 159.191406"/><path fill="#FFF" d="M 163.949219 177.988281 L 210.886719 177.988281 L 210.886719 187.65625 L 163.949219 187.65625 Z M 163.949219 177.988281"/></svg>