<svg xmlns="http://www.w3.org/2000/svg" width="375" viewBox="0 0 375 375" height="375" version="1.0"><defs><clipPath id="a"><path d="M 81.339844 81.339844 L 293.589844 81.339844 L 293.589844 293.589844 L 81.339844 293.589844 Z M 81.339844 81.339844"/></clipPath></defs><g clip-path="url(#a)"><path fill="#FAFBFC" d="M 274.292969 81.339844 L 100.636719 81.339844 C 89.972656 81.339844 81.339844 89.972656 81.339844 100.636719 L 81.339844 274.292969 C 81.339844 284.957031 89.972656 293.589844 100.636719 293.589844 L 274.292969 293.589844 C 284.957031 293.589844 293.589844 284.957031 293.589844 274.292969 L 293.589844 100.636719 C 293.589844 89.972656 284.957031 81.339844 274.292969 81.339844 Z M 260.226562 245.351562 L 203.007812 245.351562 L 203.007812 242.136719 L 216.40625 230.347656 L 216.40625 163.054688 L 183.5 245.351562 L 178.355469 245.351562 L 141.636719 162.410156 L 141.636719 221.136719 L 158.425781 242.136719 L 158.425781 245.351562 L 114.703125 245.351562 L 114.703125 242.136719 L 132.058594 221.136719 L 132.058594 151.265625 L 116.632812 131.980469 C 116.632812 131.980469 116.632812 129.191406 116.632812 129.625 L 158.851562 129.625 L 191.640625 200.566406 L 219.929688 129.625 L 260.007812 129.625 L 260.007812 131.980469 L 245.351562 144.300781 L 245.351562 230.347656 L 260.226562 242.136719 Z M 260.226562 245.351562"/></g></svg>