<svg xmlns="http://www.w3.org/2000/svg" width="375" viewBox="0 0 375 375" height="375" version="1.0"><defs><clipPath id="a"><path d="M 137 77 L 304.300781 77 L 304.300781 313.425781 L 137 313.425781 Z M 137 77"/></clipPath><clipPath id="b"><path d="M 71.050781 61.425781 L 205 61.425781 L 205 270 L 71.050781 270 Z M 71.050781 61.425781"/></clipPath></defs><path fill="#FFF" d="M 153.792969 115.695312 C 120.84375 109.707031 94.785156 115.96875 84.402344 133.921875 C 76.652344 147.3125 78.867188 165.074219 89.769531 184.050781 C 89.996094 184.4375 90.285156 184.769531 90.640625 185.039062 C 90.996094 185.3125 91.386719 185.507812 91.820312 185.625 C 92.253906 185.742188 92.691406 185.769531 93.136719 185.714844 C 93.578125 185.65625 93.996094 185.519531 94.386719 185.296875 C 94.773438 185.074219 95.101562 184.785156 95.375 184.429688 C 95.648438 184.078125 95.84375 183.683594 95.960938 183.253906 C 96.078125 182.820312 96.109375 182.382812 96.050781 181.941406 C 95.996094 181.496094 95.855469 181.082031 95.632812 180.695312 C 85.8125 163.589844 83.902344 148.269531 90.253906 137.289062 C 98.921875 122.378906 122.117188 116.789062 152.582031 122.324219 C 153.023438 122.402344 153.460938 122.394531 153.898438 122.300781 C 154.335938 122.203125 154.738281 122.03125 155.109375 121.777344 C 155.476562 121.519531 155.78125 121.207031 156.023438 120.832031 C 156.269531 120.457031 156.429688 120.050781 156.511719 119.609375 C 156.589844 119.171875 156.582031 118.734375 156.488281 118.296875 C 156.390625 117.859375 156.21875 117.457031 155.960938 117.089844 C 155.707031 116.722656 155.390625 116.417969 155.015625 116.175781 C 154.640625 115.933594 154.234375 115.773438 153.792969 115.691406 Z M 106.90625 207.082031 C 120.230469 221.695312 137.539062 235.398438 157.285156 246.773438 C 205.125 274.316406 256.007812 281.707031 281.054688 264.644531 C 281.425781 264.390625 281.730469 264.078125 281.976562 263.703125 C 282.222656 263.328125 282.386719 262.921875 282.46875 262.484375 C 282.550781 262.042969 282.546875 261.605469 282.457031 261.167969 C 282.363281 260.730469 282.195312 260.328125 281.941406 259.957031 C 281.6875 259.589844 281.375 259.28125 281 259.039062 C 280.625 258.792969 280.21875 258.628906 279.777344 258.546875 C 279.335938 258.464844 278.898438 258.46875 278.460938 258.558594 C 278.019531 258.648438 277.617188 258.820312 277.246094 259.070312 C 254.800781 274.34375 206.460938 267.351562 160.621094 240.964844 C 141.472656 229.933594 124.707031 216.660156 111.863281 202.578125 C 111.5625 202.246094 111.207031 201.988281 110.800781 201.796875 C 110.394531 201.609375 109.96875 201.503906 109.523438 201.480469 C 109.074219 201.460938 108.640625 201.527344 108.21875 201.675781 C 107.796875 201.828125 107.417969 202.054688 107.085938 202.351562 C 106.757812 202.65625 106.496094 203.007812 106.308594 203.414062 C 106.117188 203.816406 106.011719 204.242188 105.988281 204.691406 C 105.96875 205.136719 106.035156 205.570312 106.183594 205.992188 C 106.335938 206.410156 106.5625 206.789062 106.863281 207.117188 Z M 273.089844 203.023438 C 294.664062 177.582031 302.199219 152.003906 291.835938 134.097656 C 284.210938 120.921875 268.09375 113.960938 246.667969 113.6875 C 246.21875 113.679688 245.789062 113.761719 245.371094 113.925781 C 244.957031 114.09375 244.589844 114.332031 244.269531 114.644531 C 243.945312 114.957031 243.699219 115.316406 243.519531 115.726562 C 243.34375 116.136719 243.25 116.566406 243.242188 117.011719 C 243.238281 117.457031 243.320312 117.890625 243.484375 118.304688 C 243.652344 118.71875 243.890625 119.085938 244.203125 119.40625 C 244.515625 119.726562 244.878906 119.976562 245.289062 120.152344 C 245.699219 120.328125 246.128906 120.421875 246.578125 120.429688 C 265.882812 120.679688 279.730469 126.671875 285.976562 137.472656 C 294.585938 152.351562 287.867188 175.160156 267.925781 198.671875 C 267.636719 199.015625 267.421875 199.398438 267.285156 199.824219 C 267.152344 200.25 267.101562 200.6875 267.136719 201.132812 C 267.175781 201.578125 267.296875 201.996094 267.5 202.394531 C 267.703125 202.792969 267.976562 203.136719 268.316406 203.425781 C 268.660156 203.714844 269.042969 203.925781 269.472656 204.0625 C 269.898438 204.199219 270.335938 204.246094 270.78125 204.210938 C 271.226562 204.175781 271.648438 204.054688 272.046875 203.851562 C 272.445312 203.644531 272.792969 203.375 273.082031 203.035156 Z M 217.636719 116.8125 C 198.132812 120.980469 177.363281 129.136719 157.421875 140.625 C 108.078125 169.050781 75.886719 211.015625 80.351562 241.367188 C 80.417969 241.808594 80.566406 242.222656 80.796875 242.605469 C 81.023438 242.988281 81.320312 243.3125 81.679688 243.582031 C 82.039062 243.847656 82.433594 244.035156 82.867188 244.144531 C 83.300781 244.253906 83.742188 244.277344 84.183594 244.214844 C 84.628906 244.148438 85.039062 244 85.425781 243.769531 C 85.808594 243.542969 86.132812 243.246094 86.402344 242.886719 C 86.667969 242.53125 86.855469 242.132812 86.96875 241.703125 C 87.078125 241.269531 87.101562 240.832031 87.035156 240.386719 C 83.070312 213.402344 113.582031 173.667969 160.792969 146.421875 C 180.101562 135.273438 200.246094 127.378906 219.046875 123.359375 C 219.484375 123.261719 219.886719 123.089844 220.257812 122.835938 C 220.625 122.582031 220.929688 122.265625 221.171875 121.890625 C 221.417969 121.515625 221.578125 121.109375 221.660156 120.667969 C 221.742188 120.230469 221.738281 119.792969 221.644531 119.355469 C 221.550781 118.917969 221.375 118.515625 221.121094 118.148438 C 220.867188 117.78125 220.550781 117.476562 220.175781 117.234375 C 219.796875 116.992188 219.390625 116.828125 218.949219 116.746094 C 218.511719 116.667969 218.070312 116.671875 217.632812 116.765625 Z M 217.636719 116.8125" fill-rule="evenodd"/><g clip-path="url(#a)"><path fill="#FFF" d="M 137.699219 262.449219 C 148.976562 293.882812 167.433594 313.238281 188.1875 313.238281 C 203.328125 313.238281 217.328125 302.9375 228.246094 284.8125 C 228.476562 284.429688 228.625 284.015625 228.691406 283.574219 C 228.757812 283.132812 228.734375 282.695312 228.628906 282.261719 C 228.519531 281.828125 228.332031 281.429688 228.066406 281.070312 C 227.800781 280.710938 227.476562 280.417969 227.09375 280.183594 C 226.710938 279.957031 226.296875 279.808594 225.851562 279.742188 C 225.410156 279.675781 224.972656 279.699219 224.535156 279.804688 C 224.101562 279.914062 223.703125 280.101562 223.34375 280.367188 C 222.984375 280.632812 222.6875 280.957031 222.457031 281.335938 C 212.605469 297.625 200.589844 306.488281 188.1875 306.488281 C 170.953125 306.488281 154.492188 289.1875 144.0625 260.171875 C 143.910156 259.753906 143.683594 259.378906 143.378906 259.046875 C 143.078125 258.714844 142.726562 258.457031 142.320312 258.265625 C 141.917969 258.074219 141.488281 257.96875 141.042969 257.945312 C 140.59375 257.921875 140.160156 257.988281 139.738281 258.136719 C 139.316406 258.289062 138.941406 258.515625 138.609375 258.816406 C 138.277344 259.117188 138.019531 259.46875 137.828125 259.871094 C 137.636719 260.277344 137.527344 260.703125 137.507812 261.148438 C 137.484375 261.59375 137.546875 262.027344 137.699219 262.449219 Z M 240.742188 256.300781 C 246.582031 237.675781 249.71875 216.195312 249.71875 193.804688 C 249.71875 137.945312 230.125 89.789062 202.214844 77.425781 C 201.804688 77.246094 201.378906 77.152344 200.929688 77.140625 C 200.480469 77.128906 200.050781 77.207031 199.632812 77.367188 C 199.214844 77.527344 198.84375 77.761719 198.515625 78.070312 C 198.191406 78.375 197.9375 78.734375 197.753906 79.140625 C 197.574219 79.550781 197.480469 79.976562 197.46875 80.425781 C 197.457031 80.871094 197.535156 81.304688 197.695312 81.722656 C 197.855469 82.136719 198.089844 82.507812 198.398438 82.832031 C 198.707031 83.15625 199.066406 83.410156 199.472656 83.59375 C 224.367188 94.617188 242.957031 140.324219 242.957031 193.808594 C 242.957031 215.527344 239.921875 236.335938 234.289062 254.292969 C 234.15625 254.71875 234.109375 255.152344 234.148438 255.597656 C 234.191406 256.042969 234.3125 256.464844 234.519531 256.859375 C 234.726562 257.257812 235.003906 257.597656 235.347656 257.886719 C 235.691406 258.171875 236.074219 258.382812 236.503906 258.519531 C 236.929688 258.648438 237.367188 258.695312 237.8125 258.65625 C 238.257812 258.617188 238.679688 258.492188 239.078125 258.285156 C 239.472656 258.078125 239.816406 257.804688 240.105469 257.460938 C 240.390625 257.117188 240.601562 256.734375 240.738281 256.308594 Z M 304.382812 252.996094 C 304.382812 244.085938 297.140625 236.859375 288.207031 236.859375 C 279.273438 236.859375 271.992188 244.042969 271.992188 252.996094 C 271.992188 261.953125 279.234375 269.136719 288.167969 269.136719 C 297.101562 269.136719 304.339844 261.910156 304.339844 252.996094 Z M 297.625 252.996094 C 297.625 253.613281 297.5625 254.226562 297.441406 254.828125 C 297.320312 255.433594 297.144531 256.023438 296.90625 256.589844 C 296.667969 257.160156 296.378906 257.703125 296.035156 258.214844 C 295.691406 258.726562 295.304688 259.203125 294.867188 259.636719 C 294.429688 260.074219 293.953125 260.464844 293.441406 260.804688 C 292.925781 261.148438 292.382812 261.4375 291.8125 261.675781 C 291.242188 261.910156 290.652344 262.089844 290.046875 262.210938 C 289.441406 262.328125 288.828125 262.390625 288.210938 262.390625 C 287.59375 262.390625 286.980469 262.328125 286.375 262.210938 C 285.769531 262.089844 285.179688 261.910156 284.609375 261.675781 C 284.039062 261.4375 283.496094 261.148438 282.984375 260.804688 C 282.46875 260.464844 281.992188 260.074219 281.554688 259.636719 C 281.121094 259.203125 280.730469 258.726562 280.386719 258.214844 C 280.042969 257.703125 279.753906 257.160156 279.515625 256.589844 C 279.28125 256.023438 279.101562 255.433594 278.980469 254.828125 C 278.859375 254.226562 278.796875 253.613281 278.796875 252.996094 C 278.796875 252.382812 278.859375 251.769531 278.980469 251.164062 C 279.101562 250.5625 279.28125 249.972656 279.515625 249.402344 C 279.753906 248.835938 280.042969 248.292969 280.386719 247.78125 C 280.730469 247.265625 281.121094 246.792969 281.554688 246.355469 C 281.992188 245.921875 282.46875 245.53125 282.984375 245.1875 C 283.496094 244.847656 284.039062 244.558594 284.609375 244.320312 C 285.179688 244.085938 285.769531 243.90625 286.375 243.785156 C 286.980469 243.664062 287.59375 243.605469 288.210938 243.605469 C 288.828125 243.605469 289.441406 243.664062 290.046875 243.785156 C 290.652344 243.90625 291.242188 244.085938 291.8125 244.320312 C 292.382812 244.558594 292.925781 244.847656 293.441406 245.1875 C 293.953125 245.53125 294.429688 245.921875 294.867188 246.355469 C 295.304688 246.792969 295.691406 247.265625 296.035156 247.78125 C 296.378906 248.292969 296.667969 248.835938 296.90625 249.402344 C 297.144531 249.972656 297.320312 250.5625 297.441406 251.164062 C 297.5625 251.769531 297.625 252.382812 297.625 252.996094 Z M 297.625 252.996094" fill-rule="evenodd"/></g><g clip-path="url(#b)"><path fill="#FFF" d="M 87.929688 269.136719 C 96.863281 269.136719 104.105469 261.910156 104.105469 252.996094 C 104.105469 244.085938 96.863281 236.859375 87.929688 236.859375 C 87.402344 236.859375 86.875 236.882812 86.347656 236.9375 C 85.820312 236.988281 85.296875 237.066406 84.777344 237.167969 C 84.257812 237.269531 83.742188 237.398438 83.238281 237.554688 C 82.730469 237.707031 82.230469 237.882812 81.742188 238.085938 C 81.253906 238.289062 80.773438 238.515625 80.308594 238.765625 C 79.839844 239.011719 79.386719 239.285156 78.945312 239.578125 C 78.507812 239.871094 78.082031 240.1875 77.671875 240.523438 C 77.261719 240.855469 76.871094 241.210938 76.496094 241.585938 C 76.121094 241.957031 75.765625 242.351562 75.429688 242.757812 C 75.09375 243.167969 74.777344 243.589844 74.484375 244.03125 C 74.191406 244.46875 73.917969 244.921875 73.667969 245.390625 C 73.417969 245.855469 73.191406 246.332031 72.992188 246.820312 C 72.789062 247.308594 72.609375 247.808594 72.457031 248.3125 C 72.300781 248.820312 72.171875 249.332031 72.070312 249.847656 C 71.96875 250.367188 71.890625 250.890625 71.835938 251.414062 C 71.785156 251.941406 71.757812 252.46875 71.757812 252.996094 C 71.757812 253.527344 71.785156 254.054688 71.835938 254.578125 C 71.890625 255.105469 71.96875 255.628906 72.070312 256.144531 C 72.171875 256.664062 72.300781 257.175781 72.457031 257.683594 C 72.609375 258.1875 72.789062 258.6875 72.992188 259.175781 C 73.195312 259.664062 73.417969 260.140625 73.667969 260.605469 C 73.917969 261.070312 74.191406 261.523438 74.484375 261.964844 C 74.78125 262.402344 75.09375 262.828125 75.429688 263.238281 C 75.765625 263.644531 76.121094 264.035156 76.496094 264.410156 C 76.871094 264.785156 77.265625 265.136719 77.671875 265.472656 C 78.082031 265.808594 78.507812 266.125 78.949219 266.417969 C 79.390625 266.710938 79.84375 266.980469 80.308594 267.230469 C 80.777344 267.480469 81.253906 267.707031 81.746094 267.910156 C 82.234375 268.109375 82.734375 268.289062 83.238281 268.441406 C 83.746094 268.597656 84.261719 268.722656 84.78125 268.828125 C 85.300781 268.929688 85.824219 269.007812 86.351562 269.058594 C 86.878906 269.113281 87.40625 269.136719 87.933594 269.136719 Z M 87.929688 262.394531 C 87.3125 262.394531 86.703125 262.332031 86.09375 262.214844 C 85.488281 262.09375 84.902344 261.914062 84.328125 261.679688 C 83.757812 261.441406 83.214844 261.152344 82.703125 260.808594 C 82.1875 260.46875 81.714844 260.078125 81.277344 259.640625 C 80.839844 259.207031 80.449219 258.730469 80.105469 258.21875 C 79.761719 257.707031 79.472656 257.164062 79.234375 256.59375 C 79 256.027344 78.820312 255.4375 78.699219 254.832031 C 78.578125 254.230469 78.519531 253.617188 78.519531 253 C 78.519531 252.386719 78.578125 251.773438 78.699219 251.167969 C 78.820312 250.566406 79 249.976562 79.234375 249.40625 C 79.472656 248.839844 79.761719 248.296875 80.105469 247.785156 C 80.449219 247.269531 80.839844 246.796875 81.277344 246.359375 C 81.714844 245.925781 82.1875 245.535156 82.703125 245.191406 C 83.214844 244.851562 83.757812 244.5625 84.328125 244.324219 C 84.902344 244.089844 85.488281 243.910156 86.09375 243.789062 C 86.703125 243.667969 87.3125 243.609375 87.929688 243.609375 C 88.550781 243.609375 89.160156 243.667969 89.765625 243.789062 C 90.375 243.910156 90.960938 244.089844 91.53125 244.324219 C 92.105469 244.5625 92.644531 244.851562 93.160156 245.191406 C 93.671875 245.535156 94.148438 245.925781 94.585938 246.359375 C 95.023438 246.796875 95.414062 247.269531 95.757812 247.785156 C 96.101562 248.296875 96.390625 248.839844 96.625 249.40625 C 96.863281 249.976562 97.042969 250.566406 97.164062 251.167969 C 97.285156 251.773438 97.34375 252.386719 97.34375 253 C 97.34375 253.617188 97.285156 254.230469 97.164062 254.832031 C 97.042969 255.4375 96.863281 256.027344 96.625 256.59375 C 96.390625 257.164062 96.101562 257.707031 95.757812 258.21875 C 95.414062 258.730469 95.023438 259.207031 94.585938 259.640625 C 94.148438 260.078125 93.671875 260.46875 93.160156 260.808594 C 92.644531 261.152344 92.105469 261.441406 91.53125 261.679688 C 90.960938 261.914062 90.375 262.09375 89.765625 262.214844 C 89.160156 262.332031 88.550781 262.394531 87.929688 262.394531 Z M 188.1875 93.851562 C 197.121094 93.851562 204.363281 86.625 204.363281 77.710938 C 204.363281 68.796875 197.117188 61.609375 188.1875 61.609375 C 179.261719 61.609375 172.015625 68.835938 172.015625 77.75 C 172.015625 86.664062 179.257812 93.851562 188.1875 93.851562 Z M 188.1875 87.105469 C 187.570312 87.105469 186.960938 87.046875 186.351562 86.925781 C 185.746094 86.804688 185.160156 86.628906 184.589844 86.390625 C 184.015625 86.15625 183.476562 85.867188 182.960938 85.523438 C 182.445312 85.179688 181.972656 84.792969 181.535156 84.355469 C 181.097656 83.917969 180.707031 83.445312 180.363281 82.933594 C 180.019531 82.417969 179.730469 81.878906 179.496094 81.308594 C 179.257812 80.738281 179.078125 80.152344 178.957031 79.546875 C 178.835938 78.941406 178.777344 78.332031 178.777344 77.714844 C 178.777344 77.097656 178.835938 76.488281 178.957031 75.882812 C 179.078125 75.277344 179.257812 74.691406 179.496094 74.121094 C 179.730469 73.550781 180.019531 73.007812 180.363281 72.496094 C 180.707031 71.984375 181.097656 71.511719 181.535156 71.074219 C 181.972656 70.636719 182.445312 70.25 182.960938 69.90625 C 183.476562 69.5625 184.015625 69.273438 184.589844 69.039062 C 185.160156 68.800781 185.746094 68.625 186.351562 68.503906 C 186.960938 68.382812 187.570312 68.320312 188.1875 68.320312 C 188.808594 68.320312 189.417969 68.382812 190.027344 68.503906 C 190.632812 68.625 191.21875 68.800781 191.789062 69.039062 C 192.363281 69.273438 192.902344 69.5625 193.417969 69.90625 C 193.933594 70.25 194.40625 70.636719 194.84375 71.074219 C 195.28125 71.511719 195.671875 71.984375 196.015625 72.496094 C 196.359375 73.007812 196.648438 73.550781 196.882812 74.121094 C 197.121094 74.691406 197.300781 75.277344 197.421875 75.882812 C 197.542969 76.488281 197.601562 77.097656 197.601562 77.714844 C 197.601562 78.332031 197.542969 78.941406 197.421875 79.546875 C 197.300781 80.152344 197.121094 80.738281 196.882812 81.308594 C 196.648438 81.878906 196.359375 82.417969 196.015625 82.933594 C 195.671875 83.445312 195.28125 83.917969 194.84375 84.355469 C 194.40625 84.792969 193.933594 85.179688 193.417969 85.523438 C 192.902344 85.867188 192.363281 86.15625 191.789062 86.390625 C 191.21875 86.628906 190.632812 86.804688 190.027344 86.925781 C 189.417969 87.046875 188.808594 87.105469 188.1875 87.105469 Z M 190.65625 205.214844 C 189.902344 205.382812 189.140625 205.476562 188.371094 205.492188 C 187.597656 205.507812 186.832031 205.449219 186.074219 205.316406 C 185.3125 205.183594 184.574219 204.976562 183.855469 204.695312 C 183.136719 204.414062 182.453125 204.066406 181.800781 203.652344 C 181.152344 203.238281 180.550781 202.761719 179.992188 202.226562 C 179.4375 201.695312 178.941406 201.109375 178.5 200.480469 C 178.058594 199.847656 177.6875 199.175781 177.378906 198.472656 C 177.070312 197.765625 176.835938 197.035156 176.671875 196.28125 C 176.511719 195.53125 176.421875 194.769531 176.410156 194 C 176.398438 193.230469 176.464844 192.464844 176.601562 191.707031 C 176.742188 190.953125 176.953125 190.214844 177.238281 189.5 C 177.523438 188.785156 177.878906 188.105469 178.296875 187.457031 C 178.71875 186.8125 179.195312 186.214844 179.734375 185.664062 C 180.273438 185.113281 180.863281 184.617188 181.5 184.183594 C 182.136719 183.75 182.808594 183.378906 183.519531 183.078125 C 184.226562 182.777344 184.960938 182.546875 185.714844 182.386719 C 186.46875 182.222656 187.230469 182.128906 188 182.113281 C 188.773438 182.09375 189.539062 182.152344 190.296875 182.289062 C 191.058594 182.421875 191.796875 182.628906 192.515625 182.910156 C 193.234375 183.1875 193.917969 183.535156 194.570312 183.953125 C 195.21875 184.367188 195.820312 184.839844 196.375 185.375 C 196.933594 185.910156 197.429688 186.492188 197.871094 187.125 C 198.3125 187.757812 198.683594 188.425781 198.992188 189.132812 C 199.300781 189.839844 199.535156 190.566406 199.699219 191.320312 C 199.859375 192.074219 199.949219 192.835938 199.960938 193.605469 C 199.972656 194.375 199.90625 195.136719 199.769531 195.894531 C 199.628906 196.652344 199.417969 197.386719 199.132812 198.105469 C 198.847656 198.820312 198.492188 199.5 198.074219 200.144531 C 197.652344 200.792969 197.175781 201.390625 196.636719 201.941406 C 196.097656 202.492188 195.507812 202.984375 194.871094 203.417969 C 194.234375 203.855469 193.5625 204.222656 192.851562 204.527344 C 192.144531 204.828125 191.410156 205.058594 190.65625 205.214844 Z M 190.65625 205.214844" fill-rule="evenodd"/></g></svg>