<svg xmlns="http://www.w3.org/2000/svg" width="375" viewBox="0 0 375 375" height="375" version="1.0"><defs><clipPath id="a"><path d="M 77.773438 77.773438 L 297.523438 77.773438 L 297.523438 297.523438 L 77.773438 297.523438 Z M 77.773438 77.773438"/></clipPath></defs><g clip-path="url(#a)"><path fill="#FAFBFC" d="M 110.738281 77.773438 L 264.5625 77.773438 C 265.640625 77.773438 266.71875 77.828125 267.792969 77.933594 C 268.867188 78.039062 269.933594 78.195312 270.992188 78.40625 C 272.050781 78.617188 273.097656 78.878906 274.128906 79.195312 C 275.164062 79.507812 276.179688 79.871094 277.175781 80.28125 C 278.171875 80.695312 279.148438 81.15625 280.101562 81.667969 C 281.050781 82.175781 281.976562 82.730469 282.875 83.328125 C 283.773438 83.929688 284.636719 84.570312 285.472656 85.257812 C 286.308594 85.941406 287.105469 86.664062 287.871094 87.429688 C 288.632812 88.191406 289.355469 88.992188 290.042969 89.824219 C 290.726562 90.660156 291.367188 91.527344 291.96875 92.421875 C 292.570312 93.320312 293.121094 94.246094 293.632812 95.199219 C 294.140625 96.148438 294.601562 97.125 295.015625 98.121094 C 295.429688 99.121094 295.792969 100.136719 296.105469 101.167969 C 296.417969 102.199219 296.679688 103.246094 296.890625 104.304688 C 297.101562 105.363281 297.257812 106.429688 297.367188 107.503906 C 297.472656 108.578125 297.523438 109.65625 297.523438 110.738281 L 297.523438 264.5625 C 297.523438 265.640625 297.472656 266.71875 297.367188 267.792969 C 297.257812 268.867188 297.101562 269.933594 296.890625 270.992188 C 296.679688 272.050781 296.417969 273.097656 296.105469 274.128906 C 295.792969 275.164062 295.429688 276.179688 295.015625 277.175781 C 294.601562 278.171875 294.140625 279.148438 293.632812 280.101562 C 293.121094 281.050781 292.570312 281.976562 291.96875 282.875 C 291.367188 283.773438 290.726562 284.636719 290.042969 285.472656 C 289.355469 286.308594 288.632812 287.105469 287.871094 287.871094 C 287.105469 288.632812 286.308594 289.355469 285.472656 290.042969 C 284.636719 290.726562 283.773438 291.367188 282.875 291.96875 C 281.976562 292.570312 281.050781 293.121094 280.101562 293.632812 C 279.148438 294.140625 278.171875 294.601562 277.175781 295.015625 C 276.179688 295.429688 275.164062 295.792969 274.128906 296.105469 C 273.097656 296.417969 272.050781 296.679688 270.992188 296.890625 C 269.933594 297.101562 268.867188 297.257812 267.792969 297.367188 C 266.71875 297.472656 265.640625 297.523438 264.5625 297.523438 L 110.738281 297.523438 C 109.65625 297.523438 108.578125 297.472656 107.503906 297.367188 C 106.429688 297.257812 105.363281 297.101562 104.304688 296.890625 C 103.246094 296.679688 102.199219 296.417969 101.167969 296.105469 C 100.136719 295.792969 99.121094 295.429688 98.121094 295.015625 C 97.125 294.601562 96.148438 294.140625 95.199219 293.632812 C 94.246094 293.121094 93.320312 292.570312 92.421875 291.96875 C 91.527344 291.367188 90.660156 290.726562 89.824219 290.042969 C 88.992188 289.355469 88.191406 288.632812 87.429688 287.871094 C 86.664062 287.105469 85.941406 286.308594 85.257812 285.472656 C 84.570312 284.636719 83.929688 283.773438 83.328125 282.875 C 82.730469 281.976562 82.175781 281.050781 81.667969 280.101562 C 81.15625 279.148438 80.695312 278.171875 80.285156 277.175781 C 79.871094 276.179688 79.507812 275.164062 79.195312 274.128906 C 78.878906 273.097656 78.617188 272.050781 78.40625 270.992188 C 78.195312 269.933594 78.039062 268.867188 77.933594 267.792969 C 77.828125 266.71875 77.773438 265.640625 77.773438 264.5625 L 77.773438 110.738281 C 77.773438 109.65625 77.828125 108.578125 77.933594 107.503906 C 78.039062 106.429688 78.195312 105.363281 78.40625 104.304688 C 78.617188 103.246094 78.878906 102.199219 79.195312 101.167969 C 79.507812 100.136719 79.871094 99.121094 80.285156 98.121094 C 80.695312 97.125 81.15625 96.148438 81.667969 95.199219 C 82.175781 94.246094 82.730469 93.320312 83.328125 92.421875 C 83.929688 91.527344 84.570312 90.660156 85.257812 89.824219 C 85.941406 88.992188 86.664062 88.191406 87.429688 87.429688 C 88.191406 86.664062 88.992188 85.941406 89.824219 85.257812 C 90.660156 84.570312 91.527344 83.929688 92.421875 83.328125 C 93.320312 82.730469 94.246094 82.175781 95.199219 81.667969 C 96.148438 81.15625 97.125 80.695312 98.121094 80.28125 C 99.121094 79.871094 100.136719 79.507812 101.167969 79.195312 C 102.199219 78.878906 103.246094 78.617188 104.304688 78.40625 C 105.363281 78.195312 106.429688 78.039062 107.503906 77.933594 C 108.578125 77.828125 109.65625 77.773438 110.738281 77.773438 Z M 110.738281 77.773438"/></g><path fill="#171515" d="M 128.847656 187.21875 C 136.144531 200.097656 149.878906 207.820312 172.628906 209.96875 C 169.195312 212.542969 165.332031 217.265625 164.902344 222.84375 C 160.609375 225.417969 152.453125 226.277344 146.015625 224.132812 C 137.003906 221.125 133.570312 203.53125 119.835938 206.105469 C 116.832031 206.535156 117.261719 208.679688 119.835938 210.398438 C 124.128906 212.972656 128.847656 217.265625 130.996094 223.273438 C 136.144531 236.578125 146.875 240.011719 164.042969 237.4375 L 164.042969 256.75 C 164.042969 262.757812 155.460938 264.476562 155.460938 267.480469 C 155.460938 268.769531 158.464844 268.769531 160.609375 268.769531 C 164.902344 268.769531 174.34375 264.90625 174.34375 258.894531 C 174.34375 253.746094 174.34375 236.578125 174.773438 233.574219 C 174.773438 227.136719 178.207031 224.988281 178.207031 224.988281 C 178.207031 224.988281 178.636719 260.183594 177.347656 264.476562 C 175.632812 270.054688 173.054688 269.195312 173.054688 271.773438 C 173.054688 275.636719 184.214844 272.628906 188.078125 264.476562 C 191.082031 258.039062 189.796875 223.703125 189.367188 224.132812 L 192.371094 224.132812 C 192.371094 224.132812 192.371094 240.011719 192.800781 246.878906 C 192.800781 254.175781 192.371094 263.617188 196.664062 268.339844 C 199.667969 271.34375 209.109375 276.492188 209.109375 271.773438 C 209.109375 269.195312 203.957031 266.621094 203.957031 259.324219 L 203.957031 225.417969 C 208.25 225.417969 207.390625 236.578125 207.390625 236.578125 L 207.820312 257.179688 C 207.820312 257.179688 206.964844 264.90625 215.976562 267.910156 C 219.410156 269.195312 226.277344 269.195312 226.707031 267.480469 C 227.136719 265.761719 218.121094 262.757812 218.121094 256.75 L 218.121094 235.71875 C 218.121094 220.269531 215.976562 214.6875 208.679688 209.96875 C 231.425781 207.820312 245.589844 202.242188 252.457031 187.21875 C 256.75 178.636719 257.609375 168.335938 257.609375 160.609375 C 257.609375 139.148438 247.308594 131.851562 245.160156 127.992188 C 248.167969 111.679688 244.734375 104.382812 243.015625 102.238281 C 237.007812 100.09375 222.414062 107.390625 214.6875 112.539062 C 201.8125 108.675781 174.34375 109.105469 164.042969 113.398438 C 145.160156 100.09375 135.285156 102.238281 135.285156 102.238281 C 135.285156 102.238281 128.847656 113.828125 133.570312 130.566406 C 127.132812 138.292969 122.839844 143.871094 122.410156 158.464844 C 122.410156 170.050781 123.699219 177.347656 128.847656 187.21875 Z M 128.847656 187.21875"/></svg>