<svg xmlns="http://www.w3.org/2000/svg" width="375" viewBox="0 0 375 375" height="375" version="1.0"><defs><clipPath id="a"><path d="M 69 53.347656 L 305 53.347656 L 305 321.847656 L 69 321.847656 Z M 69 53.347656"/></clipPath></defs><g clip-path="url(#a)"><path fill="#FFF" d="M 104.824219 111.722656 C 93.5625 105.101562 79.171875 109.015625 72.671875 120.472656 C 71.566406 122.453125 70.726562 124.589844 70.210938 126.804688 C 67.175781 139.683594 74.949219 152.625 87.574219 155.714844 L 87.5625 219.472656 C 83.195312 220.554688 79.207031 222.894531 76.101562 226.21875 C 67.140625 235.78125 67.488281 250.941406 76.871094 260.070312 C 86.265625 269.210938 101.148438 268.839844 110.105469 259.289062 L 164.324219 291.136719 C 163.675781 293.363281 163.351562 295.65625 163.351562 297.953125 C 163.363281 311.164062 173.886719 321.859375 186.855469 321.847656 C 189.359375 321.847656 191.828125 321.433594 194.21875 320.640625 C 206.554688 316.488281 213.257812 302.941406 209.167969 290.367188 L 263.039062 258.683594 C 264.703125 260.585938 266.667969 262.21875 268.8125 263.484375 C 280.085938 270.105469 294.464844 266.179688 300.964844 254.734375 C 302.117188 252.710938 302.988281 250.515625 303.511719 248.234375 C 306.519531 235.414062 298.742188 222.546875 286.164062 219.492188 L 286.164062 155.734375 C 288.332031 155.199219 290.386719 154.359375 292.296875 153.242188 C 303.589844 146.652344 307.511719 131.984375 301.03125 120.484375 C 299.902344 118.515625 298.519531 116.714844 296.886719 115.148438 C 287.457031 106.019531 272.542969 106.398438 263.585938 116.007812 L 209.378906 84.125 C 210.027344 81.898438 210.375 79.558594 210.363281 77.222656 C 210.351562 64.019531 199.828125 53.335938 186.855469 53.347656 C 184.589844 53.347656 182.320312 53.671875 180.152344 54.332031 C 167.742188 58.082031 160.636719 71.382812 164.324219 84.058594 L 110.085938 115.941406 C 108.542969 114.273438 106.765625 112.855469 104.824219 111.722656 Z M 204.242188 281.808594 C 199.929688 277.007812 193.738281 274 186.855469 274 C 180.199219 274 174.199219 276.785156 169.941406 281.304688 L 115.691406 249.398438 L 115.925781 248.46875 L 257.785156 248.46875 C 257.910156 249.007812 258.042969 249.53125 258.199219 250.058594 Z M 203.726562 93.9375 L 258.054688 125.910156 C 257.976562 126.167969 257.910156 126.449219 257.84375 126.714844 C 254.726562 139.535156 262.378906 152.503906 274.957031 155.667969 L 274.957031 219.515625 C 274.667969 219.59375 274.34375 219.671875 274.050781 219.773438 L 203.089844 94.585938 C 203.324219 94.371094 203.523438 94.171875 203.726562 93.9375 Z M 180.320312 100.269531 C 184.589844 101.523438 189.125 101.523438 193.414062 100.269531 L 264.390625 225.410156 C 261.136719 228.578125 258.835938 232.640625 257.765625 237.089844 L 115.960938 237.089844 C 114.890625 232.660156 112.597656 228.613281 109.371094 225.445312 Z M 115.625 125.832031 L 169.953125 93.925781 L 170.613281 94.597656 L 99.671875 219.773438 L 98.746094 219.515625 L 98.746094 155.65625 C 99.023438 155.578125 99.292969 155.511719 99.582031 155.421875 C 112.039062 151.765625 119.222656 138.53125 115.625 125.832031 Z M 115.625 125.832031"/></g></svg>