<svg xmlns="http://www.w3.org/2000/svg" width="375" viewBox="0 0 375 375" height="375" version="1.0"><defs><clipPath id="a"><path d="M 112.5 112.5 L 262.5 112.5 L 262.5 262.5 L 112.5 262.5 Z M 112.5 112.5"/></clipPath></defs><g clip-path="url(#a)"><path fill="#FFF" d="M 252.984375 112.5 L 122.027344 112.5 C 116.769531 112.5 112.5 116.769531 112.5 122.027344 L 112.5 252.972656 C 112.5 258.230469 116.769531 262.5 122.027344 262.5 L 252.972656 262.5 C 258.230469 262.5 262.5 258.230469 262.5 252.984375 L 262.5 122.027344 C 262.5 116.769531 258.230469 112.5 252.984375 112.5 Z M 194.644531 227.441406 C 194.644531 241.714844 186.273438 248.214844 174.050781 248.214844 C 163.003906 248.214844 155.035156 240.804688 151.785156 233.929688 L 163.015625 227.132812 C 165.179688 230.972656 168.472656 233.929688 173.214844 233.929688 C 177.75 233.929688 180.355469 232.15625 180.355469 225.265625 L 180.355469 180.355469 L 194.644531 180.355469 Z M 225.628906 248.214844 C 212.972656 248.214844 205.789062 241.839844 201.785156 233.929688 L 212.5 226.785156 C 215.414062 231.558594 218.597656 236.117188 225.320312 236.117188 C 230.972656 236.117188 233.929688 233.300781 233.929688 229.394531 C 233.929688 224.734375 230.859375 223.074219 224.652344 220.355469 L 221.246094 218.890625 C 211.410156 214.703125 204.867188 209.457031 204.867188 198.355469 C 204.867188 188.140625 212.667969 180.355469 224.832031 180.355469 C 233.496094 180.355469 239.71875 183.371094 244.210938 191.265625 L 233.609375 198.089844 C 231.265625 193.890625 228.753906 192.242188 224.832031 192.242188 C 220.84375 192.242188 218.316406 194.78125 218.316406 198.089844 C 218.316406 202.175781 220.84375 203.824219 226.6875 206.363281 L 230.09375 207.828125 C 241.683594 212.777344 248.214844 217.84375 248.214844 229.226562 C 248.214844 241.488281 238.574219 248.214844 225.628906 248.214844 Z M 225.628906 248.214844"/></g></svg>