<svg xmlns="http://www.w3.org/2000/svg" width="375" viewBox="0 0 375 375" height="375" version="1.0"><defs><clipPath id="a"><path d="M 54.792969 96.261719 L 263 96.261719 L 263 278.511719 L 54.792969 278.511719 Z M 54.792969 96.261719"/></clipPath></defs><path fill="#FFF" d="M 106.648438 247.34375 C 103.316406 245.53125 100.160156 243.433594 97.222656 241.078125 C 97.585938 241.378906 97.945312 241.679688 98.3125 241.96875 C 100.925781 244.027344 103.726562 245.824219 106.648438 247.34375"/><g clip-path="url(#a)"><path fill="#FFF" d="M 184.191406 240.855469 C 179.097656 243.699219 173.785156 246.351562 168.171875 248.628906 C 162.558594 250.902344 156.628906 252.785156 150.355469 253.984375 C 144.097656 255.1875 137.460938 255.628906 130.769531 254.929688 C 129.101562 254.761719 127.433594 254.515625 125.773438 254.199219 C 124.941406 254.0625 124.117188 253.851562 123.292969 253.675781 C 122.894531 253.59375 122.4375 253.472656 121.988281 253.351562 L 120.644531 252.988281 L 120.144531 252.847656 L 120.019531 252.808594 L 118.546875 252.347656 L 116.328125 251.621094 C 114.753906 251.082031 113.203125 250.46875 111.679688 249.8125 C 109.960938 249.066406 108.285156 248.234375 106.648438 247.34375 C 103.726562 245.824219 100.925781 244.027344 98.3125 241.96875 C 97.945312 241.679688 97.585938 241.378906 97.222656 241.078125 C 96.464844 240.472656 95.71875 239.855469 94.996094 239.21875 C 95.71875 239.855469 96.464844 240.472656 97.222656 241.078125 C 93.648438 238.113281 90.441406 234.6875 87.742188 230.910156 C 84.75 226.773438 82.339844 222.226562 80.699219 217.433594 C 79.878906 215.042969 79.230469 212.59375 78.792969 210.109375 C 78.675781 209.488281 78.589844 208.867188 78.496094 208.242188 C 78.417969 207.628906 78.328125 206.957031 78.285156 206.441406 C 78.253906 206.152344 78.222656 205.941406 78.199219 205.5 L 78.125 204.480469 L 78.066406 202.550781 C 77.953125 197.402344 78.539062 192.25 79.910156 187.277344 C 80.609375 184.792969 81.46875 182.351562 82.515625 179.980469 C 83.582031 177.617188 84.816406 175.328125 86.203125 173.121094 C 89.015625 168.742188 92.414062 164.671875 96.421875 161.246094 C 100.382812 157.769531 104.921875 154.9375 109.765625 152.757812 C 112.191406 151.679688 114.695312 150.753906 117.265625 150.019531 C 119.847656 149.316406 122.480469 148.785156 125.152344 148.421875 L 129.960938 147.769531 L 132.027344 144.304688 C 133.574219 141.707031 135.289062 139.195312 137.15625 136.796875 C 139.019531 134.394531 141.019531 132.082031 143.171875 129.90625 C 147.46875 125.546875 152.335938 121.707031 157.625 118.5 C 162.898438 115.265625 168.609375 112.671875 174.59375 110.824219 C 177.585938 109.90625 180.644531 109.148438 183.75 108.578125 C 184.527344 108.449219 185.304688 108.304688 186.085938 108.1875 L 188.433594 107.867188 L 190.71875 107.621094 L 193.269531 107.445312 L 195.574219 107.347656 L 197.96875 107.324219 C 199.5625 107.339844 201.160156 107.371094 202.761719 107.472656 C 205.957031 107.664062 209.15625 108.058594 212.328125 108.652344 C 218.664062 109.855469 224.925781 111.78125 230.890625 114.53125 C 233.867188 115.902344 236.796875 117.429688 239.617188 119.164062 C 242.441406 120.894531 245.167969 122.804688 247.800781 124.867188 C 250.425781 126.9375 252.929688 129.183594 255.320312 131.566406 C 257.703125 133.964844 259.964844 136.488281 262.082031 139.179688 C 260.476562 136.171875 258.667969 133.234375 256.652344 130.441406 C 254.648438 127.636719 252.4375 124.964844 250.058594 122.425781 C 247.6875 119.878906 245.128906 117.488281 242.417969 115.261719 C 239.707031 113.035156 236.855469 110.949219 233.851562 109.078125 C 227.847656 105.339844 221.332031 102.285156 214.46875 100.167969 C 211.039062 99.101562 207.53125 98.246094 203.972656 97.609375 C 202.191406 97.292969 200.398438 97.027344 198.597656 96.828125 C 197.699219 96.742188 196.796875 96.644531 195.890625 96.574219 L 193.851562 96.441406 L 193.34375 96.40625 L 193.300781 96.402344 L 193.171875 96.402344 L 193.089844 96.398438 L 190.535156 96.308594 L 187.722656 96.304688 L 184.980469 96.386719 C 184.066406 96.425781 183.15625 96.5 182.242188 96.554688 C 178.59375 96.828125 174.945312 97.332031 171.34375 98.097656 C 164.140625 99.605469 157.082031 102.027344 150.40625 105.3125 C 143.746094 108.617188 137.484375 112.785156 131.800781 117.671875 C 128.960938 120.117188 126.257812 122.738281 123.742188 125.535156 C 122.257812 127.1875 120.84375 128.902344 119.484375 130.660156 C 117.277344 130.914062 115.074219 131.246094 112.886719 131.6875 C 109.347656 132.429688 105.859375 133.441406 102.449219 134.683594 C 99.039062 135.929688 95.75 137.507812 92.5625 139.257812 C 89.371094 141.011719 86.332031 143.039062 83.441406 145.269531 C 80.550781 147.492188 77.804688 149.921875 75.28125 152.574219 C 72.757812 155.222656 70.367188 158.019531 68.269531 161.039062 C 66.164062 164.054688 64.273438 167.21875 62.605469 170.507812 C 60.960938 173.808594 59.570312 177.238281 58.410156 180.753906 C 56.140625 187.789062 54.878906 195.1875 54.804688 202.589844 L 54.808594 205.367188 L 54.855469 206.695312 C 54.863281 207.039062 54.902344 207.609375 54.933594 208.105469 C 54.992188 209.152344 55.082031 210.039062 55.171875 210.984375 C 55.277344 211.917969 55.382812 212.851562 55.523438 213.777344 C 56.054688 217.496094 56.890625 221.164062 57.992188 224.746094 C 60.199219 231.90625 63.492188 238.699219 67.683594 244.855469 C 71.898438 251 76.980469 256.519531 82.746094 261.242188 C 88.511719 265.964844 94.972656 269.878906 101.917969 272.789062 C 108.863281 275.703125 116.316406 277.542969 123.90625 278.203125 C 125.800781 278.359375 127.707031 278.457031 129.613281 278.46875 L 132.289062 278.445312 L 133.46875 278.421875 L 134.058594 278.414062 L 134.207031 278.410156 L 134.40625 278.398438 L 134.800781 278.378906 L 136.390625 278.28125 C 136.925781 278.246094 137.464844 278.214844 137.925781 278.160156 C 138.886719 278.046875 139.855469 277.972656 140.8125 277.824219 C 142.726562 277.558594 144.628906 277.214844 146.503906 276.792969 C 154.019531 275.109375 161.0625 272.207031 167.417969 268.617188 C 173.785156 265.03125 179.53125 260.820312 184.789062 256.304688 C 190.050781 251.78125 194.84375 246.96875 199.332031 242.023438 C 206.4375 234.136719 212.78125 225.921875 218.808594 217.691406 C 216.792969 219.175781 214.765625 220.664062 212.710938 222.136719 C 203.695312 228.636719 194.359375 235.128906 184.191406 240.855469"/></g><path fill="#FFF" d="M 158.441406 234.289062 C 158.441406 234.289062 159.183594 233.277344 160.570312 231.378906 C 160.925781 230.910156 161.3125 230.378906 161.71875 229.785156 C 162.132812 229.199219 162.585938 228.5625 163.074219 227.871094 C 163.566406 227.191406 164.074219 226.4375 164.617188 225.628906 C 165.164062 224.832031 165.746094 223.984375 166.355469 223.085938 C 168.765625 219.46875 171.605469 215.039062 174.765625 209.894531 C 177.941406 204.746094 181.429688 198.890625 185.390625 192.496094 C 187.359375 189.296875 189.511719 185.996094 191.773438 182.570312 C 194.066406 179.15625 196.578125 175.6875 199.304688 172.160156 C 200.007812 171.285156 200.714844 170.40625 201.421875 169.523438 C 202.152344 168.648438 202.921875 167.785156 203.679688 166.910156 C 204.425781 166.027344 205.257812 165.183594 206.058594 164.3125 C 206.46875 163.882812 206.863281 163.441406 207.289062 163.015625 C 207.714844 162.59375 208.144531 162.171875 208.574219 161.746094 C 212.015625 158.339844 215.929688 155.125 220.316406 152.277344 C 221.4375 151.597656 222.535156 150.871094 223.703125 150.230469 C 224.882812 149.613281 226.050781 148.957031 227.265625 148.382812 C 228.503906 147.84375 229.742188 147.285156 231.003906 146.769531 C 232.289062 146.316406 233.582031 145.855469 234.878906 145.398438 C 236.203125 145.03125 237.53125 144.664062 238.867188 144.300781 C 240.210938 143.992188 241.570312 143.742188 242.933594 143.46875 C 245.667969 143.042969 248.433594 142.738281 251.195312 142.664062 L 252.230469 142.617188 L 252.75 142.597656 L 253.425781 142.597656 L 255.269531 142.617188 L 256.207031 142.632812 L 257.308594 142.695312 L 259.523438 142.835938 C 260.25 142.890625 260.921875 142.984375 261.628906 143.058594 C 262.324219 143.148438 263.023438 143.199219 263.71875 143.328125 C 265.101562 143.566406 266.496094 143.769531 267.867188 144.105469 C 268.550781 144.261719 269.242188 144.410156 269.929688 144.578125 L 271.96875 145.136719 L 272.992188 145.421875 L 274 145.75 L 276.011719 146.425781 C 278.65625 147.417969 281.285156 148.496094 283.792969 149.808594 C 293.902344 154.9375 302.542969 162.765625 308.703125 171.988281 C 314.871094 181.222656 318.472656 191.867188 319.359375 202.285156 C 320.332031 212.699219 318.601562 222.863281 315.125 231.636719 C 313.363281 236.019531 311.210938 240.078125 308.734375 243.714844 C 306.246094 247.34375 303.507812 250.589844 300.605469 253.394531 C 297.691406 256.1875 294.671875 258.59375 291.625 260.582031 C 288.574219 262.5625 285.546875 264.191406 282.609375 265.476562 C 279.660156 266.746094 276.824219 267.691406 274.175781 268.40625 C 271.507812 269.054688 269.058594 269.578125 266.816406 269.816406 C 266.257812 269.882812 265.714844 269.949219 265.1875 270.015625 C 264.660156 270.050781 264.144531 270.089844 263.644531 270.125 C 263.148438 270.160156 262.667969 270.191406 262.203125 270.21875 C 261.738281 270.230469 261.285156 270.234375 260.851562 270.242188 C 259.121094 270.300781 257.652344 270.199219 256.46875 270.144531 C 255.289062 270.085938 254.386719 269.941406 253.78125 269.890625 C 253.175781 269.824219 252.863281 269.789062 252.863281 269.789062 C 252.863281 269.789062 253.175781 269.738281 253.777344 269.644531 C 254.378906 269.539062 255.265625 269.421875 256.414062 269.203125 C 258.707031 268.769531 262.042969 268.027344 266.074219 266.628906 C 268.089844 265.945312 270.257812 265.027344 272.550781 263.960938 C 274.8125 262.8125 277.222656 261.542969 279.625 259.933594 C 284.421875 256.734375 289.359375 252.5 293.609375 247.050781 C 295.734375 244.335938 297.710938 241.347656 299.378906 238.082031 C 301.054688 234.824219 302.492188 231.332031 303.523438 227.632812 C 305.632812 220.265625 306.285156 212.089844 305 203.964844 C 304.332031 199.917969 303.300781 195.882812 301.722656 192 C 301.292969 191.046875 300.933594 190.0625 300.445312 189.128906 L 299.757812 187.707031 L 298.996094 186.320312 C 298.523438 185.378906 297.941406 184.492188 297.402344 183.578125 C 297.136719 183.121094 296.820312 182.695312 296.53125 182.25 C 296.226562 181.816406 295.957031 181.359375 295.628906 180.9375 C 290.6875 174.023438 284.035156 168.171875 276.355469 164.289062 C 274.460938 163.277344 272.46875 162.460938 270.464844 161.691406 L 268.941406 161.171875 L 268.179688 160.90625 L 267.410156 160.683594 L 265.863281 160.230469 L 264.300781 159.851562 C 262.226562 159.347656 260.085938 159.015625 257.992188 158.738281 L 256.515625 158.601562 L 255.78125 158.523438 L 254.867188 158.484375 L 253.027344 158.410156 L 252.792969 158.402344 L 252.679688 158.398438 C 253.042969 158.402344 252.722656 158.402344 252.777344 158.402344 L 252.375 158.410156 L 251.574219 158.425781 C 249.425781 158.40625 247.332031 158.609375 245.25 158.832031 C 244.222656 158.996094 243.1875 159.125 242.164062 159.300781 C 241.152344 159.527344 240.144531 159.75 239.140625 159.976562 C 235.164062 161.027344 231.375 162.617188 227.769531 164.59375 C 220.582031 168.609375 214.234375 174.238281 208.550781 180.144531 C 202.871094 186.078125 197.773438 192.238281 193.027344 197.972656 C 190.640625 200.828125 188.378906 203.613281 186.164062 206.226562 C 185.050781 207.535156 183.96875 208.804688 182.914062 210.042969 C 181.859375 211.277344 180.832031 212.476562 179.800781 213.617188 C 175.734375 218.214844 172.027344 222.097656 168.859375 225.171875 C 165.683594 228.230469 163.0625 230.53125 161.253906 232.027344 C 159.421875 233.503906 158.441406 234.289062 158.441406 234.289062"/></svg>