<svg xmlns="http://www.w3.org/2000/svg" width="375" viewBox="0 0 375 375" height="375" version="1.0"><defs><clipPath id="a"><path d="M 76.804688 76.804688 L 298.054688 76.804688 L 298.054688 298 L 76.804688 298 Z M 76.804688 76.804688"/></clipPath></defs><g clip-path="url(#a)"><path fill="#FAFBFC" d="M 242.433594 76.890625 L 132.246094 76.890625 C 101.71875 76.890625 76.804688 101.804688 76.804688 132.335938 L 76.804688 242.695312 C 76.804688 273.050781 101.71875 297.964844 132.246094 297.964844 L 242.609375 297.964844 C 273.136719 297.964844 298.054688 273.050781 298.054688 242.519531 L 298.054688 132.335938 C 297.878906 101.804688 272.960938 76.890625 242.433594 76.890625 Z M 150.496094 255.855469 L 118.914062 255.855469 L 118.914062 164.617188 L 150.496094 164.617188 Z M 134.527344 150.582031 C 125.578125 150.582031 118.386719 143.386719 118.386719 134.441406 C 118.386719 125.492188 125.578125 118.296875 134.527344 118.296875 C 143.476562 118.296875 150.671875 125.492188 150.671875 134.441406 C 150.496094 143.386719 143.300781 150.582031 134.527344 150.582031 Z M 255.769531 255.855469 L 229.449219 255.855469 L 229.449219 211.640625 C 229.449219 200.9375 228.046875 187.253906 213.484375 187.253906 C 198.570312 187.253906 196.113281 198.832031 196.113281 210.9375 L 196.113281 255.855469 L 169.792969 255.855469 L 169.792969 164.617188 L 194.359375 164.617188 L 194.359375 176.902344 L 195.058594 176.902344 C 198.921875 169.882812 207.867188 164.441406 221.90625 164.441406 C 250.855469 164.441406 255.945312 181.113281 255.945312 205.851562 L 255.945312 255.855469 Z M 255.769531 255.855469"/></g></svg>