<svg xmlns="http://www.w3.org/2000/svg" xmlns:xlink="http://www.w3.org/1999/xlink" width="375" viewBox="0 0 375 375" height="375" version="1.1"><defs><clipPath id="b"><path d="M 32.445312 11 L 341 11 L 341 122 L 32.445312 122 Z M 32.445312 11"/></clipPath><clipPath id="e"><path d="M 11 11 L 298 11 L 298 110.679688 L 11 110.679688 Z M 11 11"/></clipPath><clipPath id="d"><path d="M0 0H309V111H0z"/></clipPath><clipPath id="f"><path d="M 32.445312 11 L 187 11 L 187 364 L 32.445312 364 Z M 32.445312 11"/></clipPath><clipPath id="i"><path d="M 11 11 L 154.238281 11 L 154.238281 352.839844 L 11 352.839844 Z M 11 11"/></clipPath><clipPath id="h"><path d="M0 0H155V353H0z"/></clipPath><clipPath id="l"><path d="M 0 11 L 144 11 L 144 352.839844 L 0 352.839844 Z M 0 11"/></clipPath><clipPath id="k"><path d="M0 0H155V353H0z"/></clipPath><clipPath id="m"><path d="M 32.445312 253 L 341 253 L 341 364 L 32.445312 364 Z M 32.445312 253"/></clipPath><clipPath id="n"><path d="M 32.445312 11 L 341 11 L 341 122 L 32.445312 122 Z M 32.445312 11"/></clipPath><clipPath id="o"><path d="M 32.445312 11 L 55 11 L 55 276 L 32.445312 276 Z M 32.445312 11"/></clipPath><mask id="c"><g filter="url(#a)"><path fill-opacity=".749" d="M-37.5 -37.5H412.5V412.5H-37.5z"/></g></mask><mask id="g"><g filter="url(#a)"><path fill-opacity=".749" d="M-37.5 -37.5H412.5V412.5H-37.5z"/></g></mask><mask id="j"><g filter="url(#a)"><path fill-opacity=".749" d="M-37.5 -37.5H412.5V412.5H-37.5z"/></g></mask><filter x="0%" y="0%" width="100%" xmlns:xlink="http://www.w3.org/1999/xlink" xlink:type="simple" xlink:actuate="onLoad" height="100%" id="a" xlink:show="other"><feColorMatrix values="0 0 0 0 1 0 0 0 0 1 0 0 0 0 1 0 0 0 1 0" color-interpolation-filters="sRGB"/></filter></defs><path fill="#FF5757" d="M 43.429688 253.710938 L 329.011719 253.710938 L 186.21875 363.78125 Z M 43.429688 253.710938"/><g clip-path="url(#b)"><g mask="url(#c)"><g><g clip-path="url(#d)" transform="translate(32 11)"><g clip-path="url(#e)"><path fill="#FF5757" d="M 11.429688 11.5625 L 297.011719 11.5625 L 154.21875 110.625 Z M 11.429688 11.5625"/></g></g></g></g></g><g clip-path="url(#f)"><g mask="url(#g)"><g><g clip-path="url(#h)" transform="translate(32 11)"><g clip-path="url(#i)"><path fill="#CB6CE6" d="M 11.429688 11.5625 L 11.429688 242.710938 L 154.21875 352.78125 L 154.21875 110.625 Z M 11.429688 11.5625"/></g></g></g></g></g><g mask="url(#j)"><g><g clip-path="url(#k)" transform="translate(186 11)"><g clip-path="url(#l)"><path fill="#38B6FF" d="M 143.011719 11.5625 L 143.011719 242.710938 L 0.21875 352.78125 L 0.21875 110.625 Z M 143.011719 11.5625"/></g></g></g></g><g clip-path="url(#m)"><path d="M 186.21875 363.78125 C 184.148438 363.78125 182.230469 363.238281 180.464844 362.152344 L 37.671875 274.09375 C 37.167969 273.785156 36.6875 273.433594 36.238281 273.042969 C 35.789062 272.652344 35.375 272.230469 34.992188 271.773438 C 34.613281 271.316406 34.269531 270.832031 33.96875 270.320312 C 33.664062 269.808594 33.40625 269.273438 33.191406 268.71875 C 32.972656 268.164062 32.804688 267.59375 32.679688 267.011719 C 32.554688 266.429688 32.480469 265.84375 32.453125 265.246094 C 32.421875 264.652344 32.441406 264.058594 32.511719 263.46875 C 32.578125 262.875 32.691406 262.292969 32.855469 261.722656 C 33.015625 261.148438 33.222656 260.589844 33.472656 260.050781 C 33.726562 259.511719 34.019531 258.996094 34.355469 258.507812 C 34.691406 258.015625 35.0625 257.554688 35.472656 257.121094 C 35.882812 256.691406 36.324219 256.296875 36.800781 255.9375 C 37.273438 255.578125 37.773438 255.257812 38.296875 254.980469 C 38.824219 254.703125 39.367188 254.46875 39.933594 254.28125 C 40.496094 254.09375 41.070312 253.949219 41.65625 253.855469 C 42.242188 253.757812 42.832031 253.710938 43.429688 253.710938 L 329.011719 253.710938 C 329.605469 253.710938 330.199219 253.757812 330.785156 253.855469 C 331.371094 253.949219 331.945312 254.09375 332.507812 254.28125 C 333.074219 254.46875 333.617188 254.703125 334.140625 254.980469 C 334.667969 255.257812 335.167969 255.578125 335.640625 255.9375 C 336.117188 256.296875 336.558594 256.691406 336.96875 257.121094 C 337.378906 257.554688 337.75 258.015625 338.085938 258.507812 C 338.421875 258.996094 338.714844 259.511719 338.96875 260.050781 C 339.21875 260.589844 339.425781 261.148438 339.585938 261.722656 C 339.75 262.292969 339.863281 262.875 339.929688 263.46875 C 340 264.058594 340.019531 264.652344 339.988281 265.246094 C 339.960938 265.84375 339.882812 266.429688 339.761719 267.011719 C 339.636719 267.59375 339.464844 268.164062 339.25 268.71875 C 339.035156 269.273438 338.777344 269.808594 338.472656 270.320312 C 338.171875 270.832031 337.828125 271.316406 337.449219 271.773438 C 337.066406 272.230469 336.652344 272.652344 336.203125 273.042969 C 335.753906 273.433594 335.273438 273.785156 334.769531 274.09375 L 191.976562 362.152344 C 190.210938 363.238281 188.292969 363.78125 186.21875 363.78125 Z M 82.246094 275.722656 L 186.21875 339.851562 L 290.195312 275.722656 Z M 82.246094 275.722656"/></g><g clip-path="url(#n)"><path d="M 186.21875 121.625 C 184.148438 121.625 182.230469 121.082031 180.464844 119.996094 L 37.671875 31.941406 C 37.167969 31.628906 36.6875 31.277344 36.238281 30.886719 C 35.789062 30.5 35.375 30.074219 34.992188 29.617188 C 34.613281 29.160156 34.269531 28.675781 33.96875 28.164062 C 33.664062 27.652344 33.40625 27.117188 33.191406 26.5625 C 32.972656 26.007812 32.804688 25.441406 32.679688 24.859375 C 32.554688 24.277344 32.480469 23.6875 32.453125 23.09375 C 32.421875 22.496094 32.441406 21.902344 32.511719 21.3125 C 32.578125 20.722656 32.691406 20.136719 32.855469 19.566406 C 33.015625 18.992188 33.222656 18.4375 33.472656 17.898438 C 33.726562 17.359375 34.019531 16.84375 34.355469 16.351562 C 34.691406 15.859375 35.0625 15.398438 35.472656 14.96875 C 35.882812 14.535156 36.324219 14.140625 36.800781 13.78125 C 37.273438 13.421875 37.773438 13.105469 38.296875 12.828125 C 38.824219 12.546875 39.367188 12.316406 39.933594 12.125 C 40.496094 11.9375 41.070312 11.792969 41.65625 11.699219 C 42.242188 11.601562 42.832031 11.554688 43.429688 11.554688 L 329.011719 11.554688 C 329.605469 11.554688 330.199219 11.601562 330.785156 11.699219 C 331.371094 11.792969 331.945312 11.9375 332.507812 12.125 C 333.074219 12.316406 333.617188 12.546875 334.140625 12.828125 C 334.667969 13.105469 335.167969 13.421875 335.640625 13.78125 C 336.117188 14.140625 336.558594 14.535156 336.96875 14.96875 C 337.378906 15.398438 337.75 15.859375 338.085938 16.351562 C 338.421875 16.84375 338.714844 17.359375 338.96875 17.898438 C 339.21875 18.4375 339.425781 18.992188 339.585938 19.566406 C 339.75 20.136719 339.863281 20.722656 339.929688 21.3125 C 340 21.902344 340.019531 22.496094 339.988281 23.09375 C 339.960938 23.6875 339.882812 24.277344 339.761719 24.859375 C 339.636719 25.441406 339.46875 26.007812 339.25 26.5625 C 339.035156 27.117188 338.777344 27.652344 338.472656 28.164062 C 338.171875 28.675781 337.828125 29.160156 337.449219 29.617188 C 337.066406 30.074219 336.652344 30.5 336.203125 30.886719 C 335.753906 31.277344 335.273438 31.628906 334.769531 31.941406 L 191.976562 119.996094 C 190.210938 121.082031 188.292969 121.625 186.21875 121.625 Z M 82.246094 33.570312 L 186.21875 97.695312 L 290.195312 33.570312 Z M 82.246094 33.570312"/></g><path d="M 186.21875 363.78125 C 185.5 363.78125 184.785156 363.710938 184.078125 363.570312 C 183.371094 363.429688 182.683594 363.21875 182.015625 362.941406 C 181.351562 362.667969 180.71875 362.328125 180.117188 361.925781 C 179.519531 361.523438 178.964844 361.066406 178.453125 360.558594 C 177.945312 360.046875 177.488281 359.488281 177.085938 358.890625 C 176.6875 358.289062 176.347656 357.652344 176.074219 356.984375 C 175.796875 356.320312 175.589844 355.628906 175.449219 354.921875 C 175.308594 354.210938 175.238281 353.496094 175.238281 352.773438 L 175.238281 110.617188 C 175.238281 109.894531 175.308594 109.179688 175.449219 108.472656 C 175.589844 107.761719 175.796875 107.074219 176.074219 106.40625 C 176.347656 105.738281 176.6875 105.105469 177.085938 104.503906 C 177.488281 103.902344 177.945312 103.347656 178.453125 102.835938 C 178.964844 102.324219 179.519531 101.867188 180.117188 101.464844 C 180.71875 101.066406 181.351562 100.726562 182.015625 100.449219 C 182.683594 100.171875 183.371094 99.964844 184.078125 99.824219 C 184.785156 99.683594 185.5 99.613281 186.21875 99.613281 C 186.941406 99.613281 187.65625 99.683594 188.363281 99.824219 C 189.070312 99.964844 189.757812 100.171875 190.425781 100.449219 C 191.089844 100.726562 191.722656 101.066406 192.324219 101.464844 C 192.921875 101.867188 193.476562 102.324219 193.988281 102.835938 C 194.496094 103.347656 194.953125 103.902344 195.351562 104.503906 C 195.753906 105.105469 196.09375 105.738281 196.367188 106.40625 C 196.644531 107.074219 196.851562 107.761719 196.992188 108.472656 C 197.132812 109.179688 197.203125 109.894531 197.203125 110.617188 L 197.203125 352.773438 C 197.203125 353.496094 197.132812 354.210938 196.992188 354.921875 C 196.851562 355.628906 196.644531 356.320312 196.367188 356.984375 C 196.09375 357.652344 195.753906 358.289062 195.351562 358.890625 C 194.953125 359.488281 194.496094 360.046875 193.988281 360.558594 C 193.476562 361.066406 192.921875 361.523438 192.324219 361.925781 C 191.722656 362.328125 191.089844 362.667969 190.425781 362.941406 C 189.757812 363.21875 189.070312 363.429688 188.363281 363.570312 C 187.65625 363.710938 186.941406 363.78125 186.21875 363.78125 Z M 186.21875 363.78125"/><g clip-path="url(#o)"><path d="M 43.429688 275.722656 C 42.707031 275.722656 41.992188 275.652344 41.285156 275.511719 C 40.578125 275.371094 39.890625 275.164062 39.226562 274.886719 C 38.558594 274.609375 37.925781 274.269531 37.324219 273.871094 C 36.726562 273.46875 36.171875 273.011719 35.660156 272.5 C 35.152344 271.988281 34.695312 271.433594 34.296875 270.832031 C 33.894531 270.230469 33.554688 269.597656 33.28125 268.929688 C 33.003906 268.261719 32.796875 267.574219 32.65625 266.863281 C 32.515625 266.15625 32.445312 265.441406 32.445312 264.71875 L 32.445312 22.5625 C 32.445312 21.839844 32.515625 21.125 32.65625 20.414062 C 32.796875 19.707031 33.003906 19.019531 33.28125 18.351562 C 33.554688 17.683594 33.894531 17.046875 34.296875 16.445312 C 34.695312 15.847656 35.152344 15.289062 35.660156 14.777344 C 36.171875 14.269531 36.726562 13.8125 37.324219 13.410156 C 37.925781 13.007812 38.558594 12.667969 39.226562 12.394531 C 39.890625 12.117188 40.578125 11.90625 41.285156 11.765625 C 41.992188 11.625 42.707031 11.554688 43.429688 11.554688 C 44.148438 11.554688 44.863281 11.625 45.570312 11.765625 C 46.277344 11.90625 46.964844 12.117188 47.632812 12.394531 C 48.296875 12.667969 48.929688 13.007812 49.53125 13.410156 C 50.128906 13.8125 50.683594 14.269531 51.195312 14.777344 C 51.703125 15.289062 52.160156 15.847656 52.5625 16.445312 C 52.960938 17.046875 53.300781 17.683594 53.574219 18.351562 C 53.851562 19.019531 54.058594 19.707031 54.199219 20.414062 C 54.339844 21.125 54.410156 21.839844 54.410156 22.5625 L 54.410156 264.71875 C 54.410156 265.441406 54.339844 266.15625 54.199219 266.863281 C 54.058594 267.574219 53.851562 268.261719 53.574219 268.929688 C 53.300781 269.597656 52.960938 270.230469 52.5625 270.832031 C 52.160156 271.433594 51.703125 271.988281 51.195312 272.5 C 50.683594 273.011719 50.128906 273.46875 49.53125 273.871094 C 48.929688 274.269531 48.296875 274.609375 47.632812 274.886719 C 46.964844 275.164062 46.277344 275.371094 45.570312 275.511719 C 44.863281 275.652344 44.148438 275.722656 43.429688 275.722656 Z M 43.429688 275.722656"/></g><path d="M 329.011719 275.722656 C 328.292969 275.722656 327.578125 275.652344 326.871094 275.511719 C 326.164062 275.371094 325.476562 275.164062 324.808594 274.886719 C 324.144531 274.609375 323.511719 274.269531 322.910156 273.871094 C 322.3125 273.46875 321.757812 273.011719 321.246094 272.5 C 320.734375 271.988281 320.28125 271.433594 319.878906 270.832031 C 319.480469 270.230469 319.140625 269.597656 318.863281 268.929688 C 318.589844 268.261719 318.378906 267.574219 318.238281 266.863281 C 318.097656 266.15625 318.027344 265.441406 318.027344 264.71875 L 318.027344 22.5625 C 318.027344 21.839844 318.097656 21.125 318.238281 20.414062 C 318.378906 19.707031 318.589844 19.019531 318.863281 18.351562 C 319.140625 17.683594 319.480469 17.046875 319.878906 16.445312 C 320.28125 15.847656 320.734375 15.289062 321.246094 14.777344 C 321.757812 14.269531 322.3125 13.8125 322.910156 13.410156 C 323.511719 13.007812 324.144531 12.667969 324.808594 12.394531 C 325.476562 12.117188 326.164062 11.90625 326.871094 11.765625 C 327.578125 11.625 328.292969 11.554688 329.011719 11.554688 C 329.734375 11.554688 330.449219 11.625 331.15625 11.765625 C 331.863281 11.90625 332.550781 12.117188 333.214844 12.394531 C 333.882812 12.667969 334.515625 13.007812 335.117188 13.410156 C 335.714844 13.8125 336.269531 14.269531 336.78125 14.777344 C 337.289062 15.289062 337.746094 15.847656 338.144531 16.445312 C 338.546875 17.046875 338.886719 17.683594 339.160156 18.351562 C 339.4375 19.019531 339.644531 19.707031 339.785156 20.414062 C 339.925781 21.125 339.996094 21.839844 339.996094 22.5625 L 339.996094 264.71875 C 339.996094 265.441406 339.925781 266.15625 339.785156 266.863281 C 339.644531 267.574219 339.4375 268.261719 339.160156 268.929688 C 338.886719 269.597656 338.546875 270.230469 338.144531 270.832031 C 337.746094 271.433594 337.289062 271.988281 336.78125 272.5 C 336.269531 273.011719 335.714844 273.46875 335.117188 273.871094 C 334.515625 274.269531 333.882812 274.609375 333.214844 274.886719 C 332.550781 275.164062 331.863281 275.371094 331.15625 275.511719 C 330.449219 275.652344 329.734375 275.722656 329.011719 275.722656 Z M 329.011719 275.722656"/></svg>