<svg xmlns="http://www.w3.org/2000/svg" width="375" viewBox="0 0 375 375" height="375" version="1.0"><defs><clipPath id="a"><path d="M 22.777344 82 L 352.027344 82 L 352.027344 292 L 22.777344 292 Z M 22.777344 82"/></clipPath></defs><g clip-path="url(#a)"><path fill="#FFF" d="M 249.015625 82.820312 C 247.347656 82.820312 245.820312 84.15625 245.820312 86.011719 L 245.820312 144.355469 L 232.585938 136.640625 C 231.757812 136.152344 230.824219 135.917969 229.886719 135.917969 C 228.953125 135.917969 228.019531 136.152344 227.191406 136.640625 L 195.390625 155.175781 C 193.734375 156.132812 192.714844 157.902344 192.714844 159.800781 L 192.714844 196.914062 C 192.714844 198.824219 193.734375 200.582031 195.390625 201.535156 L 227.191406 220.070312 C 228.019531 220.558594 228.953125 220.796875 229.886719 220.796875 C 230.824219 220.796875 231.757812 220.558594 232.585938 220.070312 L 264.386719 201.535156 C 266.042969 200.582031 267.0625 198.8125 267.0625 196.914062 L 267.0625 95.882812 C 267.0625 93.992188 266.050781 92.253906 264.425781 91.300781 L 250.589844 83.253906 C 250.070312 82.957031 249.546875 82.820312 249.015625 82.820312 Z M 144.921875 135.917969 C 143.988281 135.917969 143.058594 136.160156 142.222656 136.640625 L 110.421875 155.175781 C 108.765625 156.132812 107.746094 157.902344 107.746094 159.800781 L 107.746094 196.914062 C 107.746094 198.824219 108.765625 200.582031 110.421875 201.535156 L 142.222656 220.070312 C 143.890625 221.039062 145.949219 221.039062 147.617188 220.070312 L 179.417969 201.535156 C 181.074219 200.582031 182.09375 198.8125 182.09375 196.914062 L 182.09375 159.800781 C 182.09375 157.890625 181.074219 156.132812 179.417969 155.175781 L 147.617188 136.640625 C 146.785156 136.160156 145.851562 135.917969 144.921875 135.917969 Z M 314.855469 135.917969 C 313.921875 135.917969 312.988281 136.152344 312.160156 136.640625 L 280.359375 155.175781 C 278.703125 156.132812 277.683594 157.902344 277.683594 159.800781 L 277.683594 196.914062 C 277.683594 198.824219 278.703125 200.582031 280.359375 201.535156 L 311.203125 220.175781 C 312.863281 221.183594 314.941406 221.195312 316.617188 220.21875 L 331.78125 211.40625 C 333.355469 210.503906 333.367188 208.222656 331.78125 207.300781 L 298.925781 187.957031 L 298.925781 168.902344 L 314.855469 159.636719 L 330.789062 168.902344 L 330.789062 182.171875 C 330.789062 183.945312 332.277344 184.21875 333.277344 183.625 C 337.292969 181.265625 349.394531 174.253906 349.394531 174.253906 C 351.019531 173.308594 352.027344 171.558594 352.027344 169.671875 L 352.027344 159.800781 C 352.027344 157.890625 351.011719 156.132812 349.351562 155.175781 L 317.550781 136.640625 C 316.714844 136.152344 315.789062 135.917969 314.855469 135.917969 Z M 59.953125 135.9375 C 59.019531 135.9375 58.085938 136.175781 57.257812 136.664062 L 25.457031 155.175781 C 23.796875 156.144531 22.777344 157.910156 22.777344 159.820312 L 22.777344 207.195312 C 22.777344 209.511719 25.285156 210.945312 27.28125 209.789062 L 41.386719 201.578125 C 43.011719 200.621094 44.019531 198.886719 44.019531 196.996094 L 44.019531 168.945312 L 59.953125 159.65625 L 75.882812 168.945312 L 75.882812 196.996094 C 75.882812 198.886719 76.894531 200.621094 78.519531 201.578125 L 92.625 209.789062 C 94.621094 210.957031 97.125 209.511719 97.125 207.195312 L 97.125 159.820312 C 97.125 157.910156 96.105469 156.144531 94.449219 155.175781 L 62.648438 136.664062 C 61.820312 136.175781 60.886719 135.9375 59.953125 135.9375 Z M 229.886719 159.636719 L 245.820312 168.921875 L 245.820312 187.789062 L 229.886719 197.078125 L 213.957031 187.789062 L 213.957031 168.921875 Z M 314.855469 167.785156 L 305.75 173.089844 L 305.75 183.683594 L 314.855469 188.972656 L 323.960938 183.683594 L 323.960938 173.089844 Z M 186.410156 210.183594 C 185.316406 210.183594 184.210938 210.449219 183.253906 210.992188 L 153.382812 228.242188 C 151.417969 229.324219 150.230469 231.453125 150.230469 233.671875 L 150.230469 268.132812 C 150.230469 270.347656 151.472656 272.4375 153.382812 273.5625 L 161.246094 278.042969 C 165.015625 279.898438 166.402344 279.90625 168.113281 279.90625 C 173.742188 279.90625 176.949219 276.542969 176.949219 270.597656 L 176.949219 236.554688 C 176.949219 236.035156 176.546875 235.664062 176.078125 235.664062 L 172.300781 235.664062 C 171.78125 235.664062 171.410156 236.085938 171.410156 236.554688 L 171.410156 270.597656 C 171.410156 273.175781 168.683594 275.824219 164.234375 273.605469 L 156.058594 268.898438 C 155.792969 268.738281 155.605469 268.417969 155.605469 268.109375 L 155.605469 233.652344 C 155.605469 233.34375 155.75 232.980469 156.058594 232.824219 L 185.929688 215.613281 C 186.25 215.453125 186.609375 215.453125 186.863281 215.613281 L 216.757812 232.824219 C 217.066406 232.980469 217.214844 233.292969 217.214844 233.652344 L 217.214844 268.109375 C 217.214844 268.472656 217.011719 268.78125 216.757812 268.941406 L 186.863281 286.210938 C 186.597656 286.371094 186.1875 286.371094 185.929688 286.210938 L 178.296875 281.667969 C 178.097656 281.5625 177.773438 281.5 177.570312 281.605469 C 175.457031 282.847656 175.035156 283.011719 173.070312 283.679688 C 172.550781 283.839844 171.84375 284.160156 173.339844 284.988281 L 183.253906 290.875 C 184.242188 291.394531 185.324219 291.703125 186.410156 291.703125 C 187.546875 291.703125 188.648438 291.394531 189.519531 290.832031 L 219.390625 273.5625 C 221.355469 272.480469 222.542969 270.347656 222.542969 268.132812 L 222.542969 233.671875 C 222.542969 231.453125 221.304688 229.375 219.390625 228.242188 L 189.519531 210.992188 C 188.589844 210.449219 187.5 210.183594 186.410156 210.183594 Z M 233 226.085938 C 229.953125 226.085938 227.273438 228.546875 227.273438 231.808594 C 227.273438 234.960938 229.84375 237.550781 233 237.550781 C 236.152344 237.550781 238.726562 234.960938 238.726562 231.808594 C 238.726562 228.546875 236.101562 226.03125 233 226.085938 Z M 232.9375 226.996094 C 235.636719 226.996094 237.8125 229.121094 237.8125 231.808594 C 237.8125 234.4375 235.625 236.617188 232.9375 236.679688 C 230.292969 236.679688 228.144531 234.492188 228.144531 231.808594 C 228.144531 229.121094 230.304688 226.996094 232.9375 226.996094 Z M 230.84375 228.550781 L 230.84375 235 L 232.066406 235 L 232.066406 232.429688 L 233.207031 232.429688 C 233.675781 232.429688 233.785156 232.628906 233.890625 232.988281 C 233.890625 233.042969 234.085938 234.710938 234.140625 235.019531 L 235.46875 235.019531 C 235.320312 234.710938 235.210938 233.832031 235.15625 233.300781 C 235.007812 232.472656 234.960938 231.902344 234.078125 231.847656 C 234.546875 231.6875 235.324219 231.441406 235.324219 230.25 C 235.324219 228.542969 233.835938 228.550781 233.0625 228.550781 Z M 232.066406 229.589844 L 233.101562 229.589844 C 233.421875 229.589844 234.035156 229.578125 234.035156 230.460938 C 234.035156 230.820312 233.878906 231.402344 233.042969 231.390625 L 232.066406 231.390625 Z M 194.414062 234.855469 C 185.886719 234.855469 180.828125 238.488281 180.828125 244.476562 C 180.828125 251.035156 185.894531 252.789062 194.0625 253.617188 C 203.835938 254.59375 204.601562 256 204.601562 257.910156 C 204.601562 261.265625 201.90625 262.65625 195.597656 262.65625 C 187.683594 262.65625 185.945312 260.695312 185.371094 256.769531 C 185.316406 256.355469 184.945312 256.042969 184.480469 256.042969 L 180.601562 256.042969 C 180.132812 256.042969 179.730469 256.414062 179.730469 256.933594 C 179.730469 261.945312 182.460938 267.945312 195.535156 267.945312 C 205.125 267.933594 210.554688 264.21875 210.554688 257.703125 C 210.554688 251.25 206.207031 249.53125 197.007812 248.289062 C 187.703125 247.046875 186.78125 246.421875 186.78125 244.246094 C 186.78125 242.441406 187.542969 240.078125 194.414062 240.078125 C 200.566406 240.078125 202.855469 241.421875 203.792969 245.550781 C 203.898438 245.964844 204.1875 246.214844 204.601562 246.214844 L 208.480469 246.214844 C 208.734375 246.214844 208.953125 246.117188 209.101562 245.96875 C 209.261719 245.765625 209.363281 245.558594 209.308594 245.304688 C 208.695312 238.171875 203.984375 234.855469 194.414062 234.855469 Z M 194.414062 234.855469"/></g></svg>