<svg xmlns="http://www.w3.org/2000/svg" width="375" viewBox="0 0 375 375" height="375" version="1.0"><defs><clipPath id="a"><path d="M 55 54.585938 L 320 54.585938 L 320 319 L 55 319 Z M 55 54.585938"/></clipPath></defs><g clip-path="url(#a)"><path fill="#FFF" d="M 200.546875 54.585938 C 151.425781 54.585938 138.679688 91.945312 134.398438 113.613281 C 140.28125 111.085938 154.78125 107.421875 160.917969 107.421875 L 161.175781 107.421875 C 176.296875 107.527344 180.992188 111.808594 184.035156 125.792969 C 186.253906 136.058594 187.390625 152.054688 187.335938 160.257812 C 187.285156 178.214844 182.953125 190.597656 179.753906 198.90625 L 178.722656 201.589844 C 177.945312 203.808594 177.019531 205.871094 176.191406 207.78125 C 175.367188 209.792969 174.644531 211.546875 174.128906 213.09375 C 177.328125 213.816406 179.855469 214.847656 181.558594 215.570312 L 182.539062 216.035156 C 182.847656 216.191406 183.15625 216.292969 183.417969 216.5 C 189.039062 219.90625 187.335938 227.75 187.335938 233.941406 C 187.335938 239.101562 187.492188 259.636719 187.335938 279.191406 C 187.90625 287.652344 190.070312 294.773438 191.929688 299.984375 C 194.664062 307.3125 200.804688 318.199219 213.753906 318.765625 C 223.972656 319.230469 238.730469 313.863281 240.171875 292.398438 L 240.171875 239.566406 C 241.152344 221.917969 261.378906 214.902344 266.589844 211.03125 C 265.867188 210.050781 263.082031 201.433594 260.140625 196.84375 L 259.574219 195.757812 C 259.160156 194.726562 258.078125 192.867188 256.734375 190.390625 C 248.945312 176.253906 232.640625 139.980469 243.785156 121.40625 C 248.636719 113.253906 253.382812 108.558594 266.589844 107.421875 C 261.226562 92.097656 246.363281 55.363281 200.546875 54.585938 Z M 113.863281 54.585938 C 89.148438 55.515625 55.246094 70.839844 55.246094 120.789062 C 55.246094 154.636719 78.261719 252.722656 114.585938 252.722656 C 116.234375 252.722656 117.886719 252.15625 119.589844 251.277344 C 116.390625 248.492188 114.070312 244.878906 113.757812 240.132812 C 113.191406 230.535156 120.15625 223.777344 135.171875 219.957031 C 135.894531 219.855469 139.714844 218.71875 148.125 213.972656 C 143.6875 212.0625 139.042969 209.484375 135.222656 205.511719 C 124.75 194.570312 119.433594 179.246094 121.394531 165.46875 C 123.253906 152.054688 122.171875 138.898438 121.601562 131.878906 L 121.550781 131.210938 L 121.394531 128.886719 L 121.085938 124.039062 L 121.5 111.035156 C 125.78125 89.054688 134.757812 72.027344 147.710938 60.261719 C 137.90625 57.0625 125.574219 54.175781 113.863281 54.585938 Z M 252.503906 54.640625 C 249.976562 54.691406 247.601562 54.898438 245.28125 55.15625 C 258.542969 64.390625 270.71875 79.304688 279.027344 103.089844 L 279.59375 121.25 C 279.644531 121.871094 279.75 122.488281 279.851562 123.109375 C 280.265625 125.378906 280.78125 128.476562 280.367188 132.191406 C 279.851562 136.421875 279.335938 140.753906 279.179688 145.089844 C 279.078125 149.371094 279.644531 153.550781 280.265625 157.988281 C 281.398438 165.882812 280.78125 173.882812 278.304688 182.445312 L 274.433594 195.757812 C 275.464844 198.027344 276.445312 200.351562 277.425781 202.777344 C 277.632812 203.394531 277.839844 203.859375 277.996094 204.273438 L 282.328125 210.257812 C 305.652344 189.722656 319.425781 146.742188 319.425781 102.46875 C 319.425781 93.90625 317.105469 87.300781 314.113281 83.480469 C 296.414062 60.832031 271.90625 54.328125 252.503906 54.640625 Z M 160.917969 120.632812 C 157.203125 120.632812 144.410156 123.675781 139.558594 125.742188 L 134.8125 127.753906 C 134.707031 127.855469 134.605469 127.960938 134.554688 128.0625 C 134.605469 128.785156 134.707031 129.660156 134.8125 130.746094 C 135.378906 138.332031 136.515625 152.417969 134.449219 167.328125 C 133.058594 177.132812 137.03125 188.277344 144.820312 196.378906 C 149.257812 201.019531 157.203125 204.066406 162.984375 205.355469 C 163.34375 204.425781 163.65625 203.652344 164.066406 202.621094 C 164.789062 200.867188 165.613281 199.007812 166.390625 196.945312 L 167.421875 194.160156 C 169.742188 188.121094 174.078125 176.820312 174.128906 160.207031 C 174.179688 154.738281 173.5625 144.78125 172.425781 136.265625 C 172.269531 136.472656 172.167969 136.472656 172.066406 136.730469 C 170.105469 138.691406 167.058594 140.445312 163.707031 139.929688 C 158.238281 139.050781 154.058594 132.398438 154.316406 129.917969 C 154.625 127.496094 159.320312 126.203125 164.789062 127.082031 C 166.648438 127.390625 168.402344 127.960938 169.847656 128.578125 C 170.363281 128.992188 170.773438 129.25 171.238281 129.558594 C 171.1875 129.25 171.1875 128.886719 171.085938 128.578125 C 169.847656 122.746094 168.8125 121.664062 168.761719 121.613281 C 168.710938 121.5625 167.316406 120.683594 160.917969 120.632812 Z M 266.386719 120.789062 C 259.988281 121.5625 258.179688 123.265625 255.859375 127.03125 C 260.347656 127.03125 263.597656 128.527344 263.960938 131.3125 C 264.320312 133.6875 262.308594 135.957031 261.429688 136.832031 C 259.574219 138.589844 257.253906 139.773438 254.929688 140.03125 C 254.515625 140.136719 254.105469 140.136719 253.640625 140.136719 C 253.539062 140.136719 253.484375 140.085938 253.382812 140.085938 C 254.15625 150.972656 259.058594 165.675781 265.609375 178.78125 C 267.417969 172.488281 268.140625 166.347656 267.210938 159.847656 C 266.539062 155.046875 265.816406 150.09375 265.972656 144.675781 C 266.179688 139.773438 266.695312 135.183594 267.210938 130.695312 C 267.625 127.238281 266.28125 124.039062 266.386719 120.789062 Z M 295.382812 220.113281 C 294.351562 219.957031 292.90625 220.0625 291.152344 220.421875 C 282.84375 222.125 277.324219 222.589844 273.246094 222.332031 C 271.800781 223.3125 270.304688 224.238281 268.449219 225.273438 C 261.019531 229.347656 254.414062 233.578125 253.539062 239.511719 L 253.539062 247.199219 C 262.257812 247.613281 273.917969 242.195312 280.625 239.101562 C 293.265625 233.269531 302.761719 221.09375 295.382812 220.113281 Z M 158.753906 223.15625 C 151.476562 227.492188 143.273438 231.773438 137.804688 232.910156 C 118.402344 238.066406 130.425781 244.105469 137.289062 244.777344 C 144.613281 246.582031 162.570312 250.65625 174.128906 241.214844 C 174.128906 241.214844 174.128906 241.214844 174.128906 241.164062 L 174.128906 233.941406 C 174.128906 232.546875 174.179688 231.152344 174.285156 229.65625 C 174.285156 228.882812 174.335938 227.851562 174.335938 226.921875 C 173.457031 226.5625 172.375 226.253906 171.1875 225.941406 Z M 158.753906 223.15625"/></g></svg>