<svg xmlns="http://www.w3.org/2000/svg" width="375" viewBox="0 0 375 375" height="375" version="1.0"><defs><clipPath id="a"><path d="M 108.082031 70.710938 L 267 70.710938 L 267 260 L 108.082031 260 Z M 108.082031 70.710938"/></clipPath><clipPath id="b"><path d="M 151 286 L 223 286 L 223 303.960938 L 151 303.960938 Z M 151 286"/></clipPath></defs><g clip-path="url(#a)"><path fill="#FAFBFC" d="M 246.851562 201.527344 L 250.367188 195.886719 C 254.089844 190.144531 266.457031 169.480469 266.457031 149.671875 C 266.457031 106.160156 230.953125 70.738281 187.332031 70.738281 C 143.707031 70.738281 108.222656 106.160156 108.222656 149.671875 C 108.222656 169.460938 120.597656 190.125 124.394531 196.019531 C 124.296875 195.886719 130.003906 204.914062 130.003906 204.914062 C 139.960938 220.472656 149.347656 235.195312 151.5625 253.160156 C 152.039062 257 155.296875 259.878906 159.160156 259.878906 L 216.710938 259.878906 C 220.5625 259.878906 223.832031 257 224.3125 253.179688 C 226.699219 233.808594 236.492188 218.113281 246.851562 201.527344 Z M 246.851562 201.527344"/></g><path fill="#FAFBFC" d="M 217.742188 268.523438 L 156.335938 268.523438 C 153.4375 268.523438 151.089844 270.875 151.089844 273.765625 C 151.089844 276.660156 153.4375 278.992188 156.335938 278.992188 L 217.742188 278.992188 C 220.632812 278.992188 222.984375 276.660156 222.984375 273.765625 C 222.984375 270.878906 220.632812 268.523438 217.742188 268.523438 Z M 217.742188 268.523438"/><g clip-path="url(#b)"><path fill="#FAFBFC" d="M 217.742188 286.960938 L 156.335938 286.960938 C 153.4375 286.960938 151.089844 289.316406 151.089844 292.199219 C 151.089844 295.097656 153.4375 297.429688 156.335938 297.429688 L 169.039062 297.429688 C 169.5625 301.007812 172.589844 303.761719 176.320312 303.761719 L 198.339844 303.761719 C 202.074219 303.761719 205.109375 301.007812 205.625 297.429688 L 217.742188 297.429688 C 220.632812 297.429688 222.984375 295.097656 222.984375 292.199219 C 222.984375 289.316406 220.632812 286.960938 217.742188 286.960938 Z M 217.742188 286.960938"/></g></svg>