<svg xmlns="http://www.w3.org/2000/svg" width="375" viewBox="0 0 375 375" height="375" version="1.0"><defs><clipPath id="a"><path d="M 51.863281 51.863281 L 241 51.863281 L 241 247 L 51.863281 247 Z M 51.863281 51.863281"/></clipPath><clipPath id="b"><path d="M 134 128 L 323.363281 128 L 323.363281 323.363281 L 134 323.363281 Z M 134 128"/></clipPath></defs><g clip-path="url(#a)"><path fill="#FFF" d="M 184.660156 51.863281 C 133.3125 51.863281 122.6875 78.421875 122.6875 93.769531 L 122.6875 122.6875 L 181.710938 122.6875 L 181.710938 128.589844 L 93.769531 128.589844 C 74.289062 128.589844 51.863281 143.9375 51.863281 187.613281 C 51.863281 231.289062 74.289062 246.632812 93.769531 246.632812 L 128.589844 246.632812 L 128.589844 211.222656 C 128.589844 198.234375 139.214844 187.613281 152.199219 187.613281 L 223.023438 187.613281 C 233.058594 187.613281 240.730469 179.941406 240.730469 169.90625 L 240.730469 93.769531 C 240.730469 73.109375 221.253906 51.863281 184.660156 51.863281 Z M 158.101562 104.980469 C 151.609375 104.980469 146.296875 99.667969 146.296875 93.175781 C 146.296875 86.683594 151.609375 81.375 158.101562 81.375 C 164.59375 81.375 169.90625 86.683594 169.90625 93.175781 C 169.90625 99.667969 164.59375 104.980469 158.101562 104.980469 Z M 158.101562 104.980469"/></g><g clip-path="url(#a)"><path fill="#FFF" d="M 190.5625 323.363281 C 241.914062 323.363281 252.535156 296.800781 252.535156 281.457031 L 252.535156 252.535156 L 193.515625 252.535156 L 193.515625 246.632812 L 281.457031 246.632812 C 300.933594 246.632812 323.363281 231.289062 323.363281 187.613281 C 323.363281 143.9375 300.933594 128.589844 281.457031 128.589844 L 246.632812 128.589844 L 246.632812 169.90625 C 246.632812 182.890625 236.011719 193.515625 223.023438 193.515625 L 152.199219 193.515625 C 142.164062 193.515625 134.492188 201.1875 134.492188 211.222656 L 134.492188 281.457031 C 134.492188 302.113281 153.96875 323.363281 190.5625 323.363281 Z M 217.125 270.242188 C 223.617188 270.242188 228.925781 275.554688 228.925781 282.046875 C 228.925781 288.539062 223.617188 293.851562 217.125 293.851562 C 210.628906 293.851562 205.320312 288.539062 205.320312 282.046875 C 205.320312 275.554688 210.628906 270.242188 217.125 270.242188 Z M 217.125 270.242188"/></g></svg>