<svg xmlns="http://www.w3.org/2000/svg" width="375" viewBox="0 0 375 375" height="375" version="1.0"><defs><clipPath id="a"><path d="M 25 135 L 216 135 L 216 263.367188 L 25 263.367188 Z M 25 135"/></clipPath><clipPath id="b"><path d="M 86 238 L 118 238 L 118 263.367188 L 86 263.367188 Z M 86 238"/></clipPath></defs><path fill="#FFF" d="M 140.523438 257.675781 C 134.882812 257.675781 130.300781 253.089844 130.300781 247.4375 L 130.300781 204.226562 C 130.300781 198.578125 134.882812 193.992188 140.523438 193.992188 C 146.167969 193.992188 150.75 198.578125 150.75 204.226562 L 150.75 247.4375 C 150.75 253.089844 146.167969 257.675781 140.523438 257.675781 Z M 140.523438 257.675781"/><path fill="#FFF" d="M 165.976562 241.761719 L 140.523438 241.761719 C 134.882812 241.761719 130.300781 237.175781 130.300781 231.523438 C 130.300781 225.875 134.882812 221.289062 140.523438 221.289062 L 165.976562 221.289062 C 167.148438 221.289062 168.472656 219.882812 168.472656 217.875 C 168.472656 215.871094 167.148438 214.464844 165.976562 214.464844 L 140.523438 214.464844 C 134.882812 214.464844 130.300781 209.878906 130.300781 204.226562 C 130.300781 198.578125 134.882812 193.992188 140.523438 193.992188 L 165.976562 193.992188 C 178.628906 193.992188 188.921875 204.703125 188.921875 217.875 C 188.921875 231.046875 178.628906 241.761719 165.976562 241.761719 Z M 165.976562 241.761719"/><path fill="#FFF" d="M 178.683594 257.675781 C 176.570312 257.675781 174.429688 257.019531 172.601562 255.667969 L 151.171875 239.753906 C 146.632812 236.382812 145.691406 229.96875 149.046875 225.4375 C 152.414062 220.890625 158.820312 219.949219 163.34375 223.308594 L 184.777344 239.222656 C 189.316406 242.59375 190.257812 249.007812 186.902344 253.539062 C 184.898438 256.257812 181.816406 257.675781 178.683594 257.675781 Z M 178.683594 257.675781"/><path fill="#FFF" d="M 232.992188 257.675781 C 227.347656 257.675781 222.769531 253.089844 222.769531 247.4375 L 222.769531 214.574219 L 211.414062 214.464844 L 211.414062 247.4375 C 211.414062 253.089844 206.832031 257.675781 201.1875 257.675781 C 195.546875 257.675781 190.964844 253.089844 190.964844 247.4375 L 190.964844 212.839844 C 190.964844 202.4375 200.097656 193.992188 211.332031 193.992188 L 222.851562 193.992188 C 234.082031 193.992188 243.21875 202.4375 243.21875 212.839844 L 243.21875 247.4375 C 243.21875 253.089844 238.636719 257.675781 232.992188 257.675781 Z M 232.992188 257.675781"/><path fill="#FFF" d="M 232.597656 241.472656 L 201.1875 241.472656 C 195.546875 241.472656 190.964844 236.886719 190.964844 231.238281 C 190.964844 225.585938 195.546875 221 201.1875 221 L 232.597656 221 C 238.242188 221 242.824219 225.585938 242.824219 231.238281 C 242.824219 236.886719 238.242188 241.472656 232.597656 241.472656 Z M 232.597656 241.472656"/><path fill="#FFF" d="M 335.234375 257.675781 L 316.152344 257.675781 C 310.507812 257.675781 305.925781 253.089844 305.925781 247.4375 C 305.925781 241.789062 310.507812 237.203125 316.152344 237.203125 L 331.378906 237.203125 L 331.378906 236.070312 L 322.515625 236.070312 C 313.371094 236.070312 305.925781 229.054688 305.925781 220.429688 L 305.925781 209.617188 C 305.925781 200.992188 313.371094 193.976562 322.515625 193.976562 L 341.601562 193.976562 C 347.246094 193.976562 351.828125 198.5625 351.828125 204.214844 C 351.828125 209.863281 347.246094 214.449219 341.601562 214.449219 L 326.375 214.449219 L 326.375 215.597656 L 335.234375 215.597656 C 344.382812 215.597656 351.828125 222.613281 351.828125 231.238281 L 351.828125 242.046875 C 351.828125 250.660156 344.382812 257.675781 335.234375 257.675781 Z M 335.234375 257.675781"/><path fill="#FFF" d="M 255.488281 257.675781 C 249.84375 257.675781 245.261719 253.089844 245.261719 247.4375 L 245.261719 204.226562 C 245.261719 198.578125 249.84375 193.992188 255.488281 193.992188 C 261.128906 193.992188 265.710938 198.578125 265.710938 204.226562 L 265.710938 247.4375 C 265.710938 253.089844 261.128906 257.675781 255.488281 257.675781 Z M 255.488281 257.675781"/><path fill="#FFF" d="M 293.65625 257.675781 L 277.980469 257.675781 C 272.335938 257.675781 267.757812 253.089844 267.757812 247.4375 L 267.757812 204.226562 C 267.757812 198.578125 272.335938 193.992188 277.980469 193.992188 C 283.625 193.992188 288.203125 198.578125 288.203125 204.226562 L 288.203125 237.203125 L 293.65625 237.203125 C 299.300781 237.203125 303.882812 241.789062 303.882812 247.4375 C 303.882812 253.089844 299.300781 257.675781 293.65625 257.675781 Z M 293.65625 257.675781"/><g clip-path="url(#a)"><path fill="#FFF" d="M 97.257812 263.367188 L 36.003906 263.367188 C 33.292969 263.367188 30.6875 262.289062 28.78125 260.363281 C 24.976562 256.570312 25.617188 252.652344 26.492188 247.21875 C 26.777344 245.40625 36.441406 188.761719 76.535156 156.019531 C 129.824219 112.535156 188.851562 147.640625 212.625 172.234375 C 216.363281 176.097656 216.457031 182.199219 212.859375 186.199219 C 209.246094 190.167969 203.164062 190.703125 198.941406 187.386719 C 198.558594 187.085938 159.898438 157.179688 129.917969 176.957031 C 99.246094 197.15625 107.25 250.972656 107.34375 251.507812 C 107.808594 254.46875 106.960938 257.484375 105.011719 259.75 C 103.078125 262.042969 100.242188 263.367188 97.257812 263.367188 Z M 48.355469 242.878906 L 86.035156 242.894531 C 85.027344 222.351562 87.25 180.585938 118.6875 159.871094 C 120.757812 158.503906 122.859375 157.304688 124.957031 156.226562 C 113.4375 157.535156 101.386719 162.164062 89.445312 171.878906 C 63.394531 193.171875 52.199219 227.714844 48.355469 242.878906 Z M 48.355469 242.878906"/></g><g clip-path="url(#b)"><path fill="#FFF" d="M 106.960938 263.367188 C 105.542969 263.367188 104.085938 263.082031 102.707031 262.4375 L 92.484375 257.742188 C 87.359375 255.382812 85.097656 249.324219 87.453125 244.175781 C 89.800781 239.03125 95.867188 236.765625 101.003906 239.140625 L 111.230469 243.835938 C 116.355469 246.195312 118.617188 252.257812 116.257812 257.402344 C 114.542969 261.15625 110.832031 263.367188 106.960938 263.367188 Z M 106.960938 263.367188"/></g><path fill="#FFF" d="M 43.515625 233.859375 C 42.070312 233.859375 40.613281 233.558594 39.222656 232.902344 L 30.566406 228.875 C 25.441406 226.5 23.21875 220.414062 25.605469 215.28125 C 27.988281 210.152344 34.070312 207.941406 39.183594 210.328125 L 47.839844 214.355469 C 52.964844 216.730469 55.1875 222.816406 52.800781 227.949219 C 51.070312 231.675781 47.375 233.859375 43.515625 233.859375 Z M 43.515625 233.859375"/><path fill="#FFF" d="M 109.578125 231.714844 C 107.179688 231.714844 104.78125 230.871094 102.832031 229.164062 L 91.558594 219.242188 C 87.316406 215.515625 86.894531 209.046875 90.628906 204.785156 C 94.367188 200.527344 100.828125 200.117188 105.066406 203.859375 L 116.339844 213.78125 C 120.582031 217.507812 121.003906 223.976562 117.269531 228.234375 C 115.25 230.542969 112.429688 231.714844 109.578125 231.714844 Z M 109.578125 231.714844"/><path fill="#FFF" d="M 65.546875 192.558594 C 63.160156 192.558594 60.761719 191.710938 58.8125 190.019531 L 47.796875 180.371094 C 43.542969 176.644531 43.121094 170.175781 46.84375 165.914062 C 50.566406 161.683594 57.011719 161.246094 61.28125 164.960938 L 72.296875 174.609375 C 76.546875 178.335938 76.972656 184.804688 73.25 189.0625 C 71.21875 191.371094 68.382812 192.558594 65.546875 192.558594 Z M 65.546875 192.558594"/><path fill="#FFF" d="M 118.113281 205.566406 C 114.71875 205.566406 111.40625 203.886719 109.46875 200.789062 L 101.34375 187.917969 C 98.320312 183.140625 99.75 176.820312 104.523438 173.804688 C 109.308594 170.761719 115.605469 172.179688 118.632812 176.984375 L 126.757812 189.855469 C 129.78125 194.632812 128.351562 200.953125 123.578125 203.96875 C 121.875 205.058594 119.996094 205.566406 118.113281 205.566406 Z M 118.113281 205.566406"/><path fill="#FFF" d="M 93.464844 166.800781 C 90.085938 166.800781 86.785156 165.125 84.835938 162.054688 L 78.019531 151.324219 C 74.996094 146.546875 76.398438 140.242188 81.15625 137.199219 C 85.898438 134.167969 92.226562 135.574219 95.265625 140.339844 L 102.082031 151.066406 C 105.121094 155.84375 103.71875 162.164062 98.945312 165.207031 C 97.257812 166.285156 95.347656 166.800781 93.464844 166.800781 Z M 93.464844 166.800781"/><path fill="#FFF" d="M 135.945312 188.121094 C 131.648438 188.121094 127.65625 185.390625 126.238281 181.078125 L 121.765625 167.539062 C 120.007812 162.1875 122.910156 156.390625 128.28125 154.628906 C 133.640625 152.8125 139.421875 155.773438 141.191406 161.152344 L 145.652344 174.691406 C 147.410156 180.054688 144.503906 185.84375 139.132812 187.601562 C 138.070312 187.972656 136.996094 188.121094 135.945312 188.121094 Z M 135.945312 188.121094"/><path fill="#FFF" d="M 125.449219 156.074219 C 121.152344 156.074219 117.160156 153.359375 115.742188 149.046875 L 112.863281 140.324219 C 111.078125 134.972656 113.996094 129.171875 119.355469 127.398438 C 124.699219 125.582031 130.503906 128.53125 132.277344 133.910156 L 135.152344 142.632812 C 136.925781 147.996094 134.023438 153.78125 128.664062 155.554688 C 127.601562 155.910156 126.511719 156.074219 125.449219 156.074219 Z M 125.449219 156.074219"/><path fill="#FFF" d="M 160.835938 178.199219 C 155.195312 178.199219 150.613281 173.613281 150.613281 167.960938 L 150.613281 160.457031 C 150.613281 154.804688 155.195312 150.21875 160.835938 150.21875 C 166.480469 150.21875 171.0625 154.804688 171.0625 160.457031 L 171.0625 167.960938 C 171.0625 173.613281 166.480469 178.199219 160.835938 178.199219 Z M 160.835938 178.199219"/><path fill="#FFF" d="M 160.972656 161.164062 C 155.328125 161.164062 150.75 156.578125 150.75 150.929688 L 150.75 141.949219 C 150.75 136.296875 155.328125 131.710938 160.972656 131.710938 C 166.617188 131.710938 171.199219 136.296875 171.199219 141.949219 L 171.199219 150.929688 C 171.199219 156.578125 166.617188 161.164062 160.972656 161.164062 Z M 160.972656 161.164062"/></svg>