<svg xmlns="http://www.w3.org/2000/svg" width="375" viewBox="0 0 375 375" height="375" version="1.0"><defs><clipPath id="a"><path d="M 64 77 L 310.707031 77 L 310.707031 298 L 64 298 Z M 64 77"/></clipPath></defs><g clip-path="url(#a)"><path fill="#FFF" d="M 266.667969 148.925781 C 264.121094 148.046875 261.472656 147.210938 258.742188 146.421875 C 259.195312 144.589844 259.609375 142.785156 259.972656 141.007812 C 265.964844 111.828125 262.050781 88.324219 248.652344 80.585938 C 235.800781 73.164062 214.792969 80.902344 193.574219 99.398438 C 191.535156 101.175781 189.488281 103.058594 187.449219 105.035156 C 186.082031 103.726562 184.726562 102.464844 183.367188 101.257812 C 161.128906 81.480469 138.839844 73.144531 125.457031 80.90625 C 112.621094 88.347656 108.820312 110.445312 114.222656 138.097656 C 114.746094 140.769531 115.355469 143.496094 116.042969 146.269531 C 112.890625 147.167969 109.84375 148.125 106.929688 149.140625 C 80.859375 158.246094 64.210938 172.515625 64.210938 187.320312 C 64.210938 202.601562 82.082031 217.941406 109.238281 227.242188 C 111.378906 227.972656 113.605469 228.667969 115.894531 229.320312 C 115.152344 232.316406 114.503906 235.257812 113.960938 238.128906 C 108.8125 265.300781 112.832031 286.875 125.632812 294.265625 C 138.855469 301.90625 161.042969 294.054688 182.648438 275.140625 C 184.359375 273.644531 186.070312 272.054688 187.785156 270.398438 C 190.015625 272.539062 192.238281 274.570312 194.441406 276.476562 C 215.371094 294.515625 236.042969 301.800781 248.824219 294.390625 C 262.03125 286.730469 266.332031 263.546875 260.753906 235.355469 C 260.328125 233.195312 259.828125 231 259.28125 228.761719 C 260.839844 228.300781 262.367188 227.820312 263.859375 227.328125 C 292.089844 217.953125 310.453125 202.8125 310.453125 187.320312 C 310.453125 172.460938 293.265625 158.097656 266.667969 148.925781 Z M 260.550781 217.324219 C 259.203125 217.769531 257.820312 218.203125 256.414062 218.617188 C 253.296875 208.738281 249.09375 198.226562 243.9375 187.367188 C 248.855469 176.769531 252.894531 166.394531 255.925781 156.578125 C 258.445312 157.308594 260.886719 158.078125 263.246094 158.890625 C 286.03125 166.746094 299.929688 178.367188 299.929688 187.320312 C 299.929688 196.847656 284.925781 209.230469 260.550781 217.324219 Z M 250.433594 237.394531 C 252.902344 249.863281 253.25 261.136719 251.613281 269.957031 C 250.152344 277.875 247.199219 283.15625 243.554688 285.265625 C 235.792969 289.765625 219.199219 283.917969 201.308594 268.492188 C 199.25 266.71875 197.183594 264.828125 195.113281 262.835938 C 202.050781 255.230469 208.984375 246.394531 215.753906 236.578125 C 227.65625 235.527344 238.898438 233.792969 249.105469 231.433594 C 249.605469 233.464844 250.046875 235.449219 250.433594 237.394531 Z M 148.164062 284.484375 C 140.582031 287.175781 134.542969 287.25 130.894531 285.140625 C 123.125 280.652344 119.898438 263.324219 124.300781 240.09375 C 124.804688 237.433594 125.40625 234.699219 126.097656 231.902344 C 136.183594 234.140625 147.351562 235.75 159.28125 236.710938 C 166.097656 246.320312 173.234375 255.144531 180.417969 262.871094 C 178.851562 264.394531 177.285156 265.839844 175.726562 267.199219 C 166.175781 275.574219 156.601562 281.507812 148.164062 284.484375 Z M 112.644531 217.265625 C 100.636719 213.152344 90.722656 207.816406 83.925781 201.976562 C 77.816406 196.742188 74.734375 191.539062 74.734375 187.320312 C 74.734375 178.339844 88.101562 166.878906 110.394531 159.09375 C 113.101562 158.148438 115.933594 157.257812 118.871094 156.421875 C 121.953125 166.460938 125.996094 176.960938 130.875 187.570312 C 125.933594 198.34375 121.832031 209.007812 118.722656 219.175781 C 116.625 218.566406 114.597656 217.933594 112.644531 217.265625 Z M 124.550781 136.074219 C 119.921875 112.382812 122.996094 94.511719 130.730469 90.027344 C 138.96875 85.25 157.183594 92.0625 176.378906 109.140625 C 177.609375 110.230469 178.84375 111.371094 180.082031 112.554688 C 172.925781 120.25 165.855469 129.011719 159.101562 138.558594 C 147.519531 139.636719 136.433594 141.363281 126.242188 143.675781 C 125.601562 141.09375 125.035156 138.554688 124.550781 136.074219 Z M 230.761719 162.347656 C 228.328125 158.132812 225.828125 154.015625 223.277344 150.011719 C 231.136719 151.007812 238.660156 152.328125 245.730469 153.945312 C 243.613281 160.757812 240.96875 167.882812 237.851562 175.1875 C 235.621094 170.9375 233.253906 166.65625 230.761719 162.347656 Z M 187.449219 120.085938 C 192.304688 125.351562 197.164062 131.230469 201.945312 137.609375 C 197.125 137.382812 192.25 137.265625 187.332031 137.265625 C 182.464844 137.265625 177.628906 137.378906 172.835938 137.605469 C 177.617188 131.285156 182.523438 125.414062 187.449219 120.085938 Z M 143.859375 162.421875 C 141.425781 166.648438 139.105469 170.910156 136.90625 175.179688 C 133.84375 167.898438 131.222656 160.742188 129.082031 153.832031 C 136.109375 152.257812 143.601562 150.96875 151.40625 149.996094 C 148.820312 154.035156 146.296875 158.183594 143.859375 162.421875 Z M 151.628906 225.390625 C 143.566406 224.496094 135.960938 223.269531 128.9375 221.738281 C 131.113281 214.703125 133.789062 207.402344 136.917969 199.960938 C 139.121094 204.230469 141.449219 208.488281 143.898438 212.730469 C 146.394531 217.046875 148.980469 221.265625 151.628906 225.390625 Z M 187.738281 255.289062 C 182.753906 249.902344 177.78125 243.9375 172.925781 237.53125 C 177.636719 237.714844 182.445312 237.8125 187.332031 237.8125 C 192.355469 237.8125 197.316406 237.695312 202.195312 237.484375 C 197.402344 244.007812 192.554688 249.980469 187.738281 255.289062 Z M 237.949219 199.585938 C 241.238281 207.101562 244.015625 214.367188 246.21875 221.285156 C 239.082031 222.914062 231.367188 224.222656 223.25 225.207031 C 225.808594 221.152344 228.328125 216.960938 230.808594 212.652344 C 233.320312 208.296875 235.695312 203.933594 237.949219 199.585938 Z M 221.691406 207.390625 C 217.84375 214.078125 213.890625 220.457031 209.878906 226.480469 C 202.578125 227 195.027344 227.269531 187.332031 227.269531 C 179.667969 227.269531 172.210938 227.039062 165.035156 226.566406 C 160.863281 220.464844 156.828125 214.070312 153.003906 207.449219 C 149.1875 200.847656 145.675781 194.191406 142.496094 187.570312 C 145.675781 180.941406 149.179688 174.273438 152.972656 167.683594 L 152.96875 167.6875 C 156.773438 161.082031 160.773438 154.710938 164.910156 148.644531 C 172.230469 148.089844 179.742188 147.800781 187.332031 147.800781 C 194.960938 147.800781 202.472656 148.09375 209.792969 148.652344 C 213.871094 154.671875 217.84375 161.023438 221.664062 167.628906 C 225.519531 174.3125 229.070312 180.929688 232.273438 187.425781 C 229.078125 194.027344 225.539062 200.714844 221.691406 207.390625 Z M 243.390625 89.710938 C 251.644531 94.476562 254.847656 113.683594 249.664062 138.878906 C 249.335938 140.484375 248.960938 142.121094 248.558594 143.78125 C 238.34375 141.417969 227.25 139.664062 215.640625 138.570312 C 208.871094 128.917969 201.859375 120.144531 194.816406 112.546875 C 196.710938 110.722656 198.605469 108.984375 200.480469 107.34375 C 218.660156 91.496094 235.660156 85.238281 243.390625 89.710938 Z M 187.332031 165.289062 C 199.472656 165.289062 209.320312 175.148438 209.320312 187.316406 C 209.320312 199.476562 199.472656 209.34375 187.332031 209.34375 C 175.195312 209.34375 165.34375 199.476562 165.34375 187.316406 C 165.34375 175.148438 175.195312 165.289062 187.332031 165.289062 Z M 187.332031 165.289062"/></g></svg>