<svg xmlns="http://www.w3.org/2000/svg" xmlns:xlink="http://www.w3.org/1999/xlink" width="500" zoomAndPan="magnify" viewBox="0 0 375 374.999991" height="500" preserveAspectRatio="xMidYMid meet" version="1.0"><defs><clipPath id="189b619da2"><path d="M 105.027344 97.019531 L 285.777344 97.019531 L 285.777344 277.769531 L 105.027344 277.769531 Z M 105.027344 97.019531 " clip-rule="nonzero"/></clipPath><clipPath id="8aa05945a9"><path d="M 9.175781 97.019531 L 187.675781 97.019531 L 187.675781 277.769531 L 9.175781 277.769531 Z M 9.175781 97.019531 " clip-rule="nonzero"/></clipPath><clipPath id="103712cc01"><path d="M 218.40625 97.019531 L 371.40625 97.019531 L 371.40625 277.769531 L 218.40625 277.769531 Z M 218.40625 97.019531 " clip-rule="nonzero"/></clipPath></defs><g clip-path="url(#189b619da2)"><path fill="#ff5757" d="M 285.972656 187.496094 C 285.972656 188.976562 285.9375 190.453125 285.863281 191.933594 C 285.792969 193.414062 285.683594 194.890625 285.539062 196.363281 C 285.394531 197.835938 285.210938 199.304688 284.996094 200.769531 C 284.777344 202.234375 284.523438 203.691406 284.234375 205.144531 C 283.945312 206.597656 283.621094 208.042969 283.261719 209.476562 C 282.902344 210.914062 282.507812 212.339844 282.078125 213.757812 C 281.648438 215.175781 281.183594 216.578125 280.683594 217.972656 C 280.1875 219.367188 279.652344 220.75 279.085938 222.117188 C 278.519531 223.484375 277.921875 224.839844 277.289062 226.175781 C 276.652344 227.515625 275.988281 228.835938 275.289062 230.144531 C 274.59375 231.449219 273.863281 232.738281 273.101562 234.007812 C 272.339844 235.277344 271.546875 236.527344 270.726562 237.757812 C 269.902344 238.988281 269.050781 240.199219 268.167969 241.390625 C 267.289062 242.578125 266.375 243.746094 265.4375 244.890625 C 264.496094 246.035156 263.53125 247.15625 262.535156 248.253906 C 261.542969 249.351562 260.523438 250.421875 259.476562 251.46875 C 258.425781 252.515625 257.355469 253.535156 256.257812 254.53125 C 255.160156 255.523438 254.039062 256.492188 252.894531 257.429688 C 251.75 258.371094 250.585938 259.28125 249.394531 260.164062 C 248.207031 261.046875 246.996094 261.898438 245.765625 262.71875 C 244.535156 263.542969 243.28125 264.335938 242.011719 265.097656 C 240.742188 265.855469 239.453125 266.585938 238.148438 267.285156 C 236.84375 267.984375 235.519531 268.648438 234.183594 269.28125 C 232.84375 269.914062 231.492188 270.515625 230.121094 271.082031 C 228.753906 271.648438 227.375 272.179688 225.980469 272.679688 C 224.585938 273.179688 223.179688 273.640625 221.761719 274.070312 C 220.347656 274.5 218.917969 274.898438 217.484375 275.257812 C 216.046875 275.617188 214.601562 275.941406 213.152344 276.230469 C 211.699219 276.519531 210.242188 276.769531 208.777344 276.988281 C 207.3125 277.207031 205.84375 277.386719 204.367188 277.53125 C 202.894531 277.675781 201.417969 277.785156 199.941406 277.859375 C 198.460938 277.929688 196.980469 277.96875 195.5 277.96875 C 194.019531 277.96875 192.539062 277.929688 191.0625 277.859375 C 189.582031 277.785156 188.105469 277.675781 186.632812 277.53125 C 185.160156 277.386719 183.691406 277.207031 182.226562 276.988281 C 180.761719 276.769531 179.300781 276.519531 177.851562 276.230469 C 176.398438 275.941406 174.953125 275.617188 173.515625 275.257812 C 172.082031 274.898438 170.65625 274.5 169.238281 274.070312 C 167.820312 273.640625 166.414062 273.179688 165.019531 272.679688 C 163.625 272.179688 162.246094 271.648438 160.878906 271.082031 C 159.511719 270.515625 158.15625 269.914062 156.816406 269.28125 C 155.480469 268.648438 154.15625 267.984375 152.851562 267.285156 C 151.546875 266.585938 150.257812 265.855469 148.988281 265.097656 C 147.71875 264.335938 146.46875 263.542969 145.234375 262.71875 C 144.003906 261.898438 142.792969 261.046875 141.605469 260.164062 C 140.417969 259.28125 139.25 258.371094 138.105469 257.429688 C 136.960938 256.492188 135.839844 255.523438 134.742188 254.53125 C 133.644531 253.535156 132.574219 252.515625 131.527344 251.46875 C 130.480469 250.421875 129.457031 249.351562 128.464844 248.253906 C 127.46875 247.15625 126.503906 246.035156 125.5625 244.890625 C 124.625 243.746094 123.714844 242.578125 122.832031 241.390625 C 121.949219 240.199219 121.097656 238.988281 120.273438 237.757812 C 119.453125 236.527344 118.660156 235.277344 117.898438 234.007812 C 117.136719 232.738281 116.40625 231.449219 115.710938 230.144531 C 115.011719 228.835938 114.347656 227.515625 113.714844 226.175781 C 113.082031 224.839844 112.480469 223.484375 111.914062 222.117188 C 111.347656 220.75 110.816406 219.367188 110.316406 217.972656 C 109.816406 216.578125 109.351562 215.175781 108.921875 213.757812 C 108.492188 212.339844 108.097656 210.914062 107.738281 209.476562 C 107.378906 208.042969 107.054688 206.597656 106.765625 205.144531 C 106.476562 203.691406 106.222656 202.234375 106.007812 200.769531 C 105.789062 199.304688 105.609375 197.835938 105.460938 196.363281 C 105.316406 194.890625 105.207031 193.414062 105.136719 191.933594 C 105.0625 190.453125 105.027344 188.976562 105.027344 187.496094 C 105.027344 186.015625 105.0625 184.535156 105.136719 183.054688 C 105.207031 181.578125 105.316406 180.101562 105.460938 178.625 C 105.609375 177.152344 105.789062 175.683594 106.007812 174.21875 C 106.222656 172.753906 106.476562 171.296875 106.765625 169.84375 C 107.054688 168.390625 107.378906 166.949219 107.738281 165.511719 C 108.097656 164.074219 108.492188 162.648438 108.921875 161.230469 C 109.351562 159.816406 109.816406 158.410156 110.316406 157.015625 C 110.816406 155.621094 111.347656 154.238281 111.914062 152.871094 C 112.480469 151.503906 113.082031 150.152344 113.714844 148.8125 C 114.347656 147.472656 115.011719 146.152344 115.710938 144.847656 C 116.40625 143.539062 117.136719 142.253906 117.898438 140.980469 C 118.660156 139.710938 119.453125 138.460938 120.273438 137.230469 C 121.097656 136 121.949219 134.789062 122.832031 133.601562 C 123.714844 132.410156 124.625 131.242188 125.5625 130.097656 C 126.503906 128.953125 127.46875 127.832031 128.464844 126.738281 C 129.457031 125.640625 130.480469 124.566406 131.527344 123.519531 C 132.574219 122.472656 133.644531 121.453125 134.742188 120.457031 C 135.839844 119.464844 136.960938 118.496094 138.105469 117.558594 C 139.25 116.617188 140.417969 115.707031 141.605469 114.824219 C 142.792969 113.945312 144.003906 113.089844 145.234375 112.269531 C 146.46875 111.445312 147.71875 110.652344 148.988281 109.894531 C 150.257812 109.132812 151.546875 108.402344 152.851562 107.703125 C 154.15625 107.007812 155.480469 106.339844 156.816406 105.707031 C 158.15625 105.074219 159.511719 104.476562 160.878906 103.90625 C 162.246094 103.339844 163.625 102.808594 165.019531 102.308594 C 166.414062 101.8125 167.820312 101.347656 169.238281 100.917969 C 170.65625 100.488281 172.082031 100.09375 173.515625 99.734375 C 174.953125 99.371094 176.398438 99.046875 177.851562 98.757812 C 179.300781 98.472656 180.761719 98.21875 182.226562 98 C 183.691406 97.785156 185.160156 97.601562 186.632812 97.457031 C 188.105469 97.3125 189.582031 97.203125 191.0625 97.128906 C 192.539062 97.058594 194.019531 97.019531 195.5 97.019531 C 196.980469 97.019531 198.460938 97.058594 199.941406 97.128906 C 201.417969 97.203125 202.894531 97.3125 204.367188 97.457031 C 205.84375 97.601562 207.3125 97.785156 208.777344 98 C 210.242188 98.21875 211.699219 98.472656 213.152344 98.757812 C 214.601562 99.046875 216.046875 99.371094 217.484375 99.734375 C 218.917969 100.09375 220.347656 100.488281 221.761719 100.917969 C 223.179688 101.347656 224.585938 101.8125 225.980469 102.308594 C 227.375 102.808594 228.753906 103.339844 230.121094 103.90625 C 231.492188 104.476562 232.84375 105.074219 234.183594 105.707031 C 235.519531 106.339844 236.84375 107.007812 238.148438 107.703125 C 239.453125 108.402344 240.742188 109.132812 242.011719 109.894531 C 243.28125 110.652344 244.535156 111.445312 245.765625 112.269531 C 246.996094 113.089844 248.207031 113.945312 249.394531 114.824219 C 250.585938 115.707031 251.75 116.617188 252.894531 117.558594 C 254.039062 118.496094 255.160156 119.464844 256.257812 120.457031 C 257.355469 121.453125 258.425781 122.472656 259.476562 123.519531 C 260.523438 124.566406 261.542969 125.640625 262.535156 126.738281 C 263.53125 127.832031 264.496094 128.953125 265.4375 130.097656 C 266.375 131.242188 267.289062 132.410156 268.167969 133.601562 C 269.050781 134.789062 269.902344 136 270.726562 137.230469 C 271.546875 138.460938 272.339844 139.710938 273.101562 140.980469 C 273.863281 142.253906 274.59375 143.539062 275.289062 144.847656 C 275.988281 146.152344 276.652344 147.472656 277.289062 148.8125 C 277.921875 150.152344 278.519531 151.503906 279.085938 152.871094 C 279.652344 154.238281 280.1875 155.621094 280.683594 157.015625 C 281.183594 158.410156 281.648438 159.816406 282.078125 161.230469 C 282.507812 162.648438 282.902344 164.074219 283.261719 165.511719 C 283.621094 166.949219 283.945312 168.390625 284.234375 169.84375 C 284.523438 171.296875 284.777344 172.753906 284.996094 174.21875 C 285.210938 175.683594 285.394531 177.152344 285.539062 178.625 C 285.683594 180.101562 285.792969 181.578125 285.863281 183.054688 C 285.9375 184.535156 285.972656 186.015625 285.972656 187.496094 Z M 285.972656 187.496094 " fill-opacity="1" fill-rule="nonzero"/></g><g clip-path="url(#8aa05945a9)"><path fill="#ffffff" d="M 132.488281 221.914062 L 187.527344 276.941406 C 187.707031 277.121094 187.746094 277.332031 187.652344 277.566406 C 187.554688 277.804688 187.378906 277.921875 187.121094 277.925781 C 158.824219 277.40625 133.730469 268.742188 111.839844 251.9375 C 106.140625 247.574219 98.949219 240.972656 90.261719 232.132812 C 77.589844 219.246094 64.59375 206.222656 51.273438 193.066406 C 50.285156 192.082031 50.488281 191.582031 51.882812 191.574219 C 66.015625 191.457031 80.609375 191.476562 95.660156 191.632812 C 103.03125 191.707031 108.753906 190.914062 112.828125 189.25 C 136.742188 179.515625 137.304688 147.113281 113.640625 136.417969 C 110.242188 134.878906 105.484375 134.117188 99.359375 134.125 C 83.175781 134.152344 66.550781 134.222656 49.488281 134.328125 C 43.335938 134.367188 38.144531 133.640625 33.917969 132.152344 C 19.21875 126.972656 9.699219 113.664062 9.175781 97.992188 C 9.171875 97.78125 9.242188 97.601562 9.386719 97.449219 C 9.53125 97.300781 9.710938 97.222656 9.917969 97.222656 C 40.03125 97.398438 67.910156 97.378906 93.554688 97.167969 C 104.894531 97.070312 113.496094 97.816406 119.355469 99.402344 C 154.398438 108.847656 175.917969 145.691406 165.472656 180.75 C 160.210938 198.421875 149.253906 211.84375 132.605469 221.015625 C 132.527344 221.058594 132.464844 221.117188 132.414062 221.191406 C 132.363281 221.265625 132.332031 221.347656 132.320312 221.4375 C 132.308594 221.523438 132.320312 221.613281 132.347656 221.695312 C 132.378906 221.78125 132.425781 221.851562 132.488281 221.914062 Z M 132.488281 221.914062 " fill-opacity="1" fill-rule="nonzero"/></g><g clip-path="url(#103712cc01)"><path fill="#ffffff" d="M 218.414062 277.859375 L 218.414062 164.277344 L 295.394531 164.277344 L 326.304688 210.628906 L 264.773438 210.628906 L 264.773438 277.859375 Z M 266.199219 143.464844 L 235.347656 97.113281 L 340.222656 97.113281 L 371.074219 143.464844 Z M 266.199219 143.464844 " fill-opacity="1" fill-rule="nonzero"/></g></svg>