<svg xmlns="http://www.w3.org/2000/svg" xmlns:xlink="http://www.w3.org/1999/xlink" width="375" viewBox="0 0 375 375" height="375" version="1.0"><defs><clipPath id="a"><path d="M 187 144 L 254 144 L 254 260 L 187 260 Z M 187 144"/></clipPath><clipPath id="b"><path d="M 187.59375 172.226562 L 253.074219 144.613281 L 252.792969 230.75 L 248.300781 234.957031 L 187.59375 259.976562 Z M 187.59375 172.226562"/></clipPath><clipPath id="d"><path d="M 118.21875 112.5 L 256.96875 112.5 L 256.96875 262.5 L 118.21875 262.5 Z M 118.21875 112.5"/></clipPath><clipPath id="e"><path d="M 248.003906 137.871094 L 193.328125 114.128906 C 189.679688 112.546875 185.5 112.546875 181.863281 114.128906 L 127.179688 137.871094 C 121.929688 140.152344 118.535156 145.320312 118.535156 151.039062 L 118.535156 225.058594 C 118.535156 230.777344 121.929688 235.945312 127.183594 238.226562 L 179.558594 260.96875 C 182.113281 262.078125 184.855469 262.632812 187.59375 262.632812 C 190.332031 262.632812 193.074219 262.078125 195.628906 260.96875 L 248.007812 238.226562 C 253.257812 235.945312 256.652344 230.777344 256.652344 225.058594 L 256.652344 151.039062 C 256.652344 145.320312 253.257812 140.152344 248.003906 137.871094 Z M 213.492188 215.175781 L 213.492188 197.011719 C 213.492188 195.855469 214.179688 194.816406 215.246094 194.363281 L 226.753906 189.5 C 228.65625 188.695312 230.753906 190.085938 230.753906 192.144531 L 230.753906 210.308594 C 230.753906 211.464844 230.066406 212.503906 229 212.957031 L 217.492188 217.820312 C 215.589844 218.625 213.492188 217.234375 213.492188 215.175781 Z M 230.753906 222.789062 L 230.753906 237.566406 C 230.753906 238.710938 230.078125 239.746094 229.027344 240.199219 L 217.515625 245.199219 C 215.613281 246.027344 213.492188 244.636719 213.492188 242.5625 L 213.492188 227.65625 C 213.492188 226.5 214.179688 225.460938 215.246094 225.007812 L 226.753906 220.144531 C 228.65625 219.34375 230.753906 220.734375 230.753906 222.789062 Z M 144.417969 210.300781 L 144.417969 192.132812 C 144.417969 190.074219 146.519531 188.683594 148.417969 189.484375 L 159.925781 194.351562 C 160.992188 194.800781 161.683594 195.84375 161.683594 196.996094 L 161.683594 215.164062 C 161.683594 217.222656 159.578125 218.613281 157.683594 217.808594 L 146.171875 212.945312 C 145.109375 212.496094 144.417969 211.453125 144.417969 210.300781 Z M 161.683594 227.648438 L 161.683594 242.558594 C 161.683594 244.625 159.558594 246.015625 157.65625 245.191406 L 146.148438 240.195312 C 145.097656 239.738281 144.417969 238.703125 144.417969 237.558594 L 144.417969 222.78125 C 144.417969 220.722656 146.519531 219.332031 148.417969 220.136719 L 159.925781 225 C 160.992188 225.449219 161.683594 226.492188 161.683594 227.648438 Z M 128.289062 180.976562 L 136.90625 184.621094 C 137.972656 185.070312 138.664062 186.113281 138.664062 187.265625 L 138.664062 205.433594 C 138.664062 207.492188 136.558594 208.882812 134.664062 208.082031 L 126.046875 204.4375 C 124.980469 203.984375 124.289062 202.941406 124.289062 201.789062 L 124.289062 183.625 C 124.289062 181.566406 126.390625 180.175781 128.289062 180.976562 Z M 169.679688 128.671875 L 177.328125 131.996094 C 178.484375 132.496094 178.484375 134.128906 177.328125 134.628906 L 169.597656 137.988281 C 167.402344 138.941406 164.910156 138.941406 162.714844 137.988281 L 155.0625 134.667969 C 153.910156 134.167969 153.910156 132.53125 155.0625 132.03125 L 162.796875 128.675781 C 164.992188 127.722656 167.484375 127.722656 169.679688 128.671875 Z M 191.023438 137.941406 L 198.757812 141.300781 C 199.914062 141.800781 199.914062 143.433594 198.757812 143.933594 L 191.023438 147.292969 C 188.828125 148.246094 186.335938 148.246094 184.140625 147.292969 L 176.40625 143.933594 C 175.253906 143.433594 175.253906 141.800781 176.40625 141.300781 L 184.136719 137.941406 C 186.332031 136.984375 188.828125 136.984375 191.023438 137.941406 Z M 212.351562 128.65625 L 220.109375 132.027344 C 221.261719 132.527344 221.261719 134.160156 220.109375 134.660156 L 212.449219 137.984375 C 210.253906 138.941406 207.761719 138.941406 205.566406 137.984375 L 197.828125 134.625 C 196.675781 134.125 196.675781 132.492188 197.828125 131.992188 C 197.828125 131.992188 202.207031 130.082031 205.453125 128.660156 C 207.65625 127.699219 210.148438 127.699219 212.351562 128.65625 Z M 184.714844 175.699219 L 184.714844 194.253906 C 184.714844 196.3125 182.617188 197.703125 180.714844 196.902344 L 169.191406 192.03125 C 168.128906 191.582031 167.4375 190.539062 167.4375 189.386719 L 167.4375 170.929688 C 167.4375 168.878906 169.523438 167.488281 171.417969 168.273438 L 182.941406 173.046875 C 184.015625 173.488281 184.714844 174.539062 184.714844 175.699219 Z M 174.433594 160.761719 L 184.144531 156.546875 C 186.339844 155.59375 188.832031 155.59375 191.027344 156.546875 L 200.742188 160.765625 C 201.898438 161.265625 201.898438 162.898438 200.742188 163.398438 L 191.03125 167.617188 C 188.835938 168.570312 186.34375 168.570312 184.152344 167.617188 L 174.433594 163.398438 C 173.28125 162.898438 173.28125 161.261719 174.433594 160.761719 Z M 192.246094 173.042969 L 203.757812 168.277344 C 205.648438 167.492188 207.734375 168.882812 207.734375 170.929688 L 207.734375 189.394531 C 207.734375 190.550781 207.046875 191.589844 205.980469 192.039062 L 194.472656 196.90625 C 192.574219 197.710938 190.472656 196.320312 190.472656 194.261719 L 190.472656 175.699219 C 190.472656 174.539062 191.171875 173.488281 192.246094 173.042969 Z M 215.21875 163.378906 L 226.730469 158.382812 C 228.632812 157.554688 230.753906 158.945312 230.753906 161.015625 L 230.753906 179.660156 C 230.753906 180.816406 230.066406 181.855469 229 182.308594 L 217.492188 187.171875 C 215.59375 187.976562 213.492188 186.585938 213.492188 184.527344 L 213.492188 166.015625 C 213.492188 164.871094 214.167969 163.832031 215.21875 163.378906 Z M 207.550781 157.453125 L 197.832031 153.234375 C 196.679688 152.734375 196.679688 151.101562 197.832031 150.601562 L 205.566406 147.242188 C 207.761719 146.289062 210.253906 146.289062 212.449219 147.242188 L 222.167969 151.460938 C 223.324219 151.960938 223.324219 153.59375 222.167969 154.09375 L 214.433594 157.453125 C 212.238281 158.40625 209.746094 158.40625 207.550781 157.453125 Z M 177.332031 153.234375 L 167.625 157.449219 C 165.429688 158.40625 162.9375 158.40625 160.742188 157.449219 L 153.007812 154.09375 C 151.851562 153.59375 151.851562 151.957031 153.007812 151.457031 L 162.714844 147.242188 C 164.910156 146.289062 167.402344 146.289062 169.597656 147.242188 L 177.332031 150.601562 C 178.488281 151.101562 178.488281 152.734375 177.332031 153.234375 Z M 161.683594 166.007812 L 161.683594 184.515625 C 161.683594 186.574219 159.582031 187.964844 157.683594 187.164062 L 146.171875 182.296875 C 145.109375 181.847656 144.417969 180.808594 144.417969 179.652344 L 144.417969 161.015625 C 144.417969 158.945312 146.542969 157.554688 148.441406 158.378906 L 159.953125 163.375 C 161.003906 163.832031 161.683594 164.863281 161.683594 166.007812 Z M 171.4375 199.21875 L 182.960938 204.089844 C 184.027344 204.539062 184.714844 205.582031 184.714844 206.734375 L 184.714844 224.902344 C 184.714844 226.960938 182.613281 228.351562 180.714844 227.550781 L 169.191406 222.679688 C 168.128906 222.226562 167.4375 221.1875 167.4375 220.03125 L 167.4375 201.863281 C 167.4375 199.808594 169.539062 198.417969 171.4375 199.21875 Z M 192.226562 204.09375 L 203.734375 199.230469 C 205.636719 198.429688 207.734375 199.820312 207.734375 201.875 L 207.734375 220.039062 C 207.734375 221.195312 207.046875 222.234375 205.980469 222.6875 L 194.472656 227.550781 C 192.570312 228.355469 190.472656 226.964844 190.472656 224.90625 L 190.472656 206.746094 C 190.472656 205.589844 191.160156 204.546875 192.226562 204.09375 Z M 238.265625 184.632812 L 246.898438 180.984375 C 248.796875 180.179688 250.898438 181.570312 250.898438 183.625 L 250.898438 201.792969 C 250.898438 202.949219 250.207031 203.988281 249.140625 204.441406 L 240.511719 208.089844 C 238.609375 208.890625 236.511719 207.5 236.511719 205.441406 L 236.511719 187.277344 C 236.511719 186.125 237.199219 185.082031 238.265625 184.632812 Z M 250.898438 152.265625 L 250.898438 171.148438 C 250.898438 172.300781 250.207031 173.34375 249.140625 173.792969 L 240.511719 177.441406 C 238.609375 178.246094 236.511719 176.851562 236.511719 174.796875 L 236.511719 156.015625 C 236.511719 154.875 237.191406 153.839844 238.238281 153.382812 L 246.871094 149.628906 C 248.769531 148.804688 250.898438 150.195312 250.898438 152.265625 Z M 243.523438 144.828125 L 235.863281 148.152344 C 233.667969 149.105469 231.175781 149.105469 228.980469 148.152344 L 219.257812 143.929688 C 218.101562 143.429688 218.101562 141.796875 219.257812 141.296875 L 226.914062 137.972656 C 229.109375 137.015625 231.605469 137.015625 233.800781 137.972656 L 243.519531 142.191406 C 244.675781 142.691406 244.675781 144.324219 243.523438 144.828125 Z M 184.15625 119.398438 C 185.25 118.925781 186.421875 118.6875 187.59375 118.6875 C 188.765625 118.6875 189.9375 118.925781 191.03125 119.398438 L 198.683594 122.722656 C 199.835938 123.222656 199.835938 124.855469 198.683594 125.355469 L 191.023438 128.683594 C 188.828125 129.636719 186.335938 129.636719 184.140625 128.683594 L 176.492188 125.363281 C 175.339844 124.863281 175.339844 123.230469 176.492188 122.730469 Z M 131.660156 142.191406 L 141.371094 137.972656 C 143.566406 137.019531 146.058594 137.019531 148.253906 137.972656 L 155.90625 141.296875 C 157.0625 141.796875 157.0625 143.429688 155.90625 143.929688 L 146.199219 148.148438 C 144.003906 149.101562 141.511719 149.101562 139.316406 148.148438 L 131.660156 144.824219 C 130.507812 144.324219 130.507812 142.691406 131.660156 142.191406 Z M 128.308594 149.671875 L 136.925781 153.382812 C 137.980469 153.835938 138.664062 154.875 138.664062 156.019531 L 138.664062 174.785156 C 138.664062 176.84375 136.5625 178.234375 134.664062 177.429688 L 126.046875 173.789062 C 124.980469 173.339844 124.289062 172.296875 124.289062 171.140625 L 124.289062 152.308594 C 124.289062 150.246094 126.40625 148.855469 128.308594 149.671875 Z M 124.289062 225.054688 L 124.289062 214.269531 C 124.289062 212.210938 126.394531 210.820312 128.289062 211.625 L 136.90625 215.265625 C 137.972656 215.71875 138.664062 216.757812 138.664062 217.914062 L 138.664062 232.5625 C 138.664062 234.632812 136.539062 236.023438 134.636719 235.199219 L 129.476562 232.957031 C 126.328125 231.589844 124.289062 228.484375 124.289062 225.054688 Z M 180.761719 255.046875 C 177.105469 253.542969 171.871094 251.324219 169.179688 250.179688 C 168.121094 249.730469 167.4375 248.691406 167.4375 247.539062 L 167.4375 232.515625 C 167.4375 230.457031 169.539062 229.066406 171.4375 229.867188 L 182.960938 234.738281 C 184.027344 235.191406 184.714844 236.230469 184.714844 237.386719 L 184.714844 252.378906 C 184.714844 254.425781 182.652344 255.824219 180.761719 255.046875 Z M 194.425781 255.046875 C 192.535156 255.824219 190.472656 254.425781 190.472656 252.382812 L 190.472656 237.386719 C 190.472656 236.234375 191.160156 235.191406 192.226562 234.742188 L 203.734375 229.875 C 205.636719 229.074219 207.734375 230.464844 207.734375 232.523438 L 207.734375 247.546875 C 207.734375 248.699219 207.054688 249.734375 205.992188 250.1875 C 203.304688 251.332031 198.078125 253.542969 194.425781 255.046875 Z M 245.710938 232.957031 L 240.535156 235.203125 C 238.632812 236.03125 236.511719 234.636719 236.511719 232.570312 L 236.511719 217.921875 C 236.511719 216.765625 237.199219 215.726562 238.265625 215.277344 L 246.898438 211.625 C 248.796875 210.828125 250.898438 212.21875 250.898438 214.277344 L 250.898438 225.058594 C 250.898438 228.488281 248.859375 231.589844 245.710938 232.957031 Z M 245.710938 232.957031"/></clipPath><linearGradient x1="43.378" gradientTransform="matrix(2.87745 0 0 2.87356 95.515 95.833)" xmlns:xlink="http://www.w3.org/1999/xlink" y1="16.976" x2="43.378" gradientUnits="userSpaceOnUse" y2="57.122" xlink:type="simple" xlink:actuate="onLoad" id="c" xlink:show="other"><stop stop-color="#6DC7FF" offset="0"/><stop stop-color="#6DC7FF" offset=".008"/><stop stop-color="#6EC7FF" offset=".016"/><stop stop-color="#6FC6FF" offset=".023"/><stop stop-color="#70C6FF" offset=".031"/><stop stop-color="#71C6FF" offset=".039"/><stop stop-color="#72C6FF" offset=".047"/><stop stop-color="#73C5FF" offset=".055"/><stop stop-color="#74C5FF" offset=".063"/><stop stop-color="#75C5FF" offset=".07"/><stop stop-color="#76C5FF" offset=".078"/><stop stop-color="#77C5FF" offset=".086"/><stop stop-color="#78C4FF" offset=".094"/><stop stop-color="#79C4FF" offset=".102"/><stop stop-color="#7AC4FF" offset=".109"/><stop stop-color="#7BC4FF" offset=".117"/><stop stop-color="#7CC4FF" offset=".125"/><stop stop-color="#7CC3FF" offset=".133"/><stop stop-color="#7DC3FF" offset=".141"/><stop stop-color="#7EC3FF" offset=".148"/><stop stop-color="#7FC3FF" offset=".156"/><stop stop-color="#80C2FF" offset=".164"/><stop stop-color="#81C2FF" offset=".172"/><stop stop-color="#82C2FF" offset=".18"/><stop stop-color="#83C2FF" offset=".188"/><stop stop-color="#84C2FF" offset=".195"/><stop stop-color="#85C1FF" offset=".203"/><stop stop-color="#86C1FF" offset=".211"/><stop stop-color="#87C1FF" offset=".219"/><stop stop-color="#88C1FF" offset=".227"/><stop stop-color="#89C0FF" offset=".234"/><stop stop-color="#8AC0FF" offset=".242"/><stop stop-color="#8BC0FF" offset=".25"/><stop stop-color="#8CC0FF" offset=".258"/><stop stop-color="#8DC0FF" offset=".266"/><stop stop-color="#8EBFFF" offset=".273"/><stop stop-color="#8EBFFF" offset=".281"/><stop stop-color="#8FBFFF" offset=".289"/><stop stop-color="#90BFFF" offset=".297"/><stop stop-color="#91BFFF" offset=".305"/><stop stop-color="#92BEFF" offset=".313"/><stop stop-color="#93BEFF" offset=".32"/><stop stop-color="#94BEFF" offset=".328"/><stop stop-color="#95BEFF" offset=".336"/><stop stop-color="#96BDFF" offset=".344"/><stop stop-color="#97BDFF" offset=".352"/><stop stop-color="#98BDFF" offset=".359"/><stop stop-color="#99BDFF" offset=".367"/><stop stop-color="#9ABDFF" offset=".375"/><stop stop-color="#9BBCFF" offset=".383"/><stop stop-color="#9CBCFF" offset=".391"/><stop stop-color="#9DBCFF" offset=".398"/><stop stop-color="#9EBCFF" offset=".406"/><stop stop-color="#9FBBFF" offset=".414"/><stop stop-color="#A0BBFF" offset=".422"/><stop stop-color="#A0BBFF" offset=".43"/><stop stop-color="#A1BBFF" offset=".438"/><stop stop-color="#A2BBFF" offset=".445"/><stop stop-color="#A3BAFF" offset=".453"/><stop stop-color="#A4BAFF" offset=".461"/><stop stop-color="#A5BAFF" offset=".469"/><stop stop-color="#A6BAFF" offset=".477"/><stop stop-color="#A7BAFF" offset=".484"/><stop stop-color="#A8B9FF" offset=".492"/><stop stop-color="#A9B9FF" offset=".5"/><stop stop-color="#AAB9FF" offset=".508"/><stop stop-color="#ABB9FF" offset=".516"/><stop stop-color="#ACB8FF" offset=".523"/><stop stop-color="#ADB8FF" offset=".531"/><stop stop-color="#AEB8FF" offset=".539"/><stop stop-color="#AFB8FF" offset=".547"/><stop stop-color="#B0B8FF" offset=".555"/><stop stop-color="#B1B7FF" offset=".563"/><stop stop-color="#B1B7FF" offset=".57"/><stop stop-color="#B2B7FF" offset=".578"/><stop stop-color="#B3B7FF" offset=".586"/><stop stop-color="#B4B7FF" offset=".594"/><stop stop-color="#B5B6FF" offset=".602"/><stop stop-color="#B6B6FF" offset=".609"/><stop stop-color="#B7B6FF" offset=".617"/><stop stop-color="#B8B6FF" offset=".625"/><stop stop-color="#B9B5FF" offset=".633"/><stop stop-color="#BAB5FF" offset=".641"/><stop stop-color="#BBB5FF" offset=".648"/><stop stop-color="#BCB5FF" offset=".656"/><stop stop-color="#BDB5FF" offset=".664"/><stop stop-color="#BEB4FF" offset=".672"/><stop stop-color="#BFB4FF" offset=".68"/><stop stop-color="#C0B4FF" offset=".688"/><stop stop-color="#C1B4FF" offset=".695"/><stop stop-color="#C2B3FF" offset=".703"/><stop stop-color="#C3B3FF" offset=".711"/><stop stop-color="#C3B3FF" offset=".719"/><stop stop-color="#C4B3FF" offset=".727"/><stop stop-color="#C5B3FF" offset=".734"/><stop stop-color="#C6B2FF" offset=".742"/><stop stop-color="#C7B2FF" offset=".75"/><stop stop-color="#C8B2FF" offset=".758"/><stop stop-color="#C9B2FF" offset=".766"/><stop stop-color="#CAB2FF" offset=".773"/><stop stop-color="#CBB1FF" offset=".781"/><stop stop-color="#CCB1FF" offset=".789"/><stop stop-color="#CDB1FF" offset=".797"/><stop stop-color="#CEB1FF" offset=".805"/><stop stop-color="#CFB0FF" offset=".813"/><stop stop-color="#D0B0FF" offset=".82"/><stop stop-color="#D1B0FF" offset=".828"/><stop stop-color="#D2B0FF" offset=".836"/><stop stop-color="#D3B0FF" offset=".844"/><stop stop-color="#D4AFFF" offset=".852"/><stop stop-color="#D4AFFF" offset=".859"/><stop stop-color="#D5AFFF" offset=".867"/><stop stop-color="#D6AFFF" offset=".875"/><stop stop-color="#D7AEFF" offset=".883"/><stop stop-color="#D8AEFF" offset=".891"/><stop stop-color="#D9AEFF" offset=".898"/><stop stop-color="#DAAEFF" offset=".906"/><stop stop-color="#DBAEFF" offset=".914"/><stop stop-color="#DCADFF" offset=".922"/><stop stop-color="#DDADFF" offset=".93"/><stop stop-color="#DEADFF" offset=".938"/><stop stop-color="#DFADFF" offset=".945"/><stop stop-color="#E0ADFF" offset=".953"/><stop stop-color="#E1ACFF" offset=".961"/><stop stop-color="#E2ACFF" offset=".969"/><stop stop-color="#E3ACFF" offset=".977"/><stop stop-color="#E4ACFF" offset=".984"/><stop stop-color="#E5ABFF" offset=".992"/><stop stop-color="#E6ABFF" offset="1"/></linearGradient><linearGradient x1="32" gradientTransform="matrix(2.87745 0 0 2.87356 95.515 95.833)" xmlns:xlink="http://www.w3.org/1999/xlink" y1="5.816" x2="32" gradientUnits="userSpaceOnUse" y2="58" xlink:type="simple" xlink:actuate="onLoad" id="f" xlink:show="other"><stop stop-color="#1A6DFF" offset="0"/><stop stop-color="#1A6DFF" offset=".008"/><stop stop-color="#1C6CFF" offset=".012"/><stop stop-color="#1C6CFF" offset=".016"/><stop stop-color="#1D6CFF" offset=".02"/><stop stop-color="#1E6BFF" offset=".023"/><stop stop-color="#1E6BFF" offset=".027"/><stop stop-color="#1F6BFF" offset=".031"/><stop stop-color="#206AFF" offset=".035"/><stop stop-color="#206AFF" offset=".039"/><stop stop-color="#216AFF" offset=".043"/><stop stop-color="#226AFF" offset=".047"/><stop stop-color="#2269FF" offset=".051"/><stop stop-color="#2369FF" offset=".055"/><stop stop-color="#2469FF" offset=".059"/><stop stop-color="#2468FF" offset=".063"/><stop stop-color="#2568FF" offset=".066"/><stop stop-color="#2668FF" offset=".07"/><stop stop-color="#2668FF" offset=".074"/><stop stop-color="#2767FF" offset=".078"/><stop stop-color="#2867FF" offset=".082"/><stop stop-color="#2967FF" offset=".086"/><stop stop-color="#2966FF" offset=".09"/><stop stop-color="#2A66FF" offset=".094"/><stop stop-color="#2B66FF" offset=".098"/><stop stop-color="#2B65FF" offset=".102"/><stop stop-color="#2C65FF" offset=".105"/><stop stop-color="#2D65FF" offset=".109"/><stop stop-color="#2D65FF" offset=".113"/><stop stop-color="#2E64FF" offset=".117"/><stop stop-color="#2F64FF" offset=".121"/><stop stop-color="#2F64FF" offset=".125"/><stop stop-color="#3063FF" offset=".129"/><stop stop-color="#3163FF" offset=".133"/><stop stop-color="#3163FF" offset=".137"/><stop stop-color="#3263FF" offset=".141"/><stop stop-color="#3362FF" offset=".145"/><stop stop-color="#3362FF" offset=".148"/><stop stop-color="#3462FF" offset=".152"/><stop stop-color="#3561FF" offset=".156"/><stop stop-color="#3561FF" offset=".16"/><stop stop-color="#3661FF" offset=".164"/><stop stop-color="#3760FF" offset=".168"/><stop stop-color="#3760FF" offset=".172"/><stop stop-color="#3860FF" offset=".176"/><stop stop-color="#3960FF" offset=".18"/><stop stop-color="#3A5FFF" offset=".184"/><stop stop-color="#3A5FFF" offset=".188"/><stop stop-color="#3B5FFF" offset=".191"/><stop stop-color="#3C5EFF" offset=".195"/><stop stop-color="#3C5EFF" offset=".199"/><stop stop-color="#3D5EFF" offset=".203"/><stop stop-color="#3E5EFF" offset=".207"/><stop stop-color="#3E5DFF" offset=".211"/><stop stop-color="#3F5DFF" offset=".215"/><stop stop-color="#405DFF" offset=".219"/><stop stop-color="#405CFF" offset=".223"/><stop stop-color="#415CFF" offset=".227"/><stop stop-color="#425CFF" offset=".23"/><stop stop-color="#425BFF" offset=".234"/><stop stop-color="#435BFF" offset=".238"/><stop stop-color="#445BFF" offset=".242"/><stop stop-color="#445BFF" offset=".246"/><stop stop-color="#455AFF" offset=".25"/><stop stop-color="#465AFF" offset=".254"/><stop stop-color="#465AFF" offset=".258"/><stop stop-color="#4759FF" offset=".262"/><stop stop-color="#4859FF" offset=".266"/><stop stop-color="#4959FF" offset=".27"/><stop stop-color="#4959FF" offset=".273"/><stop stop-color="#4A58FF" offset=".277"/><stop stop-color="#4B58FF" offset=".281"/><stop stop-color="#4B58FF" offset=".285"/><stop stop-color="#4C57FF" offset=".289"/><stop stop-color="#4D57FF" offset=".293"/><stop stop-color="#4D57FF" offset=".297"/><stop stop-color="#4E56FF" offset=".301"/><stop stop-color="#4F56FF" offset=".305"/><stop stop-color="#4F56FF" offset=".309"/><stop stop-color="#5056FF" offset=".313"/><stop stop-color="#5155FF" offset=".316"/><stop stop-color="#5155FF" offset=".32"/><stop stop-color="#5255FF" offset=".324"/><stop stop-color="#5354FF" offset=".328"/><stop stop-color="#5354FF" offset=".332"/><stop stop-color="#5454FF" offset=".336"/><stop stop-color="#5554FF" offset=".34"/><stop stop-color="#5553FF" offset=".344"/><stop stop-color="#5653FF" offset=".348"/><stop stop-color="#5753FF" offset=".352"/><stop stop-color="#5752FF" offset=".355"/><stop stop-color="#5852FF" offset=".359"/><stop stop-color="#5952FF" offset=".363"/><stop stop-color="#5A52FF" offset=".367"/><stop stop-color="#5A51FF" offset=".371"/><stop stop-color="#5B51FF" offset=".375"/><stop stop-color="#5C51FF" offset=".379"/><stop stop-color="#5C50FF" offset=".383"/><stop stop-color="#5D50FF" offset=".387"/><stop stop-color="#5E50FF" offset=".391"/><stop stop-color="#5E4FFF" offset=".395"/><stop stop-color="#5F4FFF" offset=".398"/><stop stop-color="#604FFF" offset=".402"/><stop stop-color="#604FFF" offset=".406"/><stop stop-color="#614EFF" offset=".41"/><stop stop-color="#624EFF" offset=".414"/><stop stop-color="#624EFF" offset=".418"/><stop stop-color="#634DFF" offset=".422"/><stop stop-color="#644DFF" offset=".426"/><stop stop-color="#644DFF" offset=".43"/><stop stop-color="#654DFF" offset=".434"/><stop stop-color="#664CFF" offset=".438"/><stop stop-color="#664CFF" offset=".441"/><stop stop-color="#674CFF" offset=".445"/><stop stop-color="#684BFF" offset=".449"/><stop stop-color="#684BFF" offset=".453"/><stop stop-color="#694BFF" offset=".457"/><stop stop-color="#6A4AFF" offset=".461"/><stop stop-color="#6B4AFF" offset=".465"/><stop stop-color="#6B4AFF" offset=".469"/><stop stop-color="#6C4AFF" offset=".473"/><stop stop-color="#6D49FF" offset=".477"/><stop stop-color="#6D49FF" offset=".48"/><stop stop-color="#6E49FF" offset=".484"/><stop stop-color="#6F48FF" offset=".488"/><stop stop-color="#6F48FF" offset=".492"/><stop stop-color="#7048FF" offset=".496"/><stop stop-color="#7148FF" offset=".5"/><stop stop-color="#7147FF" offset=".504"/><stop stop-color="#7247FF" offset=".508"/><stop stop-color="#7347FF" offset=".512"/><stop stop-color="#7346FF" offset=".516"/><stop stop-color="#7446FF" offset=".52"/><stop stop-color="#7546FF" offset=".523"/><stop stop-color="#7545FF" offset=".527"/><stop stop-color="#7645FF" offset=".531"/><stop stop-color="#7745FF" offset=".535"/><stop stop-color="#7745FF" offset=".539"/><stop stop-color="#7844FF" offset=".543"/><stop stop-color="#7944FF" offset=".547"/><stop stop-color="#7A44FF" offset=".551"/><stop stop-color="#7A43FF" offset=".555"/><stop stop-color="#7B43FF" offset=".559"/><stop stop-color="#7C43FF" offset=".563"/><stop stop-color="#7C43FF" offset=".566"/><stop stop-color="#7D42FF" offset=".57"/><stop stop-color="#7E42FF" offset=".574"/><stop stop-color="#7E42FF" offset=".578"/><stop stop-color="#7F41FF" offset=".582"/><stop stop-color="#8041FF" offset=".586"/><stop stop-color="#8041FF" offset=".59"/><stop stop-color="#8140FF" offset=".594"/><stop stop-color="#8240FF" offset=".598"/><stop stop-color="#8240FF" offset=".602"/><stop stop-color="#8340FF" offset=".605"/><stop stop-color="#843FFF" offset=".609"/><stop stop-color="#843FFF" offset=".613"/><stop stop-color="#853FFF" offset=".617"/><stop stop-color="#863EFF" offset=".621"/><stop stop-color="#863EFF" offset=".625"/><stop stop-color="#873EFF" offset=".629"/><stop stop-color="#883EFF" offset=".633"/><stop stop-color="#883DFF" offset=".637"/><stop stop-color="#893DFF" offset=".641"/><stop stop-color="#8A3DFF" offset=".645"/><stop stop-color="#8B3CFF" offset=".648"/><stop stop-color="#8B3CFF" offset=".652"/><stop stop-color="#8C3CFF" offset=".656"/><stop stop-color="#8D3CFF" offset=".66"/><stop stop-color="#8D3BFF" offset=".664"/><stop stop-color="#8E3BFF" offset=".668"/><stop stop-color="#8F3BFF" offset=".672"/><stop stop-color="#8F3AFF" offset=".676"/><stop stop-color="#903AFF" offset=".68"/><stop stop-color="#913AFF" offset=".684"/><stop stop-color="#9139FF" offset=".688"/><stop stop-color="#9239FF" offset=".691"/><stop stop-color="#9339FF" offset=".695"/><stop stop-color="#9339FF" offset=".699"/><stop stop-color="#9438FF" offset=".703"/><stop stop-color="#9538FF" offset=".707"/><stop stop-color="#9538FF" offset=".711"/><stop stop-color="#9637FF" offset=".715"/><stop stop-color="#9737FF" offset=".719"/><stop stop-color="#9737FF" offset=".723"/><stop stop-color="#9837FF" offset=".727"/><stop stop-color="#9936FF" offset=".73"/><stop stop-color="#9936FF" offset=".734"/><stop stop-color="#9A36FF" offset=".738"/><stop stop-color="#9B35FF" offset=".742"/><stop stop-color="#9C35FF" offset=".746"/><stop stop-color="#9C35FF" offset=".75"/><stop stop-color="#9D34FF" offset=".754"/><stop stop-color="#9E34FF" offset=".758"/><stop stop-color="#9E34FF" offset=".762"/><stop stop-color="#9F34FF" offset=".766"/><stop stop-color="#A033FF" offset=".77"/><stop stop-color="#A033FF" offset=".773"/><stop stop-color="#A133FF" offset=".777"/><stop stop-color="#A232FF" offset=".781"/><stop stop-color="#A232FF" offset=".785"/><stop stop-color="#A332FF" offset=".789"/><stop stop-color="#A432FF" offset=".793"/><stop stop-color="#A431FF" offset=".797"/><stop stop-color="#A531FF" offset=".801"/><stop stop-color="#A631FF" offset=".805"/><stop stop-color="#A630FF" offset=".809"/><stop stop-color="#A730FF" offset=".813"/><stop stop-color="#A830FF" offset=".816"/><stop stop-color="#A82FFF" offset=".82"/><stop stop-color="#A92FFF" offset=".824"/><stop stop-color="#AA2FFF" offset=".828"/><stop stop-color="#AA2FFF" offset=".832"/><stop stop-color="#AB2EFF" offset=".836"/><stop stop-color="#AC2EFF" offset=".84"/><stop stop-color="#AD2EFF" offset=".844"/><stop stop-color="#AD2DFF" offset=".848"/><stop stop-color="#AE2DFF" offset=".852"/><stop stop-color="#AF2DFF" offset=".855"/><stop stop-color="#AF2DFF" offset=".859"/><stop stop-color="#B02CFF" offset=".863"/><stop stop-color="#B12CFF" offset=".867"/><stop stop-color="#B12CFF" offset=".871"/><stop stop-color="#B22BFF" offset=".875"/><stop stop-color="#B32BFF" offset=".879"/><stop stop-color="#B32BFF" offset=".883"/><stop stop-color="#B42AFF" offset=".887"/><stop stop-color="#B52AFF" offset=".891"/><stop stop-color="#B52AFF" offset=".895"/><stop stop-color="#B62AFF" offset=".898"/><stop stop-color="#B729FF" offset=".902"/><stop stop-color="#B729FF" offset=".906"/><stop stop-color="#B829FF" offset=".91"/><stop stop-color="#B928FF" offset=".914"/><stop stop-color="#B928FF" offset=".918"/><stop stop-color="#BA28FF" offset=".922"/><stop stop-color="#BB28FF" offset=".926"/><stop stop-color="#BC27FF" offset=".93"/><stop stop-color="#BC27FF" offset=".934"/><stop stop-color="#BD27FF" offset=".938"/><stop stop-color="#BE26FF" offset=".941"/><stop stop-color="#BE26FF" offset=".945"/><stop stop-color="#BF26FF" offset=".949"/><stop stop-color="#C026FF" offset=".953"/><stop stop-color="#C025FF" offset=".957"/><stop stop-color="#C125FF" offset=".961"/><stop stop-color="#C225FF" offset=".965"/><stop stop-color="#C224FF" offset=".969"/><stop stop-color="#C324FF" offset=".973"/><stop stop-color="#C424FF" offset=".977"/><stop stop-color="#C423FF" offset=".98"/><stop stop-color="#C523FF" offset=".984"/><stop stop-color="#C623FF" offset=".988"/><stop stop-color="#C623FF" offset=".992"/><stop stop-color="#C722FF" offset=".996"/><stop stop-color="#C822FF" offset="1"/></linearGradient></defs><g clip-path="url(#a)"><g clip-path="url(#b)"><path fill="url(#c)" d="M 187.59375 144.613281 L 187.59375 259.976562 L 253.074219 259.976562 L 253.074219 144.613281 Z M 187.59375 144.613281"/></g></g><g clip-path="url(#d)"><g clip-path="url(#e)"><path fill="url(#f)" d="M 118.535156 112.546875 L 118.535156 262.5 L 256.652344 262.5 L 256.652344 112.546875 Z M 118.535156 112.546875"/></g></g></svg>