<svg xmlns="http://www.w3.org/2000/svg" width="375" viewBox="0 0 375 375" height="375" version="1.0"><defs><clipPath id="a"><path d="M 71.621094 71.621094 L 303.371094 71.621094 L 303.371094 303.371094 L 71.621094 303.371094 Z M 71.621094 71.621094"/></clipPath></defs><g clip-path="url(#a)"><path fill="#FFF" d="M 73.214844 190.316406 L 82.949219 196.351562 C 83.023438 197.296875 83.121094 198.253906 83.21875 199.1875 L 74.855469 206.992188 C 74.199219 207.609375 73.792969 208.480469 73.792969 209.433594 C 73.792969 210.863281 74.691406 212.082031 75.957031 212.5625 L 75.976562 212.574219 L 86.65625 216.570312 C 86.917969 217.496094 87.207031 218.414062 87.496094 219.332031 L 80.832031 228.59375 C 80.425781 229.144531 80.195312 229.820312 80.195312 230.5625 C 80.195312 232.222656 81.421875 233.605469 83.015625 233.855469 L 83.035156 233.855469 L 94.292969 235.679688 C 94.726562 236.53125 95.183594 237.371094 95.65625 238.210938 L 90.914062 248.609375 C 90.722656 249.023438 90.613281 249.5 90.613281 250 C 90.613281 251.84375 92.109375 253.339844 93.957031 253.339844 C 94.003906 253.339844 94.042969 253.339844 94.089844 253.339844 L 105.503906 252.9375 C 106.101562 253.679688 106.691406 254.414062 107.308594 255.136719 L 104.703125 266.289062 C 104.644531 266.523438 104.617188 266.792969 104.617188 267.054688 C 104.617188 268.90625 106.113281 270.394531 107.957031 270.394531 C 108.226562 270.394531 108.496094 270.367188 108.75 270.296875 L 108.730469 270.296875 L 119.863281 267.679688 C 120.585938 268.300781 121.320312 268.886719 122.066406 269.476562 L 121.667969 280.917969 C 121.667969 280.96875 121.667969 281.015625 121.667969 281.066406 C 121.667969 282.898438 123.15625 284.386719 124.992188 284.386719 C 125.503906 284.386719 125.984375 284.269531 126.417969 284.058594 L 126.402344 284.066406 L 136.789062 279.335938 C 137.628906 279.808594 138.472656 280.253906 139.320312 280.699219 L 141.15625 291.964844 C 141.425781 293.570312 142.804688 294.777344 144.46875 294.777344 C 145.191406 294.777344 145.867188 294.542969 146.417969 294.148438 L 146.410156 294.160156 L 155.667969 287.484375 C 156.585938 287.777344 157.492188 288.066406 158.421875 288.328125 L 162.417969 299.015625 C 162.902344 300.308594 164.117188 301.207031 165.546875 301.207031 C 166.511719 301.207031 167.382812 300.792969 168 300.125 L 175.800781 291.765625 C 176.738281 291.871094 177.683594 291.957031 178.640625 292.042969 L 184.667969 301.777344 C 185.265625 302.753906 186.308594 303.371094 187.503906 303.371094 C 188.703125 303.371094 189.746094 302.742188 190.34375 301.804688 L 190.355469 301.796875 L 196.378906 292.0625 C 197.324219 291.976562 198.273438 291.890625 199.21875 291.78125 L 207.011719 300.144531 C 207.628906 300.792969 208.488281 301.1875 209.453125 301.1875 C 210.882812 301.1875 212.101562 300.300781 212.59375 299.042969 L 212.601562 299.023438 L 216.597656 288.335938 C 217.527344 288.074219 218.445312 287.785156 219.351562 287.496094 L 228.613281 294.167969 C 229.164062 294.5625 229.839844 294.804688 230.570312 294.804688 C 232.234375 294.804688 233.613281 293.578125 233.863281 291.984375 L 233.863281 291.964844 L 235.699219 280.699219 C 236.550781 280.261719 237.390625 279.800781 238.230469 279.335938 L 248.621094 284.066406 C 249.023438 284.25 249.5 284.359375 250 284.359375 C 251.84375 284.359375 253.351562 282.851562 253.351562 281.007812 C 253.351562 280.96875 253.351562 280.9375 253.351562 280.910156 L 252.945312 269.46875 C 253.6875 268.878906 254.421875 268.28125 255.136719 267.671875 L 266.269531 270.296875 C 266.492188 270.355469 266.765625 270.386719 267.035156 270.386719 C 268.878906 270.386719 270.386719 268.878906 270.386719 267.035156 C 270.386719 266.773438 270.355469 266.503906 270.296875 266.261719 L 270.296875 266.28125 L 267.679688 255.128906 C 268.289062 254.402344 268.898438 253.667969 269.476562 252.925781 L 280.910156 253.332031 C 280.957031 253.332031 281.007812 253.332031 281.066406 253.332031 C 282.898438 253.332031 284.386719 251.84375 284.386719 250.011719 C 284.386719 249.5 284.269531 249.015625 284.066406 248.582031 L 284.078125 248.601562 L 279.347656 238.199219 C 279.808594 237.359375 280.261719 236.519531 280.707031 235.671875 L 291.964844 233.84375 C 293.570312 233.566406 294.765625 232.183594 294.765625 230.535156 C 294.765625 229.800781 294.535156 229.125 294.140625 228.574219 L 294.148438 228.582031 L 287.484375 219.324219 L 288.324219 216.5625 L 299.007812 212.5625 C 300.289062 212.070312 301.1875 210.863281 301.1875 209.425781 C 301.1875 208.460938 300.773438 207.589844 300.125 206.980469 L 291.765625 199.179688 C 291.859375 198.242188 291.957031 197.285156 292.035156 196.339844 L 301.757812 190.316406 C 302.722656 189.714844 303.359375 188.671875 303.359375 187.464844 C 303.359375 186.257812 302.722656 185.214844 301.769531 184.628906 L 301.757812 184.617188 L 301.738281 184.648438 L 292.015625 178.621094 C 291.910156 177.425781 291.832031 176.574219 291.753906 175.773438 L 300.105469 167.988281 C 300.753906 167.371094 301.148438 166.511719 301.148438 165.546875 C 301.148438 164.117188 300.261719 162.902344 299.007812 162.410156 L 298.988281 162.390625 L 288.308594 158.390625 C 287.96875 157.175781 287.71875 156.375 287.476562 155.609375 L 294.128906 146.371094 C 294.527344 145.820312 294.765625 145.144531 294.765625 144.410156 C 294.765625 142.75 293.550781 141.367188 291.964844 141.117188 L 291.945312 141.117188 L 280.6875 139.292969 C 280.128906 138.179688 279.722656 137.449219 279.335938 136.742188 L 284.058594 126.363281 C 284.550781 125.308594 284.445312 124.074219 283.796875 123.117188 C 283.152344 122.160156 282.058594 121.589844 280.890625 121.628906 L 269.457031 122.027344 C 268.78125 121.167969 268.183594 120.453125 267.585938 119.757812 L 267.652344 119.835938 L 270.277344 108.691406 C 270.335938 108.46875 270.367188 108.199219 270.367188 107.929688 C 270.367188 106.074219 268.859375 104.578125 267.015625 104.578125 C 266.746094 104.578125 266.472656 104.605469 266.234375 104.664062 L 266.253906 104.664062 L 255.117188 107.289062 C 254.605469 106.855469 253.890625 106.265625 253.175781 105.679688 L 252.925781 105.484375 L 253.332031 94.042969 C 253.332031 93.996094 253.332031 93.945312 253.332031 93.886719 C 253.332031 92.054688 251.84375 90.566406 250.011719 90.566406 C 249.5 90.566406 249.015625 90.683594 248.582031 90.886719 L 248.601562 90.875 L 238.210938 95.617188 C 237.371094 95.152344 236.53125 94.699219 235.679688 94.253906 L 233.84375 82.976562 C 233.566406 81.375 232.183594 80.175781 230.535156 80.175781 C 229.800781 80.175781 229.125 80.40625 228.574219 80.804688 L 228.582031 80.792969 L 219.3125 87.464844 C 218.984375 87.332031 218.058594 87.042969 217.128906 86.78125 L 216.550781 86.636719 L 212.554688 75.945312 C 212.050781 74.671875 210.835938 73.785156 209.414062 73.785156 C 208.460938 73.785156 207.589844 74.1875 206.980469 74.828125 L 199.1875 83.207031 C 198.628906 83.132812 197.664062 83.042969 196.679688 82.957031 L 196.359375 82.9375 L 190.335938 73.203125 C 189.734375 72.25 188.671875 71.621094 187.484375 71.621094 C 186.289062 71.621094 185.234375 72.25 184.648438 73.195312 L 184.636719 73.203125 L 178.613281 82.9375 C 177.675781 83.015625 176.71875 83.113281 175.78125 83.207031 L 167.980469 74.835938 C 167.363281 74.179688 166.492188 73.773438 165.539062 73.773438 C 164.109375 73.773438 162.890625 74.671875 162.410156 75.9375 L 162.398438 75.957031 L 158.402344 86.644531 C 157.472656 86.90625 156.566406 87.195312 155.648438 87.476562 L 146.390625 80.804688 C 145.859375 80.40625 145.183594 80.1875 144.449219 80.1875 C 142.789062 80.1875 141.40625 81.394531 141.136719 82.964844 L 141.136719 82.984375 L 139.300781 94.265625 C 138.191406 94.824219 137.457031 95.230469 136.753906 95.617188 L 126.371094 90.875 C 125.957031 90.683594 125.484375 90.574219 124.980469 90.574219 C 123.136719 90.574219 121.640625 92.074219 121.640625 93.917969 C 121.640625 93.964844 121.640625 94.003906 121.640625 94.042969 L 122.046875 105.484375 C 121.300781 106.074219 120.566406 106.683594 119.84375 107.300781 L 108.710938 104.664062 C 108.480469 104.605469 108.21875 104.578125 107.949219 104.578125 C 106.101562 104.578125 104.597656 106.082031 104.597656 107.929688 C 104.597656 108.199219 104.625 108.46875 104.683594 108.710938 L 104.683594 108.699219 L 107.300781 119.84375 C 106.691406 120.558594 106.082031 121.292969 105.503906 122.027344 L 94.0625 121.628906 C 94.023438 121.628906 93.984375 121.628906 93.9375 121.628906 C 92.09375 121.628906 90.59375 123.128906 90.59375 124.972656 C 90.59375 125.484375 90.703125 125.957031 90.902344 126.382812 L 90.894531 126.363281 L 95.636719 136.761719 C 95.402344 137.148438 94.949219 137.976562 94.515625 138.808594 L 94.285156 139.292969 L 83.015625 141.117188 C 81.410156 141.398438 80.214844 142.777344 80.214844 144.429688 C 80.214844 145.164062 80.445312 145.839844 80.84375 146.390625 L 80.84375 146.378906 L 87.503906 155.640625 C 87.214844 156.558594 86.933594 157.464844 86.664062 158.402344 L 75.984375 162.398438 C 74.710938 162.902344 73.824219 164.117188 73.824219 165.539062 C 73.824219 166.492188 74.226562 167.363281 74.863281 167.96875 L 83.226562 175.761719 C 83.148438 176.324219 83.0625 177.289062 82.976562 178.273438 L 82.957031 178.59375 L 73.234375 184.617188 C 72.257812 185.226562 71.621094 186.269531 71.621094 187.476562 C 71.621094 188.683594 72.257812 189.726562 73.214844 190.316406 Z M 137.667969 265.015625 L 137.621094 265.027344 C 137.195312 265.121094 136.683594 265.179688 136.171875 265.179688 C 132.367188 265.179688 129.277344 262.089844 129.277344 258.285156 C 129.277344 254.992188 131.585938 252.230469 134.6875 251.546875 L 134.734375 251.535156 C 135.160156 251.4375 135.671875 251.382812 136.183594 251.382812 C 139.988281 251.382812 143.078125 254.472656 143.078125 258.277344 C 143.078125 261.570312 140.769531 264.332031 137.667969 265.015625 Z M 236.625 265.34375 L 236.65625 265.355469 C 236.644531 265.355469 236.636719 265.34375 236.625 265.34375 Z M 238.085938 265.5 C 237.582031 265.5 237.089844 265.441406 236.617188 265.335938 C 233.496094 264.628906 231.199219 261.898438 231.199219 258.605469 C 231.199219 254.800781 234.289062 251.710938 238.09375 251.710938 C 238.585938 251.710938 239.078125 251.769531 239.550781 251.863281 C 242.679688 252.570312 244.980469 255.3125 244.980469 258.605469 C 244.96875 262.410156 241.878906 265.5 238.085938 265.5 Z M 255.738281 236.917969 C 253.226562 240.316406 250.65625 243.320312 247.894531 246.117188 L 233.34375 242.988281 L 233.351562 243 C 232.957031 242.914062 232.503906 242.863281 232.03125 242.863281 C 229.027344 242.863281 226.515625 244.980469 225.90625 247.789062 L 225.898438 247.828125 L 222.453125 263.945312 C 211.800781 268.78125 199.972656 271.476562 187.503906 271.476562 C 187.464844 271.476562 187.429688 271.476562 187.378906 271.476562 C 174.671875 271.476562 162.628906 268.636719 151.816406 263.605469 L 148.367188 247.5 C 147.75 244.640625 145.238281 242.535156 142.246094 242.535156 C 141.773438 242.535156 141.320312 242.585938 140.875 242.679688 L 140.914062 242.671875 L 126.691406 245.722656 C 124.132812 243.085938 121.71875 240.257812 119.496094 237.273438 L 119.34375 237.050781 L 188.546875 237.050781 C 189.332031 237.050781 189.863281 236.917969 189.863281 236.203125 L 189.863281 211.703125 C 189.863281 210.988281 189.339844 210.855469 188.546875 210.855469 L 168.300781 210.855469 L 168.300781 195.328125 L 190.199219 195.328125 C 192.1875 195.328125 200.878906 195.898438 203.660156 207 C 204.527344 210.410156 206.429688 221.535156 207.746094 225.097656 C 209.046875 229.085938 214.339844 237.0625 219.988281 237.0625 L 254.480469 237.0625 C 254.925781 237.050781 255.359375 237.011719 255.785156 236.925781 Z M 168.328125 172.382812 L 168.328125 156.429688 L 196.910156 156.429688 C 198.386719 156.429688 207.328125 158.140625 207.328125 164.832031 C 207.328125 170.382812 200.464844 172.382812 194.824219 172.382812 Z M 262.902344 158.835938 C 264.445312 155.351562 268.511719 153.785156 271.976562 155.332031 C 274.421875 156.421875 276.082031 158.84375 276.082031 161.636719 C 276.082031 165.441406 272.992188 168.53125 269.1875 168.53125 C 265.382812 168.53125 262.292969 165.441406 262.292969 161.636719 C 262.300781 160.632812 262.523438 159.6875 262.902344 158.835938 Z M 182.398438 93.984375 L 182.398438 94.003906 C 183.632812 92.824219 185.304688 92.09375 187.148438 92.09375 C 190.953125 92.09375 194.03125 95.171875 194.03125 98.976562 C 194.03125 100.9375 193.210938 102.703125 191.898438 103.960938 C 190.703125 104.992188 189.128906 105.628906 187.390625 105.628906 C 183.585938 105.628906 180.496094 102.539062 180.496094 98.734375 C 180.496094 96.902344 181.21875 95.230469 182.398438 93.984375 Z M 171.253906 103.542969 L 171.792969 103.457031 L 182.386719 114.582031 C 183.527344 115.789062 185.128906 116.53125 186.925781 116.53125 C 188.605469 116.53125 190.132812 115.867188 191.261719 114.792969 L 203.109375 103.449219 C 228.101562 108.246094 248.804688 123.484375 260.875 144.351562 L 261.085938 144.765625 L 252.976562 163.105469 C 252.636719 163.855469 252.433594 164.726562 252.433594 165.644531 C 252.433594 168.183594 253.949219 170.382812 256.121094 171.371094 L 256.160156 171.390625 L 271.785156 178.332031 C 272.054688 181.113281 272.199219 183.902344 272.199219 186.753906 L 272.21875 186.753906 C 272.21875 188.867188 272.140625 190.960938 271.988281 193.039062 L 263.296875 193.039062 C 262.429688 193.039062 262.070312 193.609375 262.070312 194.46875 L 262.070312 198.457031 C 262.070312 207.851562 256.769531 209.898438 252.132812 210.417969 C 247.710938 210.921875 242.816406 208.574219 242.207031 205.863281 C 239.601562 191.195312 235.253906 188.054688 228.398438 182.648438 C 236.917969 177.242188 245.769531 169.253906 245.769531 158.574219 C 245.769531 147.046875 237.863281 139.773438 232.472656 136.210938 C 224.914062 131.21875 216.550781 130.222656 214.292969 130.222656 L 124.410156 130.222656 C 136.539062 116.6875 152.820312 107.125 171.253906 103.542969 Z M 121.300781 162.707031 L 121.320312 162.746094 L 118.269531 155.851562 L 130.273438 155.851562 L 130.273438 209.976562 L 106.054688 209.976562 C 103.996094 203.03125 102.820312 195.039062 102.820312 186.78125 C 102.820312 183.679688 103.003906 180.640625 103.332031 177.625 L 118.125 171.050781 C 120.347656 170.054688 121.863281 167.855469 121.863281 165.304688 C 121.851562 164.378906 121.660156 163.507812 121.300781 162.707031 Z M 105.15625 154.585938 C 107.871094 154.585938 110.214844 156.160156 111.347656 158.449219 L 111.367188 158.488281 L 111.367188 158.496094 C 111.800781 159.375 112.050781 160.398438 112.050781 161.492188 C 112.050781 165.296875 108.960938 168.386719 105.15625 168.386719 C 102.277344 168.386719 99.828125 166.636719 98.792969 164.128906 L 98.773438 164.078125 C 98.457031 163.308594 98.273438 162.417969 98.273438 161.480469 C 98.273438 157.675781 101.351562 154.585938 105.15625 154.585938 Z M 105.15625 154.585938"/></g></svg>